<svg width="153" height="44" viewBox="0 0 153 44" fill="none" xmlns="http://www.w3.org/2000/svg">
<path d="M5.41048 13.3365C4.35512 13.3365 3.44048 14.0683 3.21182 15.099L1.46344 22.979C1.15035 24.3861 2.21978 25.7194 3.65858 25.7194H10.135V27.9708H7.88353C7.26087 27.9708 6.75782 28.4739 6.75782 29.0966C6.75782 29.7192 7.26087 30.2223 7.88353 30.2223H14.6378C15.2605 30.2223 15.7635 29.7192 15.7635 29.0966C15.7635 28.4739 15.2605 27.9708 14.6378 27.9708H12.3864V25.7194H18.8628C20.3016 25.7194 21.3745 24.3861 21.0614 22.979L19.3095 15.099C19.0809 14.0683 18.1698 13.3365 17.1144 13.3365H5.41048ZM9.76559 15.588H12.7628L13.0196 18.6837H9.50878L9.76559 15.588ZM7.81318 18.6837H4.7245L5.414 15.588H8.0735L7.81669 18.6837H7.81318ZM4.34808 20.3723H7.67246L7.41566 23.468H3.6621L4.3516 20.3723H4.34808ZM9.36455 20.3723H13.1568L13.4136 23.468H9.10423L9.36103 20.3723H9.36455ZM14.8524 20.3723H18.1768L18.8663 23.468H15.1127L14.8559 20.3723H14.8524ZM17.8004 18.6837H14.7117L14.4549 15.588H17.1144L17.8039 18.6837H17.8004Z" fill="#4CAF4F"/>
<path d="M33.9152 18.0218C33.3129 18.0218 32.7759 17.911 32.3044 17.6894C31.8356 17.4678 31.4634 17.1624 31.1879 16.7732C30.9123 16.384 30.7688 15.938 30.7575 15.4351H32.5473C32.5671 15.7732 32.7092 16.0474 32.9734 16.2576C33.2376 16.4678 33.5515 16.5729 33.9152 16.5729C34.2049 16.5729 34.4606 16.509 34.6822 16.3812C34.9066 16.2505 35.0813 16.0701 35.2063 15.84C35.3342 15.607 35.3981 15.34 35.3981 15.0388C35.3981 14.732 35.3328 14.4621 35.2021 14.2292C35.0742 13.9962 34.8967 13.8144 34.6694 13.6837C34.4421 13.553 34.1822 13.4863 33.8896 13.4834C33.6339 13.4834 33.3853 13.536 33.1438 13.6411C32.9052 13.7462 32.7191 13.8897 32.5856 14.0715L30.945 13.7775L31.3583 9.17519H36.6936V10.6837H32.8796L32.6538 12.8698H32.7049C32.8583 12.6539 33.0899 12.4749 33.3995 12.3329C33.7092 12.1908 34.0558 12.1198 34.4393 12.1198C34.9649 12.1198 35.4336 12.2434 35.8455 12.4905C36.2575 12.7377 36.5828 13.0772 36.8214 13.509C37.06 13.938 37.1779 14.4323 37.1751 14.992C37.1779 15.58 37.0416 16.1027 36.766 16.5601C36.4933 17.0147 36.1112 17.3726 35.6197 17.634C35.1311 17.8925 34.5629 18.0218 33.9152 18.0218ZM38.3299 16.3684V14.9152L41.9734 9.17519H43.2262V11.1866H42.4848L40.1879 14.8215V14.8897H45.3654V16.3684H38.3299ZM42.5188 17.9025V15.9252L42.5529 15.2817V9.17519H44.283V17.9025H42.5188ZM50.0167 18.0942C49.2838 18.0914 48.6531 17.911 48.1247 17.553C47.5991 17.1951 47.1943 16.6766 46.9102 15.9976C46.6289 15.3187 46.4897 14.5019 46.4926 13.5474C46.4926 12.5956 46.6332 11.7846 46.9144 11.1141C47.1985 10.4437 47.6034 9.93372 48.1289 9.58428C48.6573 9.23201 49.2866 9.05587 50.0167 9.05587C50.7468 9.05587 51.3747 9.23201 51.9002 9.58428C52.4286 9.93656 52.8349 10.4479 53.119 11.1184C53.4031 11.786 53.5437 12.5956 53.5409 13.5474C53.5409 14.5047 53.3988 15.3229 53.1147 16.0019C52.8335 16.6809 52.4301 17.1993 51.9045 17.5573C51.3789 17.9152 50.7497 18.0942 50.0167 18.0942ZM50.0167 16.5644C50.5167 16.5644 50.9159 16.313 51.2142 15.8101C51.5125 15.3073 51.6602 14.553 51.6573 13.5474C51.6573 12.8854 51.5892 12.3343 51.4528 11.8939C51.3193 11.4536 51.1289 11.1226 50.8818 10.901C50.6375 10.6795 50.3491 10.5687 50.0167 10.5687C49.5196 10.5687 49.1218 10.8172 48.8235 11.3144C48.5252 11.8116 48.3747 12.5559 48.3718 13.5474C48.3718 14.2178 48.4386 14.7775 48.5721 15.2263C48.7085 15.6724 48.9002 16.0076 49.1474 16.232C49.3946 16.4536 49.6843 16.5644 50.0167 16.5644ZM55.5831 18.0133C55.3019 18.0133 55.0604 17.9138 54.8587 17.715C54.6598 17.5133 54.5604 17.2718 54.5604 16.9905C54.5604 16.7121 54.6598 16.4735 54.8587 16.2746C55.0604 16.0758 55.3019 15.9763 55.5831 15.9763C55.8558 15.9763 56.0945 16.0758 56.299 16.2746C56.5036 16.4735 56.6058 16.7121 56.6058 16.9905C56.6058 17.178 56.5576 17.3499 56.461 17.5062C56.3672 17.6596 56.2436 17.7831 56.0902 17.8769C55.9368 17.9678 55.7678 18.0133 55.5831 18.0133ZM61.1495 18.0942C60.4166 18.0914 59.7859 17.911 59.2575 17.553C58.7319 17.1951 58.3271 16.6766 58.043 15.9976C57.7617 15.3187 57.6225 14.5019 57.6254 13.5474C57.6254 12.5956 57.766 11.7846 58.0473 11.1141C58.3313 10.4437 58.7362 9.93372 59.2617 9.58428C59.7902 9.23201 60.4194 9.05587 61.1495 9.05587C61.8796 9.05587 62.5075 9.23201 63.033 9.58428C63.5615 9.93656 63.9677 10.4479 64.2518 11.1184C64.5359 11.786 64.6765 12.5956 64.6737 13.5474C64.6737 14.5047 64.5316 15.3229 64.2475 16.0019C63.9663 16.6809 63.5629 17.1993 63.0373 17.5573C62.5117 17.9152 61.8825 18.0942 61.1495 18.0942ZM61.1495 16.5644C61.6495 16.5644 62.0487 16.313 62.347 15.8101C62.6453 15.3073 62.793 14.553 62.7902 13.5474C62.7902 12.8854 62.722 12.3343 62.5856 11.8939C62.4521 11.4536 62.2617 11.1226 62.0146 10.901C61.7703 10.6795 61.4819 10.5687 61.1495 10.5687C60.6524 10.5687 60.2546 10.8172 59.9563 11.3144C59.658 11.8116 59.5075 12.5559 59.5046 13.5474C59.5046 14.2178 59.5714 14.7775 59.7049 15.2263C59.8413 15.6724 60.033 16.0076 60.2802 16.232C60.5274 16.4536 60.8171 16.5644 61.1495 16.5644ZM69.4112 18.0942C68.6783 18.0914 68.0476 17.911 67.5192 17.553C66.9936 17.1951 66.5888 16.6766 66.3047 15.9976C66.0235 15.3187 65.8843 14.5019 65.8871 13.5474C65.8871 12.5956 66.0277 11.7846 66.309 11.1141C66.5931 10.4437 66.9979 9.93372 67.5235 9.58428C68.0519 9.23201 68.6811 9.05587 69.4112 9.05587C70.1414 9.05587 70.7692 9.23201 71.2948 9.58428C71.8232 9.93656 72.2294 10.4479 72.5135 11.1184C72.7976 11.786 72.9382 12.5956 72.9354 13.5474C72.9354 14.5047 72.7933 15.3229 72.5093 16.0019C72.228 16.6809 71.8246 17.1993 71.299 17.5573C70.7735 17.9152 70.1442 18.0942 69.4112 18.0942ZM69.4112 16.5644C69.9112 16.5644 70.3104 16.313 70.6087 15.8101C70.907 15.3073 71.0547 14.553 71.0519 13.5474C71.0519 12.8854 70.9837 12.3343 70.8473 11.8939C70.7138 11.4536 70.5235 11.1226 70.2763 10.901C70.032 10.6795 69.7436 10.5687 69.4112 10.5687C68.9141 10.5687 68.5164 10.8172 68.2181 11.3144C67.9198 11.8116 67.7692 12.5559 67.7664 13.5474C67.7664 14.2178 67.8331 14.7775 67.9666 15.2263C68.103 15.6724 68.2948 16.0076 68.5419 16.232C68.7891 16.4536 69.0789 16.5644 69.4112 16.5644ZM77.673 18.0942C76.94 18.0914 76.3093 17.911 75.7809 17.553C75.2553 17.1951 74.8505 16.6766 74.5664 15.9976C74.2852 15.3187 74.146 14.5019 74.1488 13.5474C74.1488 12.5956 74.2894 11.7846 74.5707 11.1141C74.8548 10.4437 75.2596 9.93372 75.7852 9.58428C76.3136 9.23201 76.9428 9.05587 77.673 9.05587C78.4031 9.05587 79.0309 9.23201 79.5565 9.58428C80.0849 9.93656 80.4911 10.4479 80.7752 11.1184C81.0593 11.786 81.2 12.5956 81.1971 13.5474C81.1971 14.5047 81.0551 15.3229 80.771 16.0019C80.4897 16.6809 80.0863 17.1993 79.5607 17.5573C79.0352 17.9152 78.4059 18.0942 77.673 18.0942ZM77.673 16.5644C78.173 16.5644 78.5721 16.313 78.8704 15.8101C79.1687 15.3073 79.3164 14.553 79.3136 13.5474C79.3136 12.8854 79.2454 12.3343 79.109 11.8939C78.9755 11.4536 78.7852 11.1226 78.538 10.901C78.2937 10.6795 78.0053 10.5687 77.673 10.5687C77.1758 10.5687 76.7781 10.8172 76.4798 11.3144C76.1815 11.8116 76.0309 12.5559 76.0281 13.5474C76.0281 14.2178 76.0948 14.7775 76.2284 15.2263C76.3647 15.6724 76.5565 16.0076 76.8036 16.232C77.0508 16.4536 77.3406 16.5644 77.673 16.5644ZM85.0089 10.6965V9.17519H92.1765V10.6965H89.5046V17.9025H87.6808V10.6965H85.0089Z" fill="#4D4D4D"/>
<path d="M32.5859 27.6607C32.2223 27.6607 31.9013 27.5689 31.6229 27.3852C31.3445 27.1996 31.1267 26.9382 30.9695 26.6011C30.8123 26.2621 30.7337 25.8615 30.7337 25.3994C30.7337 24.941 30.8123 24.5433 30.9695 24.2062C31.1267 23.8691 31.3454 23.6086 31.6257 23.4249C31.906 23.2412 32.2299 23.1494 32.5973 23.1494C32.8814 23.1494 33.1058 23.1967 33.2706 23.2914C33.4373 23.3842 33.5642 23.4903 33.6513 23.6096C33.7403 23.727 33.8094 23.8236 33.8587 23.8994H33.9155V21.7516H34.5859V27.5698H33.9382V26.8994H33.8587C33.8094 26.9789 33.7394 27.0793 33.6484 27.2005C33.5575 27.3198 33.4278 27.4268 33.2592 27.5215C33.0907 27.6143 32.8663 27.6607 32.5859 27.6607ZM32.6769 27.0585C32.9458 27.0585 33.1731 26.9884 33.3587 26.8482C33.5443 26.7062 33.6854 26.5102 33.782 26.2602C33.8786 26.0083 33.9269 25.7176 33.9269 25.388C33.9269 25.0622 33.8795 24.7772 33.7848 24.5329C33.6901 24.2867 33.55 24.0954 33.3644 23.959C33.1788 23.8208 32.9496 23.7516 32.6769 23.7516C32.3928 23.7516 32.156 23.8246 31.9666 23.9704C31.7791 24.1143 31.638 24.3104 31.5433 24.5585C31.4505 24.8047 31.4041 25.0812 31.4041 25.388C31.4041 25.6986 31.4515 25.9808 31.5462 26.2346C31.6428 26.4865 31.7848 26.6872 31.9723 26.8369C32.1617 26.9846 32.3966 27.0585 32.6769 27.0585ZM37.7365 27.6607C37.3161 27.6607 36.9534 27.5679 36.6484 27.3823C36.3454 27.1948 36.1115 26.9335 35.9467 26.5982C35.7839 26.2611 35.7024 25.8691 35.7024 25.4221C35.7024 24.9751 35.7839 24.5812 35.9467 24.2403C36.1115 23.8975 36.3407 23.6304 36.6342 23.4391C36.9297 23.246 37.2744 23.1494 37.6683 23.1494C37.8956 23.1494 38.12 23.1872 38.3416 23.263C38.5632 23.3388 38.7649 23.4619 38.9467 23.6323C39.1286 23.8009 39.2734 24.0244 39.3814 24.3028C39.4894 24.5812 39.5433 24.924 39.5433 25.3312V25.6153H36.1797V25.0357H38.8615C38.8615 24.7895 38.8123 24.5698 38.7138 24.3766C38.6172 24.1835 38.4789 24.031 38.299 23.9193C38.121 23.8075 37.9108 23.7516 37.6683 23.7516C37.4013 23.7516 37.1702 23.8179 36.9752 23.9505C36.782 24.0812 36.6333 24.2516 36.5291 24.4619C36.425 24.6721 36.3729 24.8975 36.3729 25.138V25.5244C36.3729 25.8539 36.4297 26.1333 36.5433 26.3624C36.6589 26.5897 36.8189 26.763 37.0234 26.8823C37.228 26.9997 37.4657 27.0585 37.7365 27.0585C37.9127 27.0585 38.0717 27.0338 38.2138 26.9846C38.3577 26.9335 38.4818 26.8577 38.5859 26.7573C38.6901 26.6551 38.7706 26.5282 38.8274 26.3766L39.4752 26.5585C39.407 26.7782 39.2924 26.9713 39.1314 27.138C38.9704 27.3028 38.7716 27.4316 38.5348 27.5244C38.2981 27.6153 38.032 27.6607 37.7365 27.6607ZM42.8132 29.2062V23.2062H43.4609V23.8994H43.5405C43.5897 23.8236 43.6579 23.727 43.745 23.6096C43.8341 23.4903 43.9609 23.3842 44.1257 23.2914C44.2924 23.1967 44.5178 23.1494 44.8019 23.1494C45.1693 23.1494 45.4931 23.2412 45.7734 23.4249C46.0538 23.6086 46.2725 23.8691 46.4297 24.2062C46.5869 24.5433 46.6655 24.941 46.6655 25.3994C46.6655 25.8615 46.5869 26.2621 46.4297 26.6011C46.2725 26.9382 46.0547 27.1996 45.7763 27.3852C45.4979 27.5689 45.1769 27.6607 44.8132 27.6607C44.5329 27.6607 44.3085 27.6143 44.1399 27.5215C43.9714 27.4268 43.8416 27.3198 43.7507 27.2005C43.6598 27.0793 43.5897 26.9789 43.5405 26.8994H43.4837V29.2062H42.8132ZM43.4723 25.388C43.4723 25.7176 43.5206 26.0083 43.6172 26.2602C43.7138 26.5102 43.8549 26.7062 44.0405 26.8482C44.2261 26.9884 44.4534 27.0585 44.7223 27.0585C45.0026 27.0585 45.2365 26.9846 45.424 26.8369C45.6134 26.6872 45.7555 26.4865 45.8502 26.2346C45.9467 25.9808 45.995 25.6986 45.995 25.388C45.995 25.0812 45.9477 24.8047 45.853 24.5585C45.7602 24.3104 45.6191 24.1143 45.4297 23.9704C45.2422 23.8246 45.0064 23.7516 44.7223 23.7516C44.4496 23.7516 44.2204 23.8208 44.0348 23.959C43.8492 24.0954 43.7091 24.2867 43.6144 24.5329C43.5197 24.7772 43.4723 25.0622 43.4723 25.388ZM48.9723 27.6721C48.6958 27.6721 48.4449 27.62 48.2195 27.5158C47.9941 27.4098 47.8151 27.2573 47.6825 27.0585C47.55 26.8577 47.4837 26.6153 47.4837 26.3312C47.4837 26.0812 47.5329 25.8785 47.6314 25.7232C47.7299 25.566 47.8615 25.4429 48.0263 25.3539C48.1911 25.2649 48.3729 25.1986 48.5717 25.1551C48.7725 25.1096 48.9742 25.0736 49.1769 25.0471C49.442 25.013 49.657 24.9874 49.8217 24.9704C49.9884 24.9515 50.1096 24.9202 50.1854 24.8766C50.263 24.8331 50.3019 24.7573 50.3019 24.6494V24.6266C50.3019 24.3463 50.2252 24.1285 50.0717 23.9732C49.9202 23.8179 49.6901 23.7403 49.3814 23.7403C49.0613 23.7403 48.8104 23.8104 48.6286 23.9505C48.4467 24.0907 48.3189 24.2403 48.245 24.3994L47.6087 24.1721C47.7223 23.9069 47.8738 23.7005 48.0632 23.5528C48.2545 23.4032 48.4628 23.299 48.6882 23.2403C48.9155 23.1797 49.139 23.1494 49.3587 23.1494C49.4988 23.1494 49.6598 23.1664 49.8416 23.2005C50.0253 23.2327 50.2024 23.2999 50.3729 23.4022C50.5452 23.5045 50.6882 23.6588 50.8019 23.8653C50.9155 24.0717 50.9723 24.3482 50.9723 24.6948V27.5698H50.3019V26.9789H50.2678C50.2223 27.0736 50.1466 27.1749 50.0405 27.2829C49.9344 27.3908 49.7933 27.4827 49.6172 27.5585C49.4411 27.6342 49.2261 27.6721 48.9723 27.6721ZM49.0746 27.0698C49.3397 27.0698 49.5632 27.0177 49.745 26.9136C49.9288 26.8094 50.067 26.6749 50.1598 26.5102C50.2545 26.3454 50.3019 26.1721 50.3019 25.9903V25.3766C50.2734 25.4107 50.2109 25.442 50.1144 25.4704C50.0197 25.4969 49.9098 25.5206 49.7848 25.5414C49.6617 25.5604 49.5414 25.5774 49.424 25.5926C49.3085 25.6058 49.2147 25.6172 49.1428 25.6266C48.9685 25.6494 48.8056 25.6863 48.6541 25.7374C48.5045 25.7867 48.3833 25.8615 48.2905 25.9619C48.1996 26.0604 48.1541 26.1948 48.1541 26.3653C48.1541 26.5982 48.2403 26.7744 48.4127 26.8937C48.5869 27.0111 48.8075 27.0698 49.0746 27.0698ZM52.196 27.5698V23.2062H52.8665V27.5698H52.196ZM52.5369 22.4789C52.4063 22.4789 52.2936 22.4344 52.1989 22.3454C52.1061 22.2564 52.0597 22.1494 52.0597 22.0244C52.0597 21.8994 52.1061 21.7924 52.1989 21.7033C52.2936 21.6143 52.4063 21.5698 52.5369 21.5698C52.6676 21.5698 52.7794 21.6143 52.8722 21.7033C52.9669 21.7924 53.0142 21.8994 53.0142 22.0244C53.0142 22.1494 52.9669 22.2564 52.8722 22.3454C52.7794 22.4344 52.6676 22.4789 52.5369 22.4789ZM54.7649 24.9448V27.5698H54.0945V23.2062H54.7422V23.888H54.799C54.9013 23.6664 55.0566 23.4884 55.2649 23.3539C55.4733 23.2176 55.7422 23.1494 56.0717 23.1494C56.3672 23.1494 56.6257 23.21 56.8473 23.3312C57.0689 23.4505 57.2413 23.6323 57.3644 23.8766C57.4875 24.1191 57.549 24.4259 57.549 24.7971V27.5698H56.8786V24.8426C56.8786 24.4997 56.7895 24.2327 56.6115 24.0414C56.4335 23.8482 56.1892 23.7516 55.8786 23.7516C55.6645 23.7516 55.4733 23.798 55.3047 23.8908C55.138 23.9836 55.0064 24.1191 54.9098 24.2971C54.8132 24.4751 54.7649 24.691 54.7649 24.9448ZM60.6037 27.6607C60.1832 27.6607 59.8206 27.5679 59.5156 27.3823C59.2126 27.1948 58.9787 26.9335 58.8139 26.5982C58.6511 26.2611 58.5696 25.8691 58.5696 25.4221C58.5696 24.9751 58.6511 24.5812 58.8139 24.2403C58.9787 23.8975 59.2079 23.6304 59.5014 23.4391C59.7969 23.246 60.1416 23.1494 60.5355 23.1494C60.7628 23.1494 60.9872 23.1872 61.2088 23.263C61.4304 23.3388 61.6321 23.4619 61.8139 23.6323C61.9957 23.8009 62.1406 24.0244 62.2486 24.3028C62.3565 24.5812 62.4105 24.924 62.4105 25.3312V25.6153H59.0469V25.0357H61.7287C61.7287 24.7895 61.6795 24.5698 61.581 24.3766C61.4844 24.1835 61.3461 24.031 61.1662 23.9193C60.9882 23.8075 60.7779 23.7516 60.5355 23.7516C60.2685 23.7516 60.0374 23.8179 59.8423 23.9505C59.6492 24.0812 59.5005 24.2516 59.3963 24.4619C59.2922 24.6721 59.2401 24.8975 59.2401 25.138V25.5244C59.2401 25.8539 59.2969 26.1333 59.4105 26.3624C59.5261 26.5897 59.6861 26.763 59.8906 26.8823C60.0952 26.9997 60.3329 27.0585 60.6037 27.0585C60.7798 27.0585 60.9389 27.0338 61.081 26.9846C61.2249 26.9335 61.349 26.8577 61.4531 26.7573C61.5573 26.6551 61.6378 26.5282 61.6946 26.3766L62.3423 26.5585C62.2742 26.7782 62.1596 26.9713 61.9986 27.138C61.8376 27.3028 61.6387 27.4316 61.402 27.5244C61.1653 27.6153 60.8992 27.6607 60.6037 27.6607ZM60.1946 22.6153L60.8878 21.2971H61.6719L60.7855 22.6153H60.1946ZM63.4304 27.5698V23.2062H64.1009V27.5698H63.4304ZM63.7713 22.4789C63.6406 22.4789 63.5279 22.4344 63.4332 22.3454C63.3404 22.2564 63.294 22.1494 63.294 22.0244C63.294 21.8994 63.3404 21.7924 63.4332 21.7033C63.5279 21.6143 63.6406 21.5698 63.7713 21.5698C63.902 21.5698 64.0137 21.6143 64.1065 21.7033C64.2012 21.7924 64.2486 21.8994 64.2486 22.0244C64.2486 22.1494 64.2012 22.2564 64.1065 22.3454C64.0137 22.4344 63.902 22.4789 63.7713 22.4789ZM68.4198 24.1835L67.8175 24.3539C67.7796 24.2535 67.7237 24.156 67.6499 24.0613C67.5779 23.9647 67.4794 23.8852 67.3544 23.8227C67.2294 23.7602 67.0694 23.7289 66.8743 23.7289C66.6073 23.7289 66.3847 23.7905 66.2067 23.9136C66.0306 24.0348 65.9425 24.1891 65.9425 24.3766C65.9425 24.5433 66.0031 24.6749 66.1243 24.7715C66.2455 24.8681 66.4349 24.9486 66.6925 25.013L67.3402 25.1721C67.7304 25.2668 68.0211 25.4117 68.2124 25.6068C68.4037 25.7999 68.4993 26.049 68.4993 26.3539C68.4993 26.6039 68.4273 26.8274 68.2834 27.0244C68.1413 27.2213 67.9425 27.3766 67.6868 27.4903C67.4311 27.6039 67.1338 27.6607 66.7948 27.6607C66.3497 27.6607 65.9813 27.5641 65.6896 27.371C65.398 27.1778 65.2133 26.8956 65.1357 26.5244L65.772 26.3653C65.8326 26.6001 65.9472 26.7763 66.1158 26.8937C66.2862 27.0111 66.5088 27.0698 66.7834 27.0698C67.0959 27.0698 67.344 27.0035 67.5277 26.871C67.7133 26.7365 67.8061 26.5755 67.8061 26.388C67.8061 26.2365 67.7531 26.1096 67.647 26.0073C67.541 25.9032 67.3781 25.8255 67.1584 25.7744L66.4311 25.6039C66.0315 25.5092 65.7379 25.3624 65.5504 25.1636C65.3648 24.9628 65.272 24.7119 65.272 24.4107C65.272 24.1645 65.3412 23.9467 65.4794 23.7573C65.6196 23.5679 65.8099 23.4193 66.0504 23.3113C66.2929 23.2033 66.5675 23.1494 66.8743 23.1494C67.3061 23.1494 67.6451 23.2441 67.8913 23.4335C68.1395 23.6229 68.3156 23.8729 68.4198 24.1835ZM73.4063 27.6607C73.0426 27.6607 72.7216 27.5689 72.4432 27.3852C72.1648 27.1996 71.947 26.9382 71.7898 26.6011C71.6326 26.2621 71.554 25.8615 71.554 25.3994C71.554 24.941 71.6326 24.5433 71.7898 24.2062C71.947 23.8691 72.1657 23.6086 72.446 23.4249C72.7263 23.2412 73.0502 23.1494 73.4176 23.1494C73.7017 23.1494 73.9261 23.1967 74.0909 23.2914C74.2576 23.3842 74.3845 23.4903 74.4716 23.6096C74.5606 23.727 74.6297 23.8236 74.679 23.8994H74.7358V21.7516H75.4063V27.5698H74.7585V26.8994H74.679C74.6297 26.9789 74.5597 27.0793 74.4688 27.2005C74.3779 27.3198 74.2481 27.4268 74.0796 27.5215C73.911 27.6143 73.6866 27.6607 73.4063 27.6607ZM73.4972 27.0585C73.7661 27.0585 73.9934 26.9884 74.179 26.8482C74.3646 26.7062 74.5057 26.5102 74.6023 26.2602C74.6989 26.0083 74.7472 25.7176 74.7472 25.388C74.7472 25.0622 74.6998 24.7772 74.6051 24.5329C74.5104 24.2867 74.3703 24.0954 74.1847 23.959C73.9991 23.8208 73.7699 23.7516 73.4972 23.7516C73.2131 23.7516 72.9763 23.8246 72.7869 23.9704C72.5994 24.1143 72.4583 24.3104 72.3636 24.5585C72.2708 24.8047 72.2244 25.0812 72.2244 25.388C72.2244 25.6986 72.2718 25.9808 72.3665 26.2346C72.4631 26.4865 72.6051 26.6872 72.7926 26.8369C72.982 26.9846 73.2169 27.0585 73.4972 27.0585ZM78.5568 27.6607C78.1364 27.6607 77.7737 27.5679 77.4688 27.3823C77.1657 27.1948 76.9318 26.9335 76.7671 26.5982C76.6042 26.2611 76.5227 25.8691 76.5227 25.4221C76.5227 24.9751 76.6042 24.5812 76.7671 24.2403C76.9318 23.8975 77.161 23.6304 77.4546 23.4391C77.75 23.246 78.0947 23.1494 78.4886 23.1494C78.7159 23.1494 78.9404 23.1872 79.1619 23.263C79.3835 23.3388 79.5852 23.4619 79.7671 23.6323C79.9489 23.8009 80.0938 24.0244 80.2017 24.3028C80.3097 24.5812 80.3636 24.924 80.3636 25.3312V25.6153H77V25.0357H79.6818C79.6818 24.7895 79.6326 24.5698 79.5341 24.3766C79.4375 24.1835 79.2993 24.031 79.1193 23.9193C78.9413 23.8075 78.7311 23.7516 78.4886 23.7516C78.2216 23.7516 77.9905 23.8179 77.7955 23.9505C77.6023 24.0812 77.4536 24.2516 77.3494 24.4619C77.2453 24.6721 77.1932 24.8975 77.1932 25.138V25.5244C77.1932 25.8539 77.25 26.1333 77.3636 26.3624C77.4792 26.5897 77.6392 26.763 77.8438 26.8823C78.0483 26.9997 78.286 27.0585 78.5568 27.0585C78.733 27.0585 78.8921 27.0338 79.0341 26.9846C79.178 26.9335 79.3021 26.8577 79.4063 26.7573C79.5104 26.6551 79.5909 26.5282 79.6477 26.3766L80.2955 26.5585C80.2273 26.7782 80.1127 26.9713 79.9517 27.138C79.7907 27.3028 79.5919 27.4316 79.3551 27.5244C79.1184 27.6153 78.8523 27.6607 78.5568 27.6607ZM84.4744 24.1835L83.8722 24.3539C83.8343 24.2535 83.7784 24.156 83.7046 24.0613C83.6326 23.9647 83.5341 23.8852 83.4091 23.8227C83.2841 23.7602 83.1241 23.7289 82.929 23.7289C82.6619 23.7289 82.4394 23.7905 82.2614 23.9136C82.0852 24.0348 81.9972 24.1891 81.9972 24.3766C81.9972 24.5433 82.0578 24.6749 82.179 24.7715C82.3002 24.8681 82.4896 24.9486 82.7472 25.013L83.3949 25.1721C83.785 25.2668 84.0758 25.4117 84.2671 25.6068C84.4583 25.7999 84.554 26.049 84.554 26.3539C84.554 26.6039 84.482 26.8274 84.3381 27.0244C84.196 27.2213 83.9972 27.3766 83.7415 27.4903C83.4858 27.6039 83.1885 27.6607 82.8494 27.6607C82.4044 27.6607 82.036 27.5641 81.7443 27.371C81.4527 27.1778 81.268 26.8956 81.1904 26.5244L81.8267 26.3653C81.8873 26.6001 82.0019 26.7763 82.1705 26.8937C82.3409 27.0111 82.5635 27.0698 82.8381 27.0698C83.1506 27.0698 83.3987 27.0035 83.5824 26.871C83.768 26.7365 83.8608 26.5755 83.8608 26.388C83.8608 26.2365 83.8078 26.1096 83.7017 26.0073C83.5957 25.9032 83.4328 25.8255 83.2131 25.7744L82.4858 25.6039C82.0862 25.5092 81.7926 25.3624 81.6051 25.1636C81.4195 24.9628 81.3267 24.7119 81.3267 24.4107C81.3267 24.1645 81.3958 23.9467 81.5341 23.7573C81.6743 23.5679 81.8646 23.4193 82.1051 23.3113C82.3475 23.2033 82.6222 23.1494 82.929 23.1494C83.3608 23.1494 83.6998 23.2441 83.946 23.4335C84.1941 23.6229 84.3703 23.8729 84.4744 24.1835ZM87.3359 27.6607C86.9269 27.6607 86.5746 27.5641 86.2791 27.371C85.9837 27.1778 85.7564 26.9117 85.5973 26.5727C85.4382 26.2336 85.3587 25.8463 85.3587 25.4107C85.3587 24.9676 85.4401 24.5765 85.603 24.2374C85.7678 23.8965 85.9969 23.6304 86.2905 23.4391C86.5859 23.246 86.9306 23.1494 87.3246 23.1494C87.6314 23.1494 87.9079 23.2062 88.1541 23.3198C88.4003 23.4335 88.602 23.5926 88.7592 23.7971C88.9164 24.0016 89.014 24.2403 89.0519 24.513H88.3814C88.3303 24.3141 88.2166 24.138 88.0405 23.9846C87.8663 23.8293 87.6314 23.7516 87.3359 23.7516C87.0746 23.7516 86.8454 23.8198 86.6484 23.9562C86.4534 24.0907 86.3009 24.281 86.1911 24.5272C86.0831 24.7715 86.0291 25.0585 86.0291 25.388C86.0291 25.7251 86.0822 26.0187 86.1882 26.2687C86.2962 26.5187 86.4477 26.7128 86.6428 26.8511C86.8397 26.9893 87.0708 27.0585 87.3359 27.0585C87.5102 27.0585 87.6683 27.0282 87.8104 26.9676C87.9524 26.9069 88.0727 26.8198 88.1712 26.7062C88.2697 26.5926 88.3397 26.4562 88.3814 26.2971H89.0519C89.014 26.5547 88.9202 26.7867 88.7706 26.9931C88.6229 27.1977 88.4269 27.3605 88.1825 27.4818C87.9401 27.6011 87.6579 27.6607 87.3359 27.6607ZM91.3161 27.6721C91.0395 27.6721 90.7886 27.62 90.5632 27.5158C90.3378 27.4098 90.1589 27.2573 90.0263 27.0585C89.8937 26.8577 89.8274 26.6153 89.8274 26.3312C89.8274 26.0812 89.8767 25.8785 89.9752 25.7232C90.0736 25.566 90.2053 25.4429 90.37 25.3539C90.5348 25.2649 90.7166 25.1986 90.9155 25.1551C91.1163 25.1096 91.318 25.0736 91.5206 25.0471C91.7858 25.013 92.0007 24.9874 92.1655 24.9704C92.3322 24.9515 92.4534 24.9202 92.5291 24.8766C92.6068 24.8331 92.6456 24.7573 92.6456 24.6494V24.6266C92.6456 24.3463 92.5689 24.1285 92.4155 23.9732C92.264 23.8179 92.0339 23.7403 91.7252 23.7403C91.4051 23.7403 91.1541 23.8104 90.9723 23.9505C90.7905 24.0907 90.6627 24.2403 90.5888 24.3994L89.9524 24.1721C90.0661 23.9069 90.2176 23.7005 90.407 23.5528C90.5983 23.4032 90.8066 23.299 91.032 23.2403C91.2592 23.1797 91.4827 23.1494 91.7024 23.1494C91.8426 23.1494 92.0036 23.1664 92.1854 23.2005C92.3691 23.2327 92.5462 23.2999 92.7166 23.4022C92.889 23.5045 93.032 23.6588 93.1456 23.8653C93.2592 24.0717 93.3161 24.3482 93.3161 24.6948V27.5698H92.6456V26.9789H92.6115C92.5661 27.0736 92.4903 27.1749 92.3842 27.2829C92.2782 27.3908 92.1371 27.4827 91.9609 27.5585C91.7848 27.6342 91.5699 27.6721 91.3161 27.6721ZM91.4183 27.0698C91.6835 27.0698 91.907 27.0177 92.0888 26.9136C92.2725 26.8094 92.4108 26.6749 92.5036 26.5102C92.5983 26.3454 92.6456 26.1721 92.6456 25.9903V25.3766C92.6172 25.4107 92.5547 25.442 92.4581 25.4704C92.3634 25.4969 92.2536 25.5206 92.1286 25.5414C92.0055 25.5604 91.8852 25.5774 91.7678 25.5926C91.6522 25.6058 91.5585 25.6172 91.4865 25.6266C91.3123 25.6494 91.1494 25.6863 90.9979 25.7374C90.8483 25.7867 90.727 25.8615 90.6342 25.9619C90.5433 26.0604 90.4979 26.1948 90.4979 26.3653C90.4979 26.5982 90.5841 26.7744 90.7564 26.8937C90.9306 27.0111 91.1513 27.0698 91.4183 27.0698ZM94.5398 27.5698V23.2062H95.1875V23.8653H95.233C95.3125 23.6494 95.4565 23.4742 95.6648 23.3397C95.8731 23.2052 96.108 23.138 96.3693 23.138C96.4186 23.138 96.4801 23.139 96.554 23.1408C96.6279 23.1427 96.6837 23.1456 96.7216 23.1494V23.8312C96.6989 23.8255 96.6468 23.817 96.5654 23.8056C96.4858 23.7924 96.4015 23.7857 96.3125 23.7857C96.1004 23.7857 95.911 23.8302 95.7443 23.9193C95.5796 24.0064 95.4489 24.1276 95.3523 24.2829C95.2576 24.4363 95.2102 24.6115 95.2102 24.8085V27.5698H94.5398ZM99.6875 23.2062V23.7744H97.4261V23.2062H99.6875ZM98.0852 22.1607H98.7557V26.3198C98.7557 26.5092 98.7832 26.6513 98.8381 26.746C98.8949 26.8388 98.9669 26.9013 99.054 26.9335C99.143 26.9638 99.2368 26.9789 99.3352 26.9789C99.4091 26.9789 99.4697 26.9751 99.5171 26.9676C99.5644 26.9581 99.6023 26.9505 99.6307 26.9448L99.7671 27.5471C99.7216 27.5641 99.6582 27.5812 99.5767 27.5982C99.4953 27.6172 99.3921 27.6266 99.2671 27.6266C99.0777 27.6266 98.8921 27.5859 98.7102 27.5045C98.5303 27.423 98.3807 27.299 98.2614 27.1323C98.144 26.9657 98.0852 26.7554 98.0852 26.5016V22.1607ZM101.98 27.6721C101.704 27.6721 101.453 27.62 101.227 27.5158C101.002 27.4098 100.823 27.2573 100.69 27.0585C100.558 26.8577 100.491 26.6153 100.491 26.3312C100.491 26.0812 100.541 25.8785 100.639 25.7232C100.738 25.566 100.869 25.4429 101.034 25.3539C101.199 25.2649 101.381 25.1986 101.58 25.1551C101.78 25.1096 101.982 25.0736 102.185 25.0471C102.45 25.013 102.665 24.9874 102.83 24.9704C102.996 24.9515 103.117 24.9202 103.193 24.8766C103.271 24.8331 103.31 24.7573 103.31 24.6494V24.6266C103.31 24.3463 103.233 24.1285 103.08 23.9732C102.928 23.8179 102.698 23.7403 102.389 23.7403C102.069 23.7403 101.818 23.8104 101.636 23.9505C101.455 24.0907 101.327 24.2403 101.253 24.3994L100.616 24.1721C100.73 23.9069 100.882 23.7005 101.071 23.5528C101.262 23.4032 101.471 23.299 101.696 23.2403C101.923 23.1797 102.147 23.1494 102.366 23.1494C102.507 23.1494 102.668 23.1664 102.849 23.2005C103.033 23.2327 103.21 23.2999 103.381 23.4022C103.553 23.5045 103.696 23.6588 103.81 23.8653C103.923 24.0717 103.98 24.3482 103.98 24.6948V27.5698H103.31V26.9789H103.276C103.23 27.0736 103.154 27.1749 103.048 27.2829C102.942 27.3908 102.801 27.4827 102.625 27.5585C102.449 27.6342 102.234 27.6721 101.98 27.6721ZM102.082 27.0698C102.348 27.0698 102.571 27.0177 102.753 26.9136C102.937 26.8094 103.075 26.6749 103.168 26.5102C103.262 26.3454 103.31 26.1721 103.31 25.9903V25.3766C103.281 25.4107 103.219 25.442 103.122 25.4704C103.027 25.4969 102.918 25.5206 102.793 25.5414C102.67 25.5604 102.549 25.5774 102.432 25.5926C102.316 25.6058 102.223 25.6172 102.151 25.6266C101.976 25.6494 101.813 25.6863 101.662 25.7374C101.512 25.7867 101.391 25.8615 101.298 25.9619C101.207 26.0604 101.162 26.1948 101.162 26.3653C101.162 26.5982 101.248 26.7744 101.42 26.8937C101.595 27.0111 101.815 27.0698 102.082 27.0698ZM106.852 27.6607C106.488 27.6607 106.167 27.5689 105.889 27.3852C105.61 27.1996 105.392 26.9382 105.235 26.6011C105.078 26.2621 104.999 25.8615 104.999 25.3994C104.999 24.941 105.078 24.5433 105.235 24.2062C105.392 23.8691 105.611 23.6086 105.891 23.4249C106.172 23.2412 106.496 23.1494 106.863 23.1494C107.147 23.1494 107.371 23.1967 107.536 23.2914C107.703 23.3842 107.83 23.4903 107.917 23.6096C108.006 23.727 108.075 23.8236 108.124 23.8994H108.181V21.7516H108.852V27.5698H108.204V26.8994H108.124C108.075 26.9789 108.005 27.0793 107.914 27.2005C107.823 27.3198 107.693 27.4268 107.525 27.5215C107.356 27.6143 107.132 27.6607 106.852 27.6607ZM106.942 27.0585C107.211 27.0585 107.439 26.9884 107.624 26.8482C107.81 26.7062 107.951 26.5102 108.048 26.2602C108.144 26.0083 108.192 25.7176 108.192 25.388C108.192 25.0622 108.145 24.7772 108.05 24.5329C107.956 24.2867 107.816 24.0954 107.63 23.959C107.444 23.8208 107.215 23.7516 106.942 23.7516C106.658 23.7516 106.422 23.8246 106.232 23.9704C106.045 24.1143 105.904 24.3104 105.809 24.5585C105.716 24.8047 105.67 25.0812 105.67 25.388C105.67 25.6986 105.717 25.9808 105.812 26.2346C105.908 26.4865 106.05 26.6872 106.238 26.8369C106.427 26.9846 106.662 27.0585 106.942 27.0585ZM111.945 27.6607C111.551 27.6607 111.206 27.567 110.908 27.3795C110.613 27.192 110.382 26.9297 110.215 26.5926C110.05 26.2554 109.968 25.8615 109.968 25.4107C109.968 24.9562 110.05 24.5594 110.215 24.2204C110.382 23.8814 110.613 23.6181 110.908 23.4306C111.206 23.2431 111.551 23.1494 111.945 23.1494C112.339 23.1494 112.684 23.2431 112.979 23.4306C113.277 23.6181 113.508 23.8814 113.673 24.2204C113.839 24.5594 113.923 24.9562 113.923 25.4107C113.923 25.8615 113.839 26.2554 113.673 26.5926C113.508 26.9297 113.277 27.192 112.979 27.3795C112.684 27.567 112.339 27.6607 111.945 27.6607ZM111.945 27.0585C112.245 27.0585 112.491 26.9818 112.684 26.8283C112.877 26.6749 113.02 26.4732 113.113 26.2232C113.206 25.9732 113.252 25.7024 113.252 25.4107C113.252 25.1191 113.206 24.8473 113.113 24.5954C113.02 24.3435 112.877 24.1399 112.684 23.9846C112.491 23.8293 112.245 23.7516 111.945 23.7516C111.646 23.7516 111.4 23.8293 111.207 23.9846C111.014 24.1399 110.871 24.3435 110.778 24.5954C110.685 24.8473 110.639 25.1191 110.639 25.4107C110.639 25.7024 110.685 25.9732 110.778 26.2232C110.871 26.4732 111.014 26.6749 111.207 26.8283C111.4 26.9818 111.646 27.0585 111.945 27.0585ZM118.037 24.1835L117.435 24.3539C117.397 24.2535 117.341 24.156 117.267 24.0613C117.195 23.9647 117.097 23.8852 116.972 23.8227C116.847 23.7602 116.687 23.7289 116.491 23.7289C116.224 23.7289 116.002 23.7905 115.824 23.9136C115.648 24.0348 115.56 24.1891 115.56 24.3766C115.56 24.5433 115.62 24.6749 115.741 24.7715C115.863 24.8681 116.052 24.9486 116.31 25.013L116.957 25.1721C117.348 25.2668 117.638 25.4117 117.83 25.6068C118.021 25.7999 118.116 26.049 118.116 26.3539C118.116 26.6039 118.045 26.8274 117.901 27.0244C117.759 27.2213 117.56 27.3766 117.304 27.4903C117.048 27.6039 116.751 27.6607 116.412 27.6607C115.967 27.6607 115.598 27.5641 115.307 27.371C115.015 27.1778 114.831 26.8956 114.753 26.5244L115.389 26.3653C115.45 26.6001 115.564 26.7763 115.733 26.8937C115.903 27.0111 116.126 27.0698 116.401 27.0698C116.713 27.0698 116.961 27.0035 117.145 26.871C117.331 26.7365 117.423 26.5755 117.423 26.388C117.423 26.2365 117.37 26.1096 117.264 26.0073C117.158 25.9032 116.995 25.8255 116.776 25.7744L116.048 25.6039C115.649 25.5092 115.355 25.3624 115.168 25.1636C114.982 24.9628 114.889 24.7119 114.889 24.4107C114.889 24.1645 114.958 23.9467 115.097 23.7573C115.237 23.5679 115.427 23.4193 115.668 23.3113C115.91 23.2033 116.185 23.1494 116.491 23.1494C116.923 23.1494 117.262 23.2441 117.509 23.4335C117.757 23.6229 117.933 23.8729 118.037 24.1835ZM123.023 27.6607C122.66 27.6607 122.339 27.5689 122.06 27.3852C121.782 27.1996 121.564 26.9382 121.407 26.6011C121.25 26.2621 121.171 25.8615 121.171 25.3994C121.171 24.941 121.25 24.5433 121.407 24.2062C121.564 23.8691 121.783 23.6086 122.063 23.4249C122.344 23.2412 122.667 23.1494 123.035 23.1494C123.319 23.1494 123.543 23.1967 123.708 23.2914C123.875 23.3842 124.002 23.4903 124.089 23.6096C124.178 23.727 124.247 23.8236 124.296 23.8994H124.353V21.7516H125.023V27.5698H124.376V26.8994H124.296C124.247 26.9789 124.177 27.0793 124.086 27.2005C123.995 27.3198 123.865 27.4268 123.697 27.5215C123.528 27.6143 123.304 27.6607 123.023 27.6607ZM123.114 27.0585C123.383 27.0585 123.611 26.9884 123.796 26.8482C123.982 26.7062 124.123 26.5102 124.219 26.2602C124.316 26.0083 124.364 25.7176 124.364 25.388C124.364 25.0622 124.317 24.7772 124.222 24.5329C124.128 24.2867 123.987 24.0954 123.802 23.959C123.616 23.8208 123.387 23.7516 123.114 23.7516C122.83 23.7516 122.594 23.8246 122.404 23.9704C122.217 24.1143 122.076 24.3104 121.981 24.5585C121.888 24.8047 121.842 25.0812 121.842 25.388C121.842 25.6986 121.889 25.9808 121.984 26.2346C122.08 26.4865 122.222 26.6872 122.41 26.8369C122.599 26.9846 122.834 27.0585 123.114 27.0585ZM128.174 27.6607C127.754 27.6607 127.391 27.5679 127.086 27.3823C126.783 27.1948 126.549 26.9335 126.384 26.5982C126.221 26.2611 126.14 25.8691 126.14 25.4221C126.14 24.9751 126.221 24.5812 126.384 24.2403C126.549 23.8975 126.778 23.6304 127.072 23.4391C127.367 23.246 127.712 23.1494 128.106 23.1494C128.333 23.1494 128.558 23.1872 128.779 23.263C129.001 23.3388 129.202 23.4619 129.384 23.6323C129.566 23.8009 129.711 24.0244 129.819 24.3028C129.927 24.5812 129.981 24.924 129.981 25.3312V25.6153H126.617V25.0357H129.299C129.299 24.7895 129.25 24.5698 129.151 24.3766C129.055 24.1835 128.916 24.031 128.737 23.9193C128.558 23.8075 128.348 23.7516 128.106 23.7516C127.839 23.7516 127.608 23.8179 127.413 23.9505C127.219 24.0812 127.071 24.2516 126.967 24.4619C126.862 24.6721 126.81 24.8975 126.81 25.138V25.5244C126.81 25.8539 126.867 26.1333 126.981 26.3624C127.096 26.5897 127.256 26.763 127.461 26.8823C127.665 26.9997 127.903 27.0585 128.174 27.0585C128.35 27.0585 128.509 27.0338 128.651 26.9846C128.795 26.9335 128.919 26.8577 129.023 26.7573C129.128 26.6551 129.208 26.5282 129.265 26.3766L129.913 26.5585C129.844 26.7782 129.73 26.9713 129.569 27.138C129.408 27.3028 129.209 27.4316 128.972 27.5244C128.736 27.6153 128.469 27.6607 128.174 27.6607ZM30.9382 35.5698V31.2062H31.5859V31.888H31.6428C31.7337 31.6551 31.8805 31.4742 32.0831 31.3454C32.2858 31.2147 32.5291 31.1494 32.8132 31.1494C33.1011 31.1494 33.3407 31.2147 33.532 31.3454C33.7252 31.4742 33.8757 31.6551 33.9837 31.888H34.0291C34.1409 31.6626 34.3085 31.4836 34.532 31.3511C34.7555 31.2166 35.0234 31.1494 35.3359 31.1494C35.7261 31.1494 36.0452 31.2715 36.2933 31.5158C36.5414 31.7583 36.6655 32.1361 36.6655 32.6494V35.5698H35.995V32.6494C35.995 32.3274 35.907 32.0973 35.7308 31.959C35.5547 31.8208 35.3473 31.7516 35.1087 31.7516C34.8019 31.7516 34.5642 31.8444 34.3956 32.0301C34.227 32.2138 34.1428 32.4467 34.1428 32.7289V35.5698H33.4609V32.5812C33.4609 32.3331 33.3805 32.1333 33.2195 31.9818C33.0585 31.8283 32.8511 31.7516 32.5973 31.7516C32.4231 31.7516 32.2602 31.798 32.1087 31.8908C31.9591 31.9836 31.8378 32.1124 31.745 32.2772C31.6541 32.4401 31.6087 32.6285 31.6087 32.8426V35.5698H30.9382ZM39.1754 35.6721C38.8989 35.6721 38.648 35.62 38.4226 35.5158C38.1972 35.4098 38.0182 35.2573 37.8857 35.0585C37.7531 34.8577 37.6868 34.6153 37.6868 34.3312C37.6868 34.0812 37.736 33.8785 37.8345 33.7232C37.933 33.566 38.0646 33.4429 38.2294 33.3539C38.3942 33.2649 38.576 33.1986 38.7749 33.1551C38.9756 33.1096 39.1773 33.0736 39.38 33.0471C39.6451 33.013 39.8601 32.9874 40.0249 32.9704C40.1915 32.9515 40.3127 32.9202 40.3885 32.8766C40.4662 32.8331 40.505 32.7573 40.505 32.6494V32.6266C40.505 32.3463 40.4283 32.1285 40.2749 31.9732C40.1234 31.8179 39.8932 31.7403 39.5845 31.7403C39.2645 31.7403 39.0135 31.8104 38.8317 31.9505C38.6499 32.0907 38.522 32.2403 38.4482 32.3994L37.8118 32.1721C37.9254 31.9069 38.077 31.7005 38.2663 31.5528C38.4576 31.4032 38.666 31.299 38.8913 31.2403C39.1186 31.1797 39.3421 31.1494 39.5618 31.1494C39.702 31.1494 39.8629 31.1664 40.0448 31.2005C40.2285 31.2327 40.4056 31.2999 40.576 31.4022C40.7484 31.5045 40.8913 31.6588 41.005 31.8653C41.1186 32.0717 41.1754 32.3482 41.1754 32.6948V35.5698H40.505V34.9789H40.4709C40.4254 35.0736 40.3497 35.1749 40.2436 35.2829C40.1376 35.3908 39.9965 35.4827 39.8203 35.5585C39.6442 35.6342 39.4292 35.6721 39.1754 35.6721ZM39.2777 35.0698C39.5429 35.0698 39.7663 35.0177 39.9482 34.9136C40.1319 34.8094 40.2701 34.6749 40.3629 34.5102C40.4576 34.3454 40.505 34.1721 40.505 33.9903V33.3766C40.4766 33.4107 40.4141 33.442 40.3175 33.4704C40.2228 33.4969 40.1129 33.5206 39.9879 33.5414C39.8648 33.5604 39.7446 33.5774 39.6271 33.5926C39.5116 33.6058 39.4179 33.6172 39.3459 33.6266C39.1716 33.6494 39.0088 33.6863 38.8573 33.7374C38.7076 33.7867 38.5864 33.8615 38.4936 33.9619C38.4027 34.0604 38.3573 34.1948 38.3573 34.3653C38.3573 34.5982 38.4434 34.7744 38.6158 34.8937C38.79 35.0111 39.0107 35.0698 39.2777 35.0698ZM43.0696 32.9448V35.5698H42.3992V31.2062H43.0469V31.888H43.1037C43.206 31.6664 43.3613 31.4884 43.5696 31.3539C43.7779 31.2176 44.0469 31.1494 44.3764 31.1494C44.6719 31.1494 44.9304 31.21 45.152 31.3312C45.3736 31.4505 45.5459 31.6323 45.669 31.8766C45.7922 32.1191 45.8537 32.4259 45.8537 32.7971V35.5698H45.1832V32.8426C45.1832 32.4997 45.0942 32.2327 44.9162 32.0414C44.7382 31.8482 44.4939 31.7516 44.1832 31.7516C43.9692 31.7516 43.7779 31.798 43.6094 31.8908C43.4427 31.9836 43.3111 32.1191 43.2145 32.2971C43.1179 32.4751 43.0696 32.691 43.0696 32.9448ZM48.9084 35.6607C48.4879 35.6607 48.1252 35.5679 47.8203 35.3823C47.5173 35.1948 47.2834 34.9335 47.1186 34.5982C46.9557 34.2611 46.8743 33.8691 46.8743 33.4221C46.8743 32.9751 46.9557 32.5812 47.1186 32.2403C47.2834 31.8975 47.5126 31.6304 47.8061 31.4391C48.1016 31.246 48.4463 31.1494 48.8402 31.1494C49.0675 31.1494 49.2919 31.1872 49.5135 31.263C49.7351 31.3388 49.9368 31.4619 50.1186 31.6323C50.3004 31.8009 50.4453 32.0244 50.5533 32.3028C50.6612 32.5812 50.7152 32.924 50.7152 33.3312V33.6153H47.3516V33.0357H50.0334C50.0334 32.7895 49.9841 32.5698 49.8857 32.3766C49.7891 32.1835 49.6508 32.031 49.4709 31.9193C49.2929 31.8075 49.0826 31.7516 48.8402 31.7516C48.5732 31.7516 48.3421 31.8179 48.147 31.9505C47.9538 32.0812 47.8052 32.2516 47.701 32.4619C47.5968 32.6721 47.5448 32.8975 47.5448 33.138V33.5244C47.5448 33.8539 47.6016 34.1333 47.7152 34.3624C47.8307 34.5897 47.9908 34.763 48.1953 34.8823C48.3999 34.9997 48.6376 35.0585 48.9084 35.0585C49.0845 35.0585 49.2436 35.0338 49.3857 34.9846C49.5296 34.9335 49.6537 34.8577 49.7578 34.7573C49.862 34.6551 49.9425 34.5282 49.9993 34.3766L50.647 34.5585C50.5788 34.7782 50.4643 34.9713 50.3033 35.138C50.1423 35.3028 49.9434 35.4316 49.7067 35.5244C49.4699 35.6153 49.2038 35.6607 48.9084 35.6607ZM51.7351 35.5698V31.2062H52.4056V35.5698H51.7351ZM52.076 30.4789C51.9453 30.4789 51.8326 30.4344 51.7379 30.3454C51.6451 30.2564 51.5987 30.1494 51.5987 30.0244C51.5987 29.8994 51.6451 29.7924 51.7379 29.7033C51.8326 29.6143 51.9453 29.5698 52.076 29.5698C52.2067 29.5698 52.3184 29.6143 52.4112 29.7033C52.5059 29.7924 52.5533 29.8994 52.5533 30.0244C52.5533 30.1494 52.5059 30.2564 52.4112 30.3454C52.3184 30.4344 52.2067 30.4789 52.076 30.4789ZM53.6335 35.5698V31.2062H54.2813V31.8653H54.3267C54.4063 31.6494 54.5502 31.4742 54.7585 31.3397C54.9669 31.2052 55.2017 31.138 55.4631 31.138C55.5123 31.138 55.5739 31.139 55.6477 31.1408C55.7216 31.1427 55.7775 31.1456 55.8154 31.1494V31.8312C55.7926 31.8255 55.7405 31.817 55.6591 31.8056C55.5796 31.7924 55.4953 31.7857 55.4063 31.7857C55.1941 31.7857 55.0047 31.8302 54.8381 31.9193C54.6733 32.0064 54.5426 32.1276 54.446 32.2829C54.3513 32.4363 54.304 32.6115 54.304 32.8085V35.5698H53.6335ZM57.8942 35.6721C57.6177 35.6721 57.3667 35.62 57.1413 35.5158C56.916 35.4098 56.737 35.2573 56.6044 35.0585C56.4718 34.8577 56.4056 34.6153 56.4056 34.3312C56.4056 34.0812 56.4548 33.8785 56.5533 33.7232C56.6518 33.566 56.7834 33.4429 56.9482 33.3539C57.1129 33.2649 57.2948 33.1986 57.4936 33.1551C57.6944 33.1096 57.8961 33.0736 58.0987 33.0471C58.3639 33.013 58.5788 32.9874 58.7436 32.9704C58.9103 32.9515 59.0315 32.9202 59.1073 32.8766C59.1849 32.8331 59.2237 32.7573 59.2237 32.6494V32.6266C59.2237 32.3463 59.147 32.1285 58.9936 31.9732C58.8421 31.8179 58.612 31.7403 58.3033 31.7403C57.9832 31.7403 57.7323 31.8104 57.5504 31.9505C57.3686 32.0907 57.2408 32.2403 57.1669 32.3994L56.5306 32.1721C56.6442 31.9069 56.7957 31.7005 56.9851 31.5528C57.1764 31.4032 57.3847 31.299 57.6101 31.2403C57.8374 31.1797 58.0609 31.1494 58.2806 31.1494C58.4207 31.1494 58.5817 31.1664 58.7635 31.2005C58.9472 31.2327 59.1243 31.2999 59.2948 31.4022C59.4671 31.5045 59.6101 31.6588 59.7237 31.8653C59.8374 32.0717 59.8942 32.3482 59.8942 32.6948V35.5698H59.2237V34.9789H59.1896C59.1442 35.0736 59.0684 35.1749 58.9624 35.2829C58.8563 35.3908 58.7152 35.4827 58.5391 35.5585C58.3629 35.6342 58.148 35.6721 57.8942 35.6721ZM57.9965 35.0698C58.2616 35.0698 58.4851 35.0177 58.6669 34.9136C58.8506 34.8094 58.9889 34.6749 59.0817 34.5102C59.1764 34.3454 59.2237 34.1721 59.2237 33.9903V33.3766C59.1953 33.4107 59.1328 33.442 59.0362 33.4704C58.9415 33.4969 58.8317 33.5206 58.7067 33.5414C58.5836 33.5604 58.4633 33.5774 58.3459 33.5926C58.2304 33.6058 58.1366 33.6172 58.0646 33.6266C57.8904 33.6494 57.7275 33.6863 57.576 33.7374C57.4264 33.7867 57.3052 33.8615 57.2124 33.9619C57.1215 34.0604 57.076 34.1948 57.076 34.3653C57.076 34.5982 57.1622 34.7744 57.3345 34.8937C57.5088 35.0111 57.7294 35.0698 57.9965 35.0698ZM63.3679 35.5698V31.2062H64.0384V35.5698H63.3679ZM63.7088 30.4789C63.5781 30.4789 63.4654 30.4344 63.3707 30.3454C63.2779 30.2564 63.2315 30.1494 63.2315 30.0244C63.2315 29.8994 63.2779 29.7924 63.3707 29.7033C63.4654 29.6143 63.5781 29.5698 63.7088 29.5698C63.8395 29.5698 63.9512 29.6143 64.044 29.7033C64.1387 29.7924 64.1861 29.8994 64.1861 30.0244C64.1861 30.1494 64.1387 30.2564 64.044 30.3454C63.9512 30.4344 63.8395 30.4789 63.7088 30.4789ZM65.9368 32.9448V35.5698H65.2663V31.2062H65.9141V31.888H65.9709C66.0732 31.6664 66.2285 31.4884 66.4368 31.3539C66.6451 31.2176 66.9141 31.1494 67.2436 31.1494C67.5391 31.1494 67.7976 31.21 68.0192 31.3312C68.2408 31.4505 68.4131 31.6323 68.5362 31.8766C68.6593 32.1191 68.7209 32.4259 68.7209 32.7971V35.5698H68.0504V32.8426C68.0504 32.4997 67.9614 32.2327 67.7834 32.0414C67.6054 31.8482 67.361 31.7516 67.0504 31.7516C66.8364 31.7516 66.6451 31.798 66.4766 31.8908C66.3099 31.9836 66.1783 32.1191 66.0817 32.2971C65.9851 32.4751 65.9368 32.691 65.9368 32.9448ZM71.7188 35.6607C71.3097 35.6607 70.9574 35.5641 70.6619 35.371C70.3665 35.1778 70.1392 34.9117 69.9801 34.5727C69.821 34.2336 69.7415 33.8463 69.7415 33.4107C69.7415 32.9676 69.8229 32.5765 69.9858 32.2374C70.1506 31.8965 70.3797 31.6304 70.6733 31.4391C70.9688 31.246 71.3135 31.1494 71.7074 31.1494C72.0142 31.1494 72.2907 31.2062 72.5369 31.3198C72.7832 31.4335 72.9849 31.5926 73.1421 31.7971C73.2993 32.0016 73.3968 32.2403 73.4347 32.513H72.7642C72.7131 32.3141 72.5994 32.138 72.4233 31.9846C72.2491 31.8293 72.0142 31.7516 71.7188 31.7516C71.4574 31.7516 71.2282 31.8198 71.0313 31.9562C70.8362 32.0907 70.6837 32.281 70.5739 32.5272C70.4659 32.7715 70.4119 33.0585 70.4119 33.388C70.4119 33.7251 70.465 34.0187 70.571 34.2687C70.679 34.5187 70.8305 34.7128 71.0256 34.8511C71.2225 34.9893 71.4536 35.0585 71.7188 35.0585C71.893 35.0585 72.0511 35.0282 72.1932 34.9676C72.3352 34.9069 72.4555 34.8198 72.554 34.7062C72.6525 34.5926 72.7225 34.4562 72.7642 34.2971H73.4347C73.3968 34.5547 73.303 34.7867 73.1534 34.9931C73.0057 35.1977 72.8097 35.3605 72.5654 35.4818C72.3229 35.6011 72.0407 35.6607 71.7188 35.6607ZM76.1875 35.6607C75.7936 35.6607 75.4479 35.567 75.1506 35.3795C74.8551 35.192 74.6241 34.9297 74.4574 34.5926C74.2926 34.2554 74.2102 33.8615 74.2102 33.4107C74.2102 32.9562 74.2926 32.5594 74.4574 32.2204C74.6241 31.8814 74.8551 31.6181 75.1506 31.4306C75.4479 31.2431 75.7936 31.1494 76.1875 31.1494C76.5815 31.1494 76.9261 31.2431 77.2216 31.4306C77.519 31.6181 77.75 31.8814 77.9148 32.2204C78.0815 32.5594 78.1648 32.9562 78.1648 33.4107C78.1648 33.8615 78.0815 34.2554 77.9148 34.5926C77.75 34.9297 77.519 35.192 77.2216 35.3795C76.9261 35.567 76.5815 35.6607 76.1875 35.6607ZM76.1875 35.0585C76.4868 35.0585 76.733 34.9818 76.9261 34.8283C77.1193 34.6749 77.2623 34.4732 77.3551 34.2232C77.4479 33.9732 77.4943 33.7024 77.4943 33.4107C77.4943 33.1191 77.4479 32.8473 77.3551 32.5954C77.2623 32.3435 77.1193 32.1399 76.9261 31.9846C76.733 31.8293 76.4868 31.7516 76.1875 31.7516C75.8883 31.7516 75.6421 31.8293 75.4489 31.9846C75.2557 32.1399 75.1127 32.3435 75.0199 32.5954C74.9271 32.8473 74.8807 33.1191 74.8807 33.4107C74.8807 33.7024 74.9271 33.9732 75.0199 34.2232C75.1127 34.4732 75.2557 34.6749 75.4489 34.8283C75.6421 34.9818 75.8883 35.0585 76.1875 35.0585ZM79.1882 35.5698V31.2062H79.8359V31.8653H79.8814C79.9609 31.6494 80.1049 31.4742 80.3132 31.3397C80.5216 31.2052 80.7564 31.138 81.0178 31.138C81.067 31.138 81.1286 31.139 81.2024 31.1408C81.2763 31.1427 81.3322 31.1456 81.37 31.1494V31.8312C81.3473 31.8255 81.2952 31.817 81.2138 31.8056C81.1342 31.7924 81.05 31.7857 80.9609 31.7857C80.7488 31.7857 80.5594 31.8302 80.3928 31.9193C80.228 32.0064 80.0973 32.1276 80.0007 32.2829C79.906 32.4363 79.8587 32.6115 79.8587 32.8085V35.5698H79.1882ZM82.1648 35.5698V31.2062H82.8125V31.8653H82.858C82.9375 31.6494 83.0815 31.4742 83.2898 31.3397C83.4981 31.2052 83.733 31.138 83.9943 31.138C84.0436 31.138 84.1051 31.139 84.179 31.1408C84.2529 31.1427 84.3087 31.1456 84.3466 31.1494V31.8312C84.3239 31.8255 84.2718 31.817 84.1904 31.8056C84.1108 31.7924 84.0265 31.7857 83.9375 31.7857C83.7254 31.7857 83.536 31.8302 83.3693 31.9193C83.2046 32.0064 83.0739 32.1276 82.9773 32.2829C82.8826 32.4363 82.8352 32.6115 82.8352 32.8085V35.5698H82.1648ZM86.8381 35.6607C86.4176 35.6607 86.0549 35.5679 85.75 35.3823C85.447 35.1948 85.2131 34.9335 85.0483 34.5982C84.8854 34.2611 84.804 33.8691 84.804 33.4221C84.804 32.9751 84.8854 32.5812 85.0483 32.2403C85.2131 31.8975 85.4422 31.6304 85.7358 31.4391C86.0313 31.246 86.376 31.1494 86.7699 31.1494C86.9972 31.1494 87.2216 31.1872 87.4432 31.263C87.6648 31.3388 87.8665 31.4619 88.0483 31.6323C88.2301 31.8009 88.375 32.0244 88.483 32.3028C88.5909 32.5812 88.6449 32.924 88.6449 33.3312V33.6153H85.2813V33.0357H87.9631C87.9631 32.7895 87.9138 32.5698 87.8154 32.3766C87.7188 32.1835 87.5805 32.031 87.4006 31.9193C87.2225 31.8075 87.0123 31.7516 86.7699 31.7516C86.5029 31.7516 86.2718 31.8179 86.0767 31.9505C85.8835 32.0812 85.7349 32.2516 85.6307 32.4619C85.5265 32.6721 85.4744 32.8975 85.4744 33.138V33.5244C85.4744 33.8539 85.5313 34.1333 85.6449 34.3624C85.7604 34.5897 85.9205 34.763 86.125 34.8823C86.3296 34.9997 86.5672 35.0585 86.8381 35.0585C87.0142 35.0585 87.1733 35.0338 87.3154 34.9846C87.4593 34.9335 87.5833 34.8577 87.6875 34.7573C87.7917 34.6551 87.8722 34.5282 87.929 34.3766L88.5767 34.5585C88.5085 34.7782 88.394 34.9713 88.233 35.138C88.072 35.3028 87.8731 35.4316 87.6364 35.5244C87.3996 35.6153 87.1335 35.6607 86.8381 35.6607ZM91.5625 31.2062V31.7744H89.3011V31.2062H91.5625ZM89.9602 30.1607H90.6307V34.3198C90.6307 34.5092 90.6582 34.6513 90.7131 34.746C90.7699 34.8388 90.8419 34.9013 90.929 34.9335C91.018 34.9638 91.1118 34.9789 91.2102 34.9789C91.2841 34.9789 91.3447 34.9751 91.3921 34.9676C91.4394 34.9581 91.4773 34.9505 91.5057 34.9448L91.6421 35.5471C91.5966 35.5641 91.5332 35.5812 91.4517 35.5982C91.3703 35.6172 91.2671 35.6266 91.1421 35.6266C90.9527 35.6266 90.7671 35.5859 90.5852 35.5045C90.4053 35.423 90.2557 35.299 90.1364 35.1323C90.019 34.9657 89.9602 34.7554 89.9602 34.5016V30.1607ZM93.8551 35.6721C93.5786 35.6721 93.3277 35.62 93.1023 35.5158C92.8769 35.4098 92.6979 35.2573 92.5654 35.0585C92.4328 34.8577 92.3665 34.6153 92.3665 34.3312C92.3665 34.0812 92.4157 33.8785 92.5142 33.7232C92.6127 33.566 92.7443 33.4429 92.9091 33.3539C93.0739 33.2649 93.2557 33.1986 93.4546 33.1551C93.6553 33.1096 93.857 33.0736 94.0597 33.0471C94.3248 33.013 94.5398 32.9874 94.7046 32.9704C94.8712 32.9515 94.9924 32.9202 95.0682 32.8766C95.1458 32.8331 95.1847 32.7573 95.1847 32.6494V32.6266C95.1847 32.3463 95.108 32.1285 94.9546 31.9732C94.803 31.8179 94.5729 31.7403 94.2642 31.7403C93.9441 31.7403 93.6932 31.8104 93.5114 31.9505C93.3296 32.0907 93.2017 32.2403 93.1279 32.3994L92.4915 32.1721C92.6051 31.9069 92.7566 31.7005 92.946 31.5528C93.1373 31.4032 93.3457 31.299 93.571 31.2403C93.7983 31.1797 94.0218 31.1494 94.2415 31.1494C94.3816 31.1494 94.5426 31.1664 94.7244 31.2005C94.9082 31.2327 95.0852 31.2999 95.2557 31.4022C95.428 31.5045 95.571 31.6588 95.6847 31.8653C95.7983 32.0717 95.8551 32.3482 95.8551 32.6948V35.5698H95.1847V34.9789H95.1506C95.1051 35.0736 95.0294 35.1749 94.9233 35.2829C94.8172 35.3908 94.6761 35.4827 94.5 35.5585C94.3239 35.6342 94.1089 35.6721 93.8551 35.6721ZM93.9574 35.0698C94.2225 35.0698 94.446 35.0177 94.6279 34.9136C94.8116 34.8094 94.9498 34.6749 95.0426 34.5102C95.1373 34.3454 95.1847 34.1721 95.1847 33.9903V33.3766C95.1563 33.4107 95.0938 33.442 94.9972 33.4704C94.9025 33.4969 94.7926 33.5206 94.6676 33.5414C94.5445 33.5604 94.4243 33.5774 94.3068 33.5926C94.1913 33.6058 94.0975 33.6172 94.0256 33.6266C93.8513 33.6494 93.6885 33.6863 93.5369 33.7374C93.3873 33.7867 93.2661 33.8615 93.1733 33.9619C93.0824 34.0604 93.0369 34.1948 93.0369 34.3653C93.0369 34.5982 93.1231 34.7744 93.2955 34.8937C93.4697 35.0111 93.6904 35.0698 93.9574 35.0698ZM99.3288 37.2062V31.2062H99.9766V31.8994H100.056C100.105 31.8236 100.174 31.727 100.261 31.6096C100.35 31.4903 100.477 31.3842 100.641 31.2914C100.808 31.1967 101.033 31.1494 101.317 31.1494C101.685 31.1494 102.009 31.2412 102.289 31.4249C102.569 31.6086 102.788 31.8691 102.945 32.2062C103.103 32.5433 103.181 32.941 103.181 33.3994C103.181 33.8615 103.103 34.2621 102.945 34.6011C102.788 34.9382 102.57 35.1996 102.292 35.3852C102.014 35.5689 101.692 35.6607 101.329 35.6607C101.049 35.6607 100.824 35.6143 100.656 35.5215C100.487 35.4268 100.357 35.3198 100.266 35.2005C100.175 35.0793 100.105 34.9789 100.056 34.8994H99.9993V37.2062H99.3288ZM99.9879 33.388C99.9879 33.7176 100.036 34.0083 100.133 34.2602C100.229 34.5102 100.371 34.7062 100.556 34.8482C100.742 34.9884 100.969 35.0585 101.238 35.0585C101.518 35.0585 101.752 34.9846 101.94 34.8369C102.129 34.6872 102.271 34.4865 102.366 34.2346C102.462 33.9808 102.511 33.6986 102.511 33.388C102.511 33.0812 102.463 32.8047 102.369 32.5585C102.276 32.3104 102.135 32.1143 101.945 31.9704C101.758 31.8246 101.522 31.7516 101.238 31.7516C100.965 31.7516 100.736 31.8208 100.55 31.959C100.365 32.0954 100.225 32.2867 100.13 32.5329C100.035 32.7772 99.9879 33.0622 99.9879 33.388ZM105.977 35.6607C105.583 35.6607 105.237 35.567 104.94 35.3795C104.644 35.192 104.413 34.9297 104.246 34.5926C104.082 34.2554 103.999 33.8615 103.999 33.4107C103.999 32.9562 104.082 32.5594 104.246 32.2204C104.413 31.8814 104.644 31.6181 104.94 31.4306C105.237 31.2431 105.583 31.1494 105.977 31.1494C106.371 31.1494 106.715 31.2431 107.011 31.4306C107.308 31.6181 107.539 31.8814 107.704 32.2204C107.871 32.5594 107.954 32.9562 107.954 33.4107C107.954 33.8615 107.871 34.2554 107.704 34.5926C107.539 34.9297 107.308 35.192 107.011 35.3795C106.715 35.567 106.371 35.6607 105.977 35.6607ZM105.977 35.0585C106.276 35.0585 106.522 34.9818 106.715 34.8283C106.908 34.6749 107.051 34.4732 107.144 34.2232C107.237 33.9732 107.283 33.7024 107.283 33.4107C107.283 33.1191 107.237 32.8473 107.144 32.5954C107.051 32.3435 106.908 32.1399 106.715 31.9846C106.522 31.8293 106.276 31.7516 105.977 31.7516C105.677 31.7516 105.431 31.8293 105.238 31.9846C105.045 32.1399 104.902 32.3435 104.809 32.5954C104.716 32.8473 104.67 33.1191 104.67 33.4107C104.67 33.7024 104.716 33.9732 104.809 34.2232C104.902 34.4732 105.045 34.6749 105.238 34.8283C105.431 34.9818 105.677 35.0585 105.977 35.0585ZM108.977 35.5698V31.2062H109.625V31.8653H109.67C109.75 31.6494 109.894 31.4742 110.102 31.3397C110.311 31.2052 110.545 31.138 110.807 31.138C110.856 31.138 110.918 31.139 110.991 31.1408C111.065 31.1427 111.121 31.1456 111.159 31.1494V31.8312C111.136 31.8255 111.084 31.817 111.003 31.8056C110.923 31.7924 110.839 31.7857 110.75 31.7857C110.538 31.7857 110.348 31.8302 110.182 31.9193C110.017 32.0064 109.886 32.1276 109.79 32.2829C109.695 32.4363 109.648 32.6115 109.648 32.8085V35.5698H108.977ZM115.488 35.6721C115.211 35.6721 114.96 35.62 114.735 35.5158C114.51 35.4098 114.331 35.2573 114.198 35.0585C114.066 34.8577 113.999 34.6153 113.999 34.3312C113.999 34.0812 114.049 33.8785 114.147 33.7232C114.246 33.566 114.377 33.4429 114.542 33.3539C114.707 33.2649 114.889 33.1986 115.087 33.1551C115.288 33.1096 115.49 33.0736 115.692 33.0471C115.958 33.013 116.173 32.9874 116.337 32.9704C116.504 32.9515 116.625 32.9202 116.701 32.8766C116.779 32.8331 116.817 32.7573 116.817 32.6494V32.6266C116.817 32.3463 116.741 32.1285 116.587 31.9732C116.436 31.8179 116.206 31.7403 115.897 31.7403C115.577 31.7403 115.326 31.8104 115.144 31.9505C114.962 32.0907 114.835 32.2403 114.761 32.3994L114.124 32.1721C114.238 31.9069 114.389 31.7005 114.579 31.5528C114.77 31.4032 114.978 31.299 115.204 31.2403C115.431 31.1797 115.655 31.1494 115.874 31.1494C116.014 31.1494 116.175 31.1664 116.357 31.2005C116.541 31.2327 116.718 31.2999 116.889 31.4022C117.061 31.5045 117.204 31.6588 117.317 31.8653C117.431 32.0717 117.488 32.3482 117.488 32.6948V35.5698H116.817V34.9789H116.783C116.738 35.0736 116.662 35.1749 116.556 35.2829C116.45 35.3908 116.309 35.4827 116.133 35.5585C115.957 35.6342 115.742 35.6721 115.488 35.6721ZM115.59 35.0698C115.855 35.0698 116.079 35.0177 116.261 34.9136C116.444 34.8094 116.583 34.6749 116.675 34.5102C116.77 34.3454 116.817 34.1721 116.817 33.9903V33.3766C116.789 33.4107 116.727 33.442 116.63 33.4704C116.535 33.4969 116.425 33.5206 116.3 33.5414C116.177 33.5604 116.057 33.5774 115.94 33.5926C115.824 33.6058 115.73 33.6172 115.658 33.6266C115.484 33.6494 115.321 33.6863 115.17 33.7374C115.02 33.7867 114.899 33.8615 114.806 33.9619C114.715 34.0604 114.67 34.1948 114.67 34.3653C114.67 34.5982 114.756 34.7744 114.928 34.8937C115.103 35.0111 115.323 35.0698 115.59 35.0698ZM119.382 32.9448V35.5698H118.712V31.2062H119.359V31.888H119.416C119.518 31.6664 119.674 31.4884 119.882 31.3539C120.09 31.2176 120.359 31.1494 120.689 31.1494C120.984 31.1494 121.243 31.21 121.464 31.3312C121.686 31.4505 121.858 31.6323 121.982 31.8766C122.105 32.1191 122.166 32.4259 122.166 32.7971V35.5698H121.496V32.8426C121.496 32.4997 121.407 32.2327 121.229 32.0414C121.051 31.8482 120.806 31.7516 120.496 31.7516C120.282 31.7516 120.09 31.798 119.922 31.8908C119.755 31.9836 119.624 32.1191 119.527 32.2971C119.43 32.4751 119.382 32.691 119.382 32.9448ZM125.164 35.6607C124.77 35.6607 124.424 35.567 124.127 35.3795C123.832 35.192 123.601 34.9297 123.434 34.5926C123.269 34.2554 123.187 33.8615 123.187 33.4107C123.187 32.9562 123.269 32.5594 123.434 32.2204C123.601 31.8814 123.832 31.6181 124.127 31.4306C124.424 31.2431 124.77 31.1494 125.164 31.1494C125.558 31.1494 125.903 31.2431 126.198 31.4306C126.496 31.6181 126.727 31.8814 126.891 32.2204C127.058 32.5594 127.141 32.9562 127.141 33.4107C127.141 33.8615 127.058 34.2554 126.891 34.5926C126.727 34.9297 126.496 35.192 126.198 35.3795C125.903 35.567 125.558 35.6607 125.164 35.6607ZM125.164 35.0585C125.463 35.0585 125.71 34.9818 125.903 34.8283C126.096 34.6749 126.239 34.4732 126.332 34.2232C126.424 33.9732 126.471 33.7024 126.471 33.4107C126.471 33.1191 126.424 32.8473 126.332 32.5954C126.239 32.3435 126.096 32.1399 125.903 31.9846C125.71 31.8293 125.463 31.7516 125.164 31.7516C124.865 31.7516 124.619 31.8293 124.425 31.9846C124.232 32.1399 124.089 32.3435 123.996 32.5954C123.904 32.8473 123.857 33.1191 123.857 33.4107C123.857 33.7024 123.904 33.9732 123.996 34.2232C124.089 34.4732 124.232 34.6749 124.425 34.8283C124.619 34.9818 124.865 35.0585 125.164 35.0585Z" fill="#717171"/>
</svg>
