<svg width="153" height="44" viewBox="0 0 153 44" fill="none" xmlns="http://www.w3.org/2000/svg">
<path d="M7.88 9.73853C8.50266 9.73853 9.00571 10.2416 9.00571 10.8642V14.2414H13.5086V10.8642C13.5086 10.2416 14.0116 9.73853 14.6343 9.73853C15.2569 9.73853 15.76 10.2416 15.76 10.8642V14.2414H18.0114C18.6341 14.2414 19.1371 14.7444 19.1371 15.3671C19.1371 15.9898 18.6341 16.4928 18.0114 16.4928V18.7442C18.0114 22.0897 15.5771 24.8688 12.3829 25.4036V27.75C12.3829 28.3726 11.8798 28.8757 11.2571 28.8757C10.6345 28.8757 10.1314 28.3726 10.1314 27.75V25.4036C6.93721 24.8688 4.50285 22.0897 4.50285 18.7442V16.4928C3.88019 16.4928 3.37714 15.9898 3.37714 15.3671C3.37714 14.7444 3.88019 14.2414 4.50285 14.2414H6.75428V10.8642C6.75428 10.2416 7.25734 9.73853 7.88 9.73853Z" fill="#4CAF4F"/>
<path d="M33.9536 17.7718C33.3172 17.7718 32.7504 17.6624 32.2533 17.4437C31.759 17.2221 31.3683 16.9181 31.0814 16.5317C30.7973 16.1425 30.651 15.6937 30.6425 15.1851H32.5004C32.5118 15.3982 32.5814 15.5857 32.7092 15.7476C32.8399 15.9067 33.0132 16.0303 33.2291 16.1184C33.445 16.2064 33.6879 16.2505 33.9578 16.2505C34.2391 16.2505 34.4877 16.2008 34.7036 16.1013C34.9195 16.0019 35.0885 15.8641 35.2107 15.688C35.3328 15.5118 35.3939 15.3087 35.3939 15.0786C35.3939 14.8456 35.3286 14.6397 35.1979 14.4607C35.07 14.2789 34.8854 14.1368 34.6439 14.0346C34.4053 13.9323 34.1212 13.8812 33.7916 13.8812H32.9777V12.526H33.7916C34.07 12.526 34.3158 12.4777 34.5288 12.3812C34.7448 12.2846 34.9124 12.151 35.0317 11.9806C35.151 11.8073 35.2107 11.6056 35.2107 11.3755C35.2107 11.1567 35.1581 10.965 35.053 10.8002C34.9507 10.6326 34.8058 10.5019 34.6183 10.4081C34.4337 10.3144 34.2178 10.2675 33.9706 10.2675C33.7206 10.2675 33.4919 10.313 33.2845 10.4039C33.0771 10.492 32.9109 10.6184 32.7859 10.7831C32.6609 10.9479 32.5942 11.1411 32.5857 11.3627H30.8172C30.8257 10.8599 30.9692 10.4167 31.2476 10.0331C31.526 9.64962 31.901 9.34991 32.3726 9.134C32.847 8.91525 33.3825 8.80587 33.9791 8.80587C34.5814 8.80587 35.1084 8.91525 35.5601 9.134C36.0118 9.35275 36.3627 9.6482 36.6127 10.0204C36.8655 10.3897 36.9905 10.8045 36.9877 11.2647C36.9905 11.7533 36.8385 12.161 36.5317 12.4877C36.2277 12.8144 35.8314 13.0218 35.3428 13.1099V13.178C35.9848 13.2604 36.4734 13.4834 36.8087 13.8471C37.1467 14.2079 37.3144 14.6596 37.3115 15.2022C37.3144 15.6993 37.1709 16.1411 36.8811 16.5275C36.5942 16.9138 36.1979 17.2178 35.6922 17.4394C35.1865 17.661 34.607 17.7718 33.9536 17.7718ZM41.8254 17.7718C41.2231 17.7718 40.6862 17.661 40.2146 17.4394C39.7458 17.2178 39.3737 16.9124 39.0981 16.5232C38.8225 16.134 38.6791 15.688 38.6677 15.1851H40.4575C40.4774 15.5232 40.6194 15.7974 40.8836 16.0076C41.1478 16.2178 41.4617 16.3229 41.8254 16.3229C42.1151 16.3229 42.3708 16.259 42.5924 16.1312C42.8168 16.0005 42.9916 15.8201 43.1166 15.59C43.2444 15.357 43.3083 15.09 43.3083 14.7888C43.3083 14.482 43.243 14.2121 43.1123 13.9792C42.9845 13.7462 42.8069 13.5644 42.5796 13.4337C42.3524 13.303 42.0924 13.2363 41.7998 13.2334C41.5441 13.2334 41.2955 13.286 41.0541 13.3911C40.8154 13.4962 40.6293 13.6397 40.4958 13.8215L38.8552 13.5275L39.2685 8.92519H44.6038V10.4337H40.7899L40.564 12.6198H40.6151C40.7685 12.4039 41.0001 12.2249 41.3097 12.0829C41.6194 11.9408 41.966 11.8698 42.3495 11.8698C42.8751 11.8698 43.3438 11.9934 43.7558 12.2405C44.1677 12.4877 44.493 12.8272 44.7316 13.259C44.9703 13.688 45.0882 14.1823 45.0853 14.742C45.0882 15.33 44.9518 15.8527 44.6762 16.3101C44.4035 16.7647 44.0214 17.1226 43.5299 17.384C43.0413 17.6425 42.4731 17.7718 41.8254 17.7718ZM47.1691 17.7633C46.8879 17.7633 46.6464 17.6638 46.4447 17.465C46.2458 17.2633 46.1464 17.0218 46.1464 16.7405C46.1464 16.4621 46.2458 16.2235 46.4447 16.0246C46.6464 15.8258 46.8879 15.7263 47.1691 15.7263C47.4418 15.7263 47.6805 15.8258 47.885 16.0246C48.0896 16.2235 48.1918 16.4621 48.1918 16.7405C48.1918 16.928 48.1435 17.0999 48.047 17.2562C47.9532 17.4096 47.8296 17.5331 47.6762 17.6269C47.5228 17.7178 47.3538 17.7633 47.1691 17.7633ZM52.7355 17.8442C52.0026 17.8414 51.3719 17.661 50.8435 17.303C50.3179 16.9451 49.9131 16.4266 49.629 15.7476C49.3477 15.0687 49.2085 14.2519 49.2114 13.2974C49.2114 12.3456 49.352 11.5346 49.6333 10.8641C49.9173 10.1937 50.3222 9.68372 50.8477 9.33428C51.3761 8.98201 52.0054 8.80587 52.7355 8.80587C53.4656 8.80587 54.0935 8.98201 54.619 9.33428C55.1475 9.68656 55.5537 10.1979 55.8378 10.8684C56.1219 11.536 56.2625 12.3456 56.2597 13.2974C56.2597 14.2547 56.1176 15.0729 55.8335 15.7519C55.5523 16.4309 55.1489 16.9493 54.6233 17.3073C54.0977 17.6652 53.4685 17.8442 52.7355 17.8442ZM52.7355 16.3144C53.2355 16.3144 53.6347 16.063 53.933 15.5601C54.2313 15.0573 54.379 14.303 54.3761 13.2974C54.3761 12.6354 54.308 12.0843 54.1716 11.6439C54.0381 11.2036 53.8477 10.8726 53.6006 10.651C53.3563 10.4295 53.0679 10.3187 52.7355 10.3187C52.2384 10.3187 51.8406 10.5672 51.5423 11.0644C51.244 11.5616 51.0935 12.3059 51.0906 13.2974C51.0906 13.9678 51.1574 14.5275 51.2909 14.9763C51.4273 15.4224 51.619 15.7576 51.8662 15.982C52.1134 16.2036 52.4031 16.3144 52.7355 16.3144ZM60.9972 17.8442C60.2643 17.8414 59.6336 17.661 59.1052 17.303C58.5796 16.9451 58.1748 16.4266 57.8907 15.7476C57.6095 15.0687 57.4703 14.2519 57.4731 13.2974C57.4731 12.3456 57.6137 11.5346 57.895 10.8641C58.1791 10.1937 58.5839 9.68372 59.1095 9.33428C59.6379 8.98201 60.2671 8.80587 60.9972 8.80587C61.7274 8.80587 62.3552 8.98201 62.8808 9.33428C63.4092 9.68656 63.8154 10.1979 64.0995 10.8684C64.3836 11.536 64.5242 12.3456 64.5214 13.2974C64.5214 14.2547 64.3793 15.0729 64.0953 15.7519C63.814 16.4309 63.4106 16.9493 62.885 17.3073C62.3595 17.6652 61.7302 17.8442 60.9972 17.8442ZM60.9972 16.3144C61.4972 16.3144 61.8964 16.063 62.1947 15.5601C62.493 15.0573 62.6407 14.303 62.6379 13.2974C62.6379 12.6354 62.5697 12.0843 62.4333 11.6439C62.2998 11.2036 62.1095 10.8726 61.8623 10.651C61.618 10.4295 61.3296 10.3187 60.9972 10.3187C60.5001 10.3187 60.1024 10.5672 59.8041 11.0644C59.5058 11.5616 59.3552 12.3059 59.3524 13.2974C59.3524 13.9678 59.4191 14.5275 59.5526 14.9763C59.689 15.4224 59.8808 15.7576 60.1279 15.982C60.3751 16.2036 60.6649 16.3144 60.9972 16.3144ZM69.259 17.8442C68.526 17.8414 67.8953 17.661 67.3669 17.303C66.8413 16.9451 66.4365 16.4266 66.1524 15.7476C65.8712 15.0687 65.732 14.2519 65.7348 13.2974C65.7348 12.3456 65.8754 11.5346 66.1567 10.8641C66.4408 10.1937 66.8456 9.68372 67.3712 9.33428C67.8996 8.98201 68.5288 8.80587 69.259 8.80587C69.9891 8.80587 70.6169 8.98201 71.1425 9.33428C71.6709 9.68656 72.0771 10.1979 72.3612 10.8684C72.6453 11.536 72.786 12.3456 72.7831 13.2974C72.7831 14.2547 72.6411 15.0729 72.357 15.7519C72.0757 16.4309 71.6723 16.9493 71.1467 17.3073C70.6212 17.6652 69.9919 17.8442 69.259 17.8442ZM69.259 16.3144C69.759 16.3144 70.1581 16.063 70.4564 15.5601C70.7547 15.0573 70.9024 14.303 70.8996 13.2974C70.8996 12.6354 70.8314 12.0843 70.695 11.6439C70.5615 11.2036 70.3712 10.8726 70.124 10.651C69.8797 10.4295 69.5913 10.3187 69.259 10.3187C68.7618 10.3187 68.3641 10.5672 68.0658 11.0644C67.7675 11.5616 67.6169 12.3059 67.6141 13.2974C67.6141 13.9678 67.6808 14.5275 67.8144 14.9763C67.9507 15.4224 68.1425 15.7576 68.3896 15.982C68.6368 16.2036 68.9266 16.3144 69.259 16.3144ZM74.8254 17.7633C74.5441 17.7633 74.3026 17.6638 74.1009 17.465C73.9021 17.2633 73.8026 17.0218 73.8026 16.7405C73.8026 16.4621 73.9021 16.2235 74.1009 16.0246C74.3026 15.8258 74.5441 15.7263 74.8254 15.7263C75.0981 15.7263 75.3367 15.8258 75.5413 16.0246C75.7458 16.2235 75.8481 16.4621 75.8481 16.7405C75.8481 16.928 75.7998 17.0999 75.7032 17.2562C75.6095 17.4096 75.4859 17.5331 75.3325 17.6269C75.1791 17.7178 75.01 17.7633 74.8254 17.7633ZM80.3918 17.8442C79.6588 17.8414 79.0281 17.661 78.4997 17.303C77.9742 16.9451 77.5693 16.4266 77.2852 15.7476C77.004 15.0687 76.8648 14.2519 76.8676 13.2974C76.8676 12.3456 77.0083 11.5346 77.2895 10.8641C77.5736 10.1937 77.9784 9.68372 78.504 9.33428C79.0324 8.98201 79.6617 8.80587 80.3918 8.80587C81.1219 8.80587 81.7497 8.98201 82.2753 9.33428C82.8037 9.68656 83.21 10.1979 83.494 10.8684C83.7781 11.536 83.9188 12.3456 83.9159 13.2974C83.9159 14.2547 83.7739 15.0729 83.4898 15.7519C83.2085 16.4309 82.8051 16.9493 82.2796 17.3073C81.754 17.6652 81.1247 17.8442 80.3918 17.8442ZM80.3918 16.3144C80.8918 16.3144 81.2909 16.063 81.5892 15.5601C81.8875 15.0573 82.0352 14.303 82.0324 13.2974C82.0324 12.6354 81.9642 12.0843 81.8279 11.6439C81.6943 11.2036 81.504 10.8726 81.2568 10.651C81.0125 10.4295 80.7242 10.3187 80.3918 10.3187C79.8946 10.3187 79.4969 10.5672 79.1986 11.0644C78.9003 11.5616 78.7497 12.3059 78.7469 13.2974C78.7469 13.9678 78.8136 14.5275 78.9472 14.9763C79.0835 15.4224 79.2753 15.7576 79.5225 15.982C79.7696 16.2036 80.0594 16.3144 80.3918 16.3144ZM88.6535 17.8442C87.9205 17.8414 87.2899 17.661 86.7614 17.303C86.2359 16.9451 85.831 16.4266 85.547 15.7476C85.2657 15.0687 85.1265 14.2519 85.1293 13.2974C85.1293 12.3456 85.27 11.5346 85.5512 10.8641C85.8353 10.1937 86.2401 9.68372 86.7657 9.33428C87.2941 8.98201 87.9234 8.80587 88.6535 8.80587C89.3836 8.80587 90.0114 8.98201 90.537 9.33428C91.0654 9.68656 91.4717 10.1979 91.7558 10.8684C92.0399 11.536 92.1805 12.3456 92.1776 13.2974C92.1776 14.2547 92.0356 15.0729 91.7515 15.7519C91.4703 16.4309 91.0668 16.9493 90.5413 17.3073C90.0157 17.6652 89.3864 17.8442 88.6535 17.8442ZM88.6535 16.3144C89.1535 16.3144 89.5526 16.063 89.8509 15.5601C90.1492 15.0573 90.297 14.303 90.2941 13.2974C90.2941 12.6354 90.2259 12.0843 90.0896 11.6439C89.956 11.2036 89.7657 10.8726 89.5185 10.651C89.2742 10.4295 88.9859 10.3187 88.6535 10.3187C88.1563 10.3187 87.7586 10.5672 87.4603 11.0644C87.162 11.5616 87.0114 12.3059 87.0086 13.2974C87.0086 13.9678 87.0754 14.5275 87.2089 14.9763C87.3453 15.4224 87.537 15.7576 87.7842 15.982C88.0313 16.2036 88.3211 16.3144 88.6535 16.3144ZM96.9152 17.8442C96.1823 17.8414 95.5516 17.661 95.0232 17.303C94.4976 16.9451 94.0928 16.4266 93.8087 15.7476C93.5274 15.0687 93.3882 14.2519 93.3911 13.2974C93.3911 12.3456 93.5317 11.5346 93.8129 10.8641C94.097 10.1937 94.5019 9.68372 95.0274 9.33428C95.5558 8.98201 96.1851 8.80587 96.9152 8.80587C97.6453 8.80587 98.2732 8.98201 98.7987 9.33428C99.3271 9.68656 99.7334 10.1979 100.017 10.8684C100.302 11.536 100.442 12.3456 100.439 13.2974C100.439 14.2547 100.297 15.0729 100.013 15.7519C99.732 16.4309 99.3286 16.9493 98.803 17.3073C98.2774 17.6652 97.6482 17.8442 96.9152 17.8442ZM96.9152 16.3144C97.4152 16.3144 97.8144 16.063 98.1127 15.5601C98.4109 15.0573 98.5587 14.303 98.5558 13.2974C98.5558 12.6354 98.4877 12.0843 98.3513 11.6439C98.2178 11.2036 98.0274 10.8726 97.7803 10.651C97.5359 10.4295 97.2476 10.3187 96.9152 10.3187C96.4181 10.3187 96.0203 10.5672 95.722 11.0644C95.4237 11.5616 95.2732 12.3059 95.2703 13.2974C95.2703 13.9678 95.3371 14.5275 95.4706 14.9763C95.607 15.4224 95.7987 15.7576 96.0459 15.982C96.2931 16.2036 96.5828 16.3144 96.9152 16.3144Z" fill="#4D4D4D"/>
<path d="M32.2816 27.4106C31.918 27.4106 31.597 27.3188 31.3186 27.135C31.0402 26.9494 30.8223 26.6881 30.6652 26.351C30.508 26.0119 30.4294 25.6114 30.4294 25.1492C30.4294 24.6909 30.508 24.2932 30.6652 23.9561C30.8223 23.6189 31.0411 23.3585 31.3214 23.1748C31.6017 22.9911 31.9256 22.8992 32.293 22.8992C32.5771 22.8992 32.8015 22.9466 32.9663 23.0413C33.133 23.1341 33.2598 23.2402 33.347 23.3595C33.436 23.4769 33.5051 23.5735 33.5544 23.6492H33.6112V21.5015H34.2816V27.3197H33.6339V26.6492H33.5544C33.5051 26.7288 33.435 26.8292 33.3441 26.9504C33.2532 27.0697 33.1235 27.1767 32.9549 27.2714C32.7864 27.3642 32.5619 27.4106 32.2816 27.4106ZM32.3725 26.8083C32.6415 26.8083 32.8687 26.7383 33.0544 26.5981C33.24 26.4561 33.3811 26.26 33.4777 26.01C33.5742 25.7581 33.6225 25.4674 33.6225 25.1379C33.6225 24.8121 33.5752 24.5271 33.4805 24.2828C33.3858 24.0366 33.2456 23.8453 33.06 23.7089C32.8744 23.5706 32.6453 23.5015 32.3725 23.5015C32.0884 23.5015 31.8517 23.5744 31.6623 23.7203C31.4748 23.8642 31.3337 24.0602 31.239 24.3083C31.1462 24.5546 31.0998 24.8311 31.0998 25.1379C31.0998 25.4485 31.1472 25.7307 31.2419 25.9845C31.3384 26.2364 31.4805 26.4371 31.668 26.5867C31.8574 26.7345 32.0922 26.8083 32.3725 26.8083ZM37.4322 27.4106C37.0117 27.4106 36.6491 27.3178 36.3441 27.1322C36.0411 26.9447 35.8072 26.6833 35.6424 26.3481C35.4795 26.011 35.3981 25.6189 35.3981 25.172C35.3981 24.725 35.4795 24.3311 35.6424 23.9902C35.8072 23.6474 36.0364 23.3803 36.3299 23.189C36.6254 22.9958 36.9701 22.8992 37.364 22.8992C37.5913 22.8992 37.8157 22.9371 38.0373 23.0129C38.2589 23.0886 38.4606 23.2117 38.6424 23.3822C38.8242 23.5508 38.9691 23.7742 39.0771 24.0527C39.185 24.3311 39.239 24.6739 39.239 25.0811V25.3652H35.8754V24.7856H38.5572C38.5572 24.5394 38.508 24.3197 38.4095 24.1265C38.3129 23.9333 38.1746 23.7809 37.9947 23.6691C37.8167 23.5574 37.6064 23.5015 37.364 23.5015C37.097 23.5015 36.8659 23.5678 36.6708 23.7004C36.4777 23.8311 36.329 24.0015 36.2248 24.2117C36.1206 24.422 36.0686 24.6474 36.0686 24.8879V25.2742C36.0686 25.6038 36.1254 25.8831 36.239 26.1123C36.3545 26.3396 36.5146 26.5129 36.7191 26.6322C36.9237 26.7496 37.1614 26.8083 37.4322 26.8083C37.6083 26.8083 37.7674 26.7837 37.9095 26.7345C38.0534 26.6833 38.1775 26.6076 38.2816 26.5072C38.3858 26.4049 38.4663 26.278 38.5231 26.1265L39.1708 26.3083C39.1027 26.528 38.9881 26.7212 38.8271 26.8879C38.6661 27.0527 38.4672 27.1814 38.2305 27.2742C37.9937 27.3652 37.7277 27.4106 37.4322 27.4106ZM44.2816 27.4106C43.8725 27.4106 43.5203 27.314 43.2248 27.1208C42.9294 26.9277 42.7021 26.6616 42.543 26.3225C42.3839 25.9835 42.3044 25.5962 42.3044 25.1606C42.3044 24.7174 42.3858 24.3263 42.5487 23.9873C42.7134 23.6464 42.9426 23.3803 43.2362 23.189C43.5316 22.9958 43.8763 22.8992 44.2703 22.8992C44.5771 22.8992 44.8536 22.9561 45.0998 23.0697C45.346 23.1833 45.5477 23.3424 45.7049 23.547C45.8621 23.7515 45.9597 23.9902 45.9975 24.2629H45.3271C45.2759 24.064 45.1623 23.8879 44.9862 23.7345C44.8119 23.5792 44.5771 23.5015 44.2816 23.5015C44.0203 23.5015 43.7911 23.5697 43.5941 23.7061C43.3991 23.8405 43.2466 24.0309 43.1367 24.2771C43.0288 24.5214 42.9748 24.8083 42.9748 25.1379C42.9748 25.475 43.0278 25.7686 43.1339 26.0186C43.2419 26.2686 43.3934 26.4627 43.5884 26.601C43.7854 26.7392 44.0165 26.8083 44.2816 26.8083C44.4559 26.8083 44.614 26.778 44.7561 26.7174C44.8981 26.6568 45.0184 26.5697 45.1169 26.4561C45.2153 26.3424 45.2854 26.2061 45.3271 26.047H45.9975C45.9597 26.3046 45.8659 26.5366 45.7163 26.743C45.5686 26.9475 45.3725 27.1104 45.1282 27.2316C44.8858 27.351 44.6036 27.4106 44.2816 27.4106ZM48.7504 27.4106C48.3564 27.4106 48.0108 27.3169 47.7134 27.1294C47.418 26.9419 47.1869 26.6796 47.0203 26.3424C46.8555 26.0053 46.7731 25.6114 46.7731 25.1606C46.7731 24.7061 46.8555 24.3093 47.0203 23.9703C47.1869 23.6313 47.418 23.368 47.7134 23.1805C48.0108 22.993 48.3564 22.8992 48.7504 22.8992C49.1443 22.8992 49.489 22.993 49.7845 23.1805C50.0818 23.368 50.3129 23.6313 50.4777 23.9703C50.6443 24.3093 50.7277 24.7061 50.7277 25.1606C50.7277 25.6114 50.6443 26.0053 50.4777 26.3424C50.3129 26.6796 50.0818 26.9419 49.7845 27.1294C49.489 27.3169 49.1443 27.4106 48.7504 27.4106ZM48.7504 26.8083C49.0496 26.8083 49.2958 26.7316 49.489 26.5782C49.6822 26.4248 49.8252 26.2231 49.918 25.9731C50.0108 25.7231 50.0572 25.4523 50.0572 25.1606C50.0572 24.8689 50.0108 24.5972 49.918 24.3453C49.8252 24.0934 49.6822 23.8898 49.489 23.7345C49.2958 23.5792 49.0496 23.5015 48.7504 23.5015C48.4511 23.5015 48.2049 23.5792 48.0117 23.7345C47.8186 23.8898 47.6756 24.0934 47.5828 24.3453C47.49 24.5972 47.4436 24.8689 47.4436 25.1606C47.4436 25.4523 47.49 25.7231 47.5828 25.9731C47.6756 26.2231 47.8186 26.4248 48.0117 26.5782C48.2049 26.7316 48.4511 26.8083 48.7504 26.8083ZM51.7511 27.3197V22.9561H52.3988V23.6379H52.4556C52.5465 23.4049 52.6933 23.2241 52.896 23.0953C53.0986 22.9646 53.342 22.8992 53.6261 22.8992C53.914 22.8992 54.1535 22.9646 54.3448 23.0953C54.538 23.2241 54.6886 23.4049 54.7965 23.6379H54.842C54.9537 23.4125 55.1214 23.2335 55.3448 23.101C55.5683 22.9665 55.8363 22.8992 56.1488 22.8992C56.539 22.8992 56.8581 23.0214 57.1062 23.2657C57.3543 23.5081 57.4784 23.886 57.4784 24.3992V27.3197H56.8079V24.3992C56.8079 24.0773 56.7198 23.8472 56.5437 23.7089C56.3676 23.5706 56.1602 23.5015 55.9215 23.5015C55.6147 23.5015 55.377 23.5943 55.2085 23.7799C55.0399 23.9636 54.9556 24.1966 54.9556 24.4788V27.3197H54.2738V24.3311C54.2738 24.083 54.1933 23.8831 54.0323 23.7316C53.8714 23.5782 53.664 23.5015 53.4102 23.5015C53.2359 23.5015 53.0731 23.5479 52.9215 23.6407C52.7719 23.7335 52.6507 23.8623 52.5579 24.0271C52.467 24.19 52.4215 24.3784 52.4215 24.5924V27.3197H51.7511ZM58.7042 28.9561V22.9561H59.3519V23.6492H59.4315C59.4807 23.5735 59.5489 23.4769 59.636 23.3595C59.725 23.2402 59.8519 23.1341 60.0167 23.0413C60.1834 22.9466 60.4088 22.8992 60.6928 22.8992C61.0603 22.8992 61.3841 22.9911 61.6644 23.1748C61.9447 23.3585 62.1635 23.6189 62.3207 23.9561C62.4779 24.2932 62.5565 24.6909 62.5565 25.1492C62.5565 25.6114 62.4779 26.0119 62.3207 26.351C62.1635 26.6881 61.9457 26.9494 61.6673 27.135C61.3889 27.3188 61.0678 27.4106 60.7042 27.4106C60.4239 27.4106 60.1995 27.3642 60.0309 27.2714C59.8624 27.1767 59.7326 27.0697 59.6417 26.9504C59.5508 26.8292 59.4807 26.7288 59.4315 26.6492H59.3747V28.9561H58.7042ZM59.3633 25.1379C59.3633 25.4674 59.4116 25.7581 59.5082 26.01C59.6048 26.26 59.7459 26.4561 59.9315 26.5981C60.1171 26.7383 60.3444 26.8083 60.6133 26.8083C60.8936 26.8083 61.1275 26.7345 61.315 26.5867C61.5044 26.4371 61.6464 26.2364 61.7411 25.9845C61.8377 25.7307 61.886 25.4485 61.886 25.1379C61.886 24.8311 61.8387 24.5546 61.744 24.3083C61.6512 24.0602 61.5101 23.8642 61.3207 23.7203C61.1332 23.5744 60.8974 23.5015 60.6133 23.5015C60.3406 23.5015 60.1114 23.5706 59.9258 23.7089C59.7402 23.8453 59.6 24.0366 59.5053 24.2828C59.4107 24.5271 59.3633 24.8121 59.3633 25.1379ZM65.3519 27.4106C64.958 27.4106 64.6124 27.3169 64.315 27.1294C64.0196 26.9419 63.7885 26.6796 63.6218 26.3424C63.4571 26.0053 63.3747 25.6114 63.3747 25.1606C63.3747 24.7061 63.4571 24.3093 63.6218 23.9703C63.7885 23.6313 64.0196 23.368 64.315 23.1805C64.6124 22.993 64.958 22.8992 65.3519 22.8992C65.7459 22.8992 66.0906 22.993 66.386 23.1805C66.6834 23.368 66.9144 23.6313 67.0792 23.9703C67.2459 24.3093 67.3292 24.7061 67.3292 25.1606C67.3292 25.6114 67.2459 26.0053 67.0792 26.3424C66.9144 26.6796 66.6834 26.9419 66.386 27.1294C66.0906 27.3169 65.7459 27.4106 65.3519 27.4106ZM65.3519 26.8083C65.6512 26.8083 65.8974 26.7316 66.0906 26.5782C66.2838 26.4248 66.4268 26.2231 66.5196 25.9731C66.6124 25.7231 66.6588 25.4523 66.6588 25.1606C66.6588 24.8689 66.6124 24.5972 66.5196 24.3453C66.4268 24.0934 66.2838 23.8898 66.0906 23.7345C65.8974 23.5792 65.6512 23.5015 65.3519 23.5015C65.0527 23.5015 64.8065 23.5792 64.6133 23.7345C64.4201 23.8898 64.2771 24.0934 64.1843 24.3453C64.0915 24.5972 64.0451 24.8689 64.0451 25.1606C64.0451 25.4523 64.0915 25.7231 64.1843 25.9731C64.2771 26.2231 64.4201 26.4248 64.6133 26.5782C64.8065 26.7316 65.0527 26.8083 65.3519 26.8083ZM69.0231 24.6947V27.3197H68.3527V22.9561H69.0004V23.6379H69.0572C69.1595 23.4163 69.3148 23.2383 69.5231 23.1038C69.7314 22.9674 70.0004 22.8992 70.3299 22.8992C70.6254 22.8992 70.8839 22.9599 71.1055 23.0811C71.3271 23.2004 71.4994 23.3822 71.6225 23.6265C71.7456 23.8689 71.8072 24.1758 71.8072 24.547V27.3197H71.1367V24.5924C71.1367 24.2496 71.0477 23.9826 70.8697 23.7913C70.6917 23.5981 70.4473 23.5015 70.1367 23.5015C69.9227 23.5015 69.7314 23.5479 69.5629 23.6407C69.3962 23.7335 69.2646 23.8689 69.168 24.047C69.0714 24.225 69.0231 24.4409 69.0231 24.6947ZM74.8619 27.4106C74.4414 27.4106 74.0787 27.3178 73.7738 27.1322C73.4708 26.9447 73.2369 26.6833 73.0721 26.3481C72.9092 26.011 72.8278 25.6189 72.8278 25.172C72.8278 24.725 72.9092 24.3311 73.0721 23.9902C73.2369 23.6474 73.466 23.3803 73.7596 23.189C74.0551 22.9958 74.3998 22.8992 74.7937 22.8992C75.021 22.8992 75.2454 22.9371 75.467 23.0129C75.6886 23.0886 75.8903 23.2117 76.0721 23.3822C76.2539 23.5508 76.3988 23.7742 76.5068 24.0527C76.6147 24.3311 76.6687 24.6739 76.6687 25.0811V25.3652H73.3051V24.7856H75.9869C75.9869 24.5394 75.9376 24.3197 75.8392 24.1265C75.7426 23.9333 75.6043 23.7809 75.4244 23.6691C75.2464 23.5574 75.0361 23.5015 74.7937 23.5015C74.5267 23.5015 74.2956 23.5678 74.1005 23.7004C73.9073 23.8311 73.7587 24.0015 73.6545 24.2117C73.5503 24.422 73.4982 24.6474 73.4982 24.8879V25.2742C73.4982 25.6038 73.5551 25.8831 73.6687 26.1123C73.7842 26.3396 73.9443 26.5129 74.1488 26.6322C74.3534 26.7496 74.591 26.8083 74.8619 26.8083C75.038 26.8083 75.1971 26.7837 75.3392 26.7345C75.4831 26.6833 75.6071 26.6076 75.7113 26.5072C75.8155 26.4049 75.896 26.278 75.9528 26.1265L76.6005 26.3083C76.5323 26.528 76.4178 26.7212 76.2568 26.8879C76.0958 27.0527 75.8969 27.1814 75.6602 27.2742C75.4234 27.3652 75.1573 27.4106 74.8619 27.4106ZM78.359 24.6947V27.3197H77.6886V22.9561H78.3363V23.6379H78.3931C78.4954 23.4163 78.6507 23.2383 78.859 23.1038C79.0674 22.9674 79.3363 22.8992 79.6659 22.8992C79.9613 22.8992 80.2198 22.9599 80.4414 23.0811C80.663 23.2004 80.8354 23.3822 80.9585 23.6265C81.0816 23.8689 81.1431 24.1758 81.1431 24.547V27.3197H80.4727V24.5924C80.4727 24.2496 80.3837 23.9826 80.2056 23.7913C80.0276 23.5981 79.7833 23.5015 79.4727 23.5015C79.2587 23.5015 79.0674 23.5479 78.8988 23.6407C78.7321 23.7335 78.6005 23.8689 78.5039 24.047C78.4073 24.225 78.359 24.4409 78.359 24.6947ZM84.266 22.9561V23.5242H82.0046V22.9561H84.266ZM82.6637 21.9106H83.3342V26.0697C83.3342 26.2591 83.3616 26.4011 83.4166 26.4958C83.4734 26.5886 83.5454 26.6511 83.6325 26.6833C83.7215 26.7136 83.8152 26.7288 83.9137 26.7288C83.9876 26.7288 84.0482 26.725 84.0955 26.7174C84.1429 26.708 84.1808 26.7004 84.2092 26.6947L84.3455 27.297C84.3001 27.314 84.2366 27.3311 84.1552 27.3481C84.0738 27.3671 83.9705 27.3765 83.8455 27.3765C83.6562 27.3765 83.4705 27.3358 83.2887 27.2544C83.1088 27.1729 82.9592 27.0489 82.8399 26.8822C82.7224 26.7155 82.6637 26.5053 82.6637 26.2515V21.9106ZM87.0572 27.4106C86.6367 27.4106 86.2741 27.3178 85.9691 27.1322C85.6661 26.9447 85.4322 26.6833 85.2674 26.3481C85.1045 26.011 85.0231 25.6189 85.0231 25.172C85.0231 24.725 85.1045 24.3311 85.2674 23.9902C85.4322 23.6474 85.6614 23.3803 85.9549 23.189C86.2504 22.9958 86.5951 22.8992 86.989 22.8992C87.2163 22.8992 87.4407 22.9371 87.6623 23.0129C87.8839 23.0886 88.0856 23.2117 88.2674 23.3822C88.4492 23.5508 88.5941 23.7742 88.7021 24.0527C88.81 24.3311 88.864 24.6739 88.864 25.0811V25.3652H85.5004V24.7856H88.1822C88.1822 24.5394 88.133 24.3197 88.0345 24.1265C87.9379 23.9333 87.7996 23.7809 87.6197 23.6691C87.4417 23.5574 87.2314 23.5015 86.989 23.5015C86.722 23.5015 86.4909 23.5678 86.2958 23.7004C86.1027 23.8311 85.954 24.0015 85.8498 24.2117C85.7456 24.422 85.6936 24.6474 85.6936 24.8879V25.2742C85.6936 25.6038 85.7504 25.8831 85.864 26.1123C85.9795 26.3396 86.1396 26.5129 86.3441 26.6322C86.5487 26.7496 86.7864 26.8083 87.0572 26.8083C87.2333 26.8083 87.3924 26.7837 87.5345 26.7345C87.6784 26.6833 87.8025 26.6076 87.9066 26.5072C88.0108 26.4049 88.0913 26.278 88.1481 26.1265L88.7958 26.3083C88.7277 26.528 88.6131 26.7212 88.4521 26.8879C88.2911 27.0527 88.0922 27.1814 87.8555 27.2742C87.6187 27.3652 87.3527 27.4106 87.0572 27.4106ZM92.9748 23.9333L92.3725 24.1038C92.3347 24.0034 92.2788 23.9059 92.2049 23.8112C92.133 23.7146 92.0345 23.635 91.9095 23.5725C91.7845 23.51 91.6244 23.4788 91.4294 23.4788C91.1623 23.4788 90.9398 23.5403 90.7617 23.6635C90.5856 23.7847 90.4975 23.939 90.4975 24.1265C90.4975 24.2932 90.5581 24.4248 90.6794 24.5214C90.8006 24.618 90.99 24.6985 91.2475 24.7629L91.8953 24.922C92.2854 25.0167 92.5761 25.1616 92.7674 25.3566C92.9587 25.5498 93.0544 25.7989 93.0544 26.1038C93.0544 26.3538 92.9824 26.5773 92.8384 26.7742C92.6964 26.9712 92.4975 27.1265 92.2419 27.2402C91.9862 27.3538 91.6888 27.4106 91.3498 27.4106C90.9047 27.4106 90.5364 27.314 90.2447 27.1208C89.953 26.9277 89.7684 26.6455 89.6907 26.2742L90.3271 26.1152C90.3877 26.35 90.5023 26.5261 90.6708 26.6436C90.8413 26.761 91.0638 26.8197 91.3384 26.8197C91.6509 26.8197 91.8991 26.7534 92.0828 26.6208C92.2684 26.4864 92.3612 26.3254 92.3612 26.1379C92.3612 25.9864 92.3081 25.8595 92.2021 25.7572C92.096 25.653 91.9331 25.5754 91.7134 25.5242L90.9862 25.3538C90.5866 25.2591 90.293 25.1123 90.1055 24.9135C89.9199 24.7127 89.8271 24.4617 89.8271 24.1606C89.8271 23.9144 89.8962 23.6966 90.0345 23.5072C90.1746 23.3178 90.365 23.1691 90.6055 23.0612C90.8479 22.9532 91.1225 22.8992 91.4294 22.8992C91.8612 22.8992 92.2002 22.9939 92.4464 23.1833C92.6945 23.3727 92.8706 23.6227 92.9748 23.9333ZM98.1431 27.4106C97.7227 27.4106 97.36 27.3178 97.0551 27.1322C96.752 26.9447 96.5181 26.6833 96.3534 26.3481C96.1905 26.011 96.109 25.6189 96.109 25.172C96.109 24.725 96.1905 24.3311 96.3534 23.9902C96.5181 23.6474 96.7473 23.3803 97.0409 23.189C97.3363 22.9958 97.681 22.8992 98.075 22.8992C98.3022 22.8992 98.5267 22.9371 98.7482 23.0129C98.9698 23.0886 99.1715 23.2117 99.3534 23.3822C99.5352 23.5508 99.6801 23.7742 99.788 24.0527C99.896 24.3311 99.95 24.6739 99.95 25.0811V25.3652H96.5863V24.7856H99.2681C99.2681 24.5394 99.2189 24.3197 99.1204 24.1265C99.0238 23.9333 98.8856 23.7809 98.7056 23.6691C98.5276 23.5574 98.3174 23.5015 98.075 23.5015C97.8079 23.5015 97.5768 23.5678 97.3818 23.7004C97.1886 23.8311 97.0399 24.0015 96.9357 24.2117C96.8316 24.422 96.7795 24.6474 96.7795 24.8879V25.2742C96.7795 25.6038 96.8363 25.8831 96.95 26.1123C97.0655 26.3396 97.2255 26.5129 97.4301 26.6322C97.6346 26.7496 97.8723 26.8083 98.1431 26.8083C98.3193 26.8083 98.4784 26.7837 98.6204 26.7345C98.7643 26.6833 98.8884 26.6076 98.9926 26.5072C99.0967 26.4049 99.1772 26.278 99.234 26.1265L99.8818 26.3083C99.8136 26.528 99.699 26.7212 99.538 26.8879C99.377 27.0527 99.1782 27.1814 98.9414 27.2742C98.7047 27.3652 98.4386 27.4106 98.1431 27.4106ZM101.64 21.5015V27.3197H100.97V21.5015H101.64ZM104.698 27.4106C104.277 27.4106 103.915 27.3178 103.61 27.1322C103.307 26.9447 103.073 26.6833 102.908 26.3481C102.745 26.011 102.664 25.6189 102.664 25.172C102.664 24.725 102.745 24.3311 102.908 23.9902C103.073 23.6474 103.302 23.3803 103.596 23.189C103.891 22.9958 104.236 22.8992 104.63 22.8992C104.857 22.8992 105.081 22.9371 105.303 23.0129C105.525 23.0886 105.726 23.2117 105.908 23.3822C106.09 23.5508 106.235 23.7742 106.343 24.0527C106.451 24.3311 106.505 24.6739 106.505 25.0811V25.3652H103.141V24.7856H105.823C105.823 24.5394 105.774 24.3197 105.675 24.1265C105.579 23.9333 105.44 23.7809 105.26 23.6691C105.082 23.5574 104.872 23.5015 104.63 23.5015C104.363 23.5015 104.132 23.5678 103.936 23.7004C103.743 23.8311 103.595 24.0015 103.49 24.2117C103.386 24.422 103.334 24.6474 103.334 24.8879V25.2742C103.334 25.6038 103.391 25.8831 103.505 26.1123C103.62 26.3396 103.78 26.5129 103.985 26.6322C104.189 26.7496 104.427 26.8083 104.698 26.8083C104.874 26.8083 105.033 26.7837 105.175 26.7345C105.319 26.6833 105.443 26.6076 105.547 26.5072C105.651 26.4049 105.732 26.278 105.789 26.1265L106.436 26.3083C106.368 26.528 106.254 26.7212 106.093 26.8879C105.932 27.0527 105.733 27.1814 105.496 27.2742C105.259 27.3652 104.993 27.4106 104.698 27.4106ZM109.422 22.9561V23.5242H107.161V22.9561H109.422ZM107.82 21.9106H108.49V26.0697C108.49 26.2591 108.518 26.4011 108.573 26.4958C108.63 26.5886 108.702 26.6511 108.789 26.6833C108.878 26.7136 108.971 26.7288 109.07 26.7288C109.144 26.7288 109.204 26.725 109.252 26.7174C109.299 26.708 109.337 26.7004 109.365 26.6947L109.502 27.297C109.456 27.314 109.393 27.3311 109.311 27.3481C109.23 27.3671 109.127 27.3765 109.002 27.3765C108.812 27.3765 108.627 27.3358 108.445 27.2544C108.265 27.1729 108.115 27.0489 107.996 26.8822C107.879 26.7155 107.82 26.5053 107.82 26.2515V21.9106ZM110.431 27.3197V22.9561H111.079V23.6152H111.124C111.204 23.3992 111.347 23.2241 111.556 23.0896C111.764 22.9551 111.999 22.8879 112.26 22.8879C112.31 22.8879 112.371 22.8888 112.445 22.8907C112.519 22.8926 112.575 22.8955 112.613 22.8992V23.5811C112.59 23.5754 112.538 23.5669 112.456 23.5555C112.377 23.5422 112.293 23.5356 112.204 23.5356C111.991 23.5356 111.802 23.5801 111.635 23.6691C111.471 23.7563 111.34 23.8775 111.243 24.0328C111.149 24.1862 111.101 24.3614 111.101 24.5583V27.3197H110.431ZM115.047 27.4106C114.653 27.4106 114.308 27.3169 114.01 27.1294C113.715 26.9419 113.484 26.6796 113.317 26.3424C113.152 26.0053 113.07 25.6114 113.07 25.1606C113.07 24.7061 113.152 24.3093 113.317 23.9703C113.484 23.6313 113.715 23.368 114.01 23.1805C114.308 22.993 114.653 22.8992 115.047 22.8992C115.441 22.8992 115.786 22.993 116.081 23.1805C116.379 23.368 116.61 23.6313 116.775 23.9703C116.941 24.3093 117.025 24.7061 117.025 25.1606C117.025 25.6114 116.941 26.0053 116.775 26.3424C116.61 26.6796 116.379 26.9419 116.081 27.1294C115.786 27.3169 115.441 27.4106 115.047 27.4106ZM115.047 26.8083C115.346 26.8083 115.593 26.7316 115.786 26.5782C115.979 26.4248 116.122 26.2231 116.215 25.9731C116.308 25.7231 116.354 25.4523 116.354 25.1606C116.354 24.8689 116.308 24.5972 116.215 24.3453C116.122 24.0934 115.979 23.8898 115.786 23.7345C115.593 23.5792 115.346 23.5015 115.047 23.5015C114.748 23.5015 114.502 23.5792 114.309 23.7345C114.115 23.8898 113.972 24.0934 113.88 24.3453C113.787 24.5972 113.74 24.8689 113.74 25.1606C113.74 25.4523 113.787 25.7231 113.88 25.9731C113.972 26.2231 114.115 26.4248 114.309 26.5782C114.502 26.7316 114.748 26.8083 115.047 26.8083ZM115.638 22.4333L115.047 21.6379L114.456 22.4333H113.82V22.3879L114.74 21.2061H115.354L116.275 22.3879V22.4333H115.638ZM118.718 24.6947V27.3197H118.048V22.9561H118.696V23.6379H118.753C118.855 23.4163 119.01 23.2383 119.218 23.1038C119.427 22.9674 119.696 22.8992 120.025 22.8992C120.321 22.8992 120.579 22.9599 120.801 23.0811C121.022 23.2004 121.195 23.3822 121.318 23.6265C121.441 23.8689 121.503 24.1758 121.503 24.547V27.3197H120.832V24.5924C120.832 24.2496 120.743 23.9826 120.565 23.7913C120.387 23.5981 120.143 23.5015 119.832 23.5015C119.618 23.5015 119.427 23.5479 119.258 23.6407C119.092 23.7335 118.96 23.8689 118.863 24.047C118.767 24.225 118.718 24.4409 118.718 24.6947ZM122.728 27.3197V22.9561H123.398V27.3197H122.728ZM123.069 22.2288C122.938 22.2288 122.825 22.1843 122.73 22.0953C122.638 22.0063 122.591 21.8992 122.591 21.7742C122.591 21.6492 122.638 21.5422 122.73 21.4532C122.825 21.3642 122.938 21.3197 123.069 21.3197C123.199 21.3197 123.311 21.3642 123.404 21.4532C123.498 21.5422 123.546 21.6492 123.546 21.7742C123.546 21.8992 123.498 22.0063 123.404 22.0953C123.311 22.1843 123.199 22.2288 123.069 22.2288ZM126.399 27.4106C125.99 27.4106 125.637 27.314 125.342 27.1208C125.047 26.9277 124.819 26.6616 124.66 26.3225C124.501 25.9835 124.422 25.5962 124.422 25.1606C124.422 24.7174 124.503 24.3263 124.666 23.9873C124.831 23.6464 125.06 23.3803 125.353 23.189C125.649 22.9958 125.994 22.8992 126.387 22.8992C126.694 22.8992 126.971 22.9561 127.217 23.0697C127.463 23.1833 127.665 23.3424 127.822 23.547C127.979 23.7515 128.077 23.9902 128.115 24.2629H127.444C127.393 24.064 127.279 23.8879 127.103 23.7345C126.929 23.5792 126.694 23.5015 126.399 23.5015C126.137 23.5015 125.908 23.5697 125.711 23.7061C125.516 23.8405 125.364 24.0309 125.254 24.2771C125.146 24.5214 125.092 24.8083 125.092 25.1379C125.092 25.475 125.145 25.7686 125.251 26.0186C125.359 26.2686 125.511 26.4627 125.706 26.601C125.903 26.7392 126.134 26.8083 126.399 26.8083C126.573 26.8083 126.731 26.778 126.873 26.7174C127.015 26.6568 127.136 26.5697 127.234 26.4561C127.333 26.3424 127.403 26.2061 127.444 26.047H128.115C128.077 26.3046 127.983 26.5366 127.833 26.743C127.686 26.9475 127.49 27.1104 127.245 27.2316C127.003 27.351 126.721 27.4106 126.399 27.4106ZM130.868 27.4106C130.474 27.4106 130.128 27.3169 129.831 27.1294C129.535 26.9419 129.304 26.6796 129.137 26.3424C128.973 26.0053 128.89 25.6114 128.89 25.1606C128.89 24.7061 128.973 24.3093 129.137 23.9703C129.304 23.6313 129.535 23.368 129.831 23.1805C130.128 22.993 130.474 22.8992 130.868 22.8992C131.262 22.8992 131.606 22.993 131.902 23.1805C132.199 23.368 132.43 23.6313 132.595 23.9703C132.762 24.3093 132.845 24.7061 132.845 25.1606C132.845 25.6114 132.762 26.0053 132.595 26.3424C132.43 26.6796 132.199 26.9419 131.902 27.1294C131.606 27.3169 131.262 27.4106 130.868 27.4106ZM130.868 26.8083C131.167 26.8083 131.413 26.7316 131.606 26.5782C131.799 26.4248 131.942 26.2231 132.035 25.9731C132.128 25.7231 132.174 25.4523 132.174 25.1606C132.174 24.8689 132.128 24.5972 132.035 24.3453C131.942 24.0934 131.799 23.8898 131.606 23.7345C131.413 23.5792 131.167 23.5015 130.868 23.5015C130.568 23.5015 130.322 23.5792 130.129 23.7345C129.936 23.8898 129.793 24.0934 129.7 24.3453C129.607 24.5972 129.561 24.8689 129.561 25.1606C129.561 25.4523 129.607 25.7231 129.7 25.9731C129.793 26.2231 129.936 26.4248 130.129 26.5782C130.322 26.7316 130.568 26.8083 130.868 26.8083ZM136.959 23.9333L136.357 24.1038C136.319 24.0034 136.263 23.9059 136.189 23.8112C136.117 23.7146 136.019 23.635 135.894 23.5725C135.769 23.51 135.609 23.4788 135.414 23.4788C135.147 23.4788 134.924 23.5403 134.746 23.6635C134.57 23.7847 134.482 23.939 134.482 24.1265C134.482 24.2932 134.543 24.4248 134.664 24.5214C134.785 24.618 134.974 24.6985 135.232 24.7629L135.88 24.922C136.27 25.0167 136.561 25.1616 136.752 25.3566C136.943 25.5498 137.039 25.7989 137.039 26.1038C137.039 26.3538 136.967 26.5773 136.823 26.7742C136.681 26.9712 136.482 27.1265 136.226 27.2402C135.971 27.3538 135.673 27.4106 135.334 27.4106C134.889 27.4106 134.521 27.314 134.229 27.1208C133.937 26.9277 133.753 26.6455 133.675 26.2742L134.311 26.1152C134.372 26.35 134.487 26.5261 134.655 26.6436C134.826 26.761 135.048 26.8197 135.323 26.8197C135.635 26.8197 135.883 26.7534 136.067 26.6208C136.253 26.4864 136.346 26.3254 136.346 26.1379C136.346 25.9864 136.293 25.8595 136.186 25.7572C136.08 25.653 135.918 25.5754 135.698 25.5242L134.971 25.3538C134.571 25.2591 134.277 25.1123 134.09 24.9135C133.904 24.7127 133.811 24.4617 133.811 24.1606C133.811 23.9144 133.881 23.6966 134.019 23.5072C134.159 23.3178 134.349 23.1691 134.59 23.0612C134.832 22.9532 135.107 22.8992 135.414 22.8992C135.846 22.8992 136.185 22.9939 136.431 23.1833C136.679 23.3727 136.855 23.6227 136.959 23.9333ZM30.6339 36.9561V30.9561H31.2816V31.6492H31.3612C31.4104 31.5735 31.4786 31.4769 31.5657 31.3595C31.6547 31.2402 31.7816 31.1341 31.9464 31.0413C32.1131 30.9466 32.3384 30.8992 32.6225 30.8992C32.99 30.8992 33.3138 30.9911 33.5941 31.1748C33.8744 31.3585 34.0932 31.6189 34.2504 31.9561C34.4076 32.2932 34.4862 32.6909 34.4862 33.1492C34.4862 33.6114 34.4076 34.0119 34.2504 34.351C34.0932 34.6881 33.8754 34.9494 33.597 35.135C33.3186 35.3188 32.9975 35.4106 32.6339 35.4106C32.3536 35.4106 32.1292 35.3642 31.9606 35.2714C31.792 35.1767 31.6623 35.0697 31.5714 34.9504C31.4805 34.8292 31.4104 34.7288 31.3612 34.6492H31.3044V36.9561H30.6339ZM31.293 33.1379C31.293 33.4674 31.3413 33.7581 31.4379 34.01C31.5345 34.26 31.6756 34.4561 31.8612 34.5981C32.0468 34.7383 32.2741 34.8083 32.543 34.8083C32.8233 34.8083 33.0572 34.7345 33.2447 34.5867C33.4341 34.4371 33.5761 34.2364 33.6708 33.9845C33.7674 33.7307 33.8157 33.4485 33.8157 33.1379C33.8157 32.8311 33.7684 32.5546 33.6737 32.3083C33.5809 32.0602 33.4398 31.8642 33.2504 31.7203C33.0629 31.5744 32.8271 31.5015 32.543 31.5015C32.2703 31.5015 32.0411 31.5706 31.8555 31.7089C31.6699 31.8453 31.5297 32.0366 31.435 32.2828C31.3403 32.5271 31.293 32.8121 31.293 33.1379ZM37.3384 35.4106C36.918 35.4106 36.5553 35.3178 36.2504 35.1322C35.9473 34.9447 35.7134 34.6833 35.5487 34.3481C35.3858 34.011 35.3044 33.6189 35.3044 33.172C35.3044 32.725 35.3858 32.3311 35.5487 31.9902C35.7134 31.6474 35.9426 31.3803 36.2362 31.189C36.5316 30.9958 36.8763 30.8992 37.2703 30.8992C37.4975 30.8992 37.722 30.9371 37.9436 31.0129C38.1652 31.0886 38.3669 31.2117 38.5487 31.3822C38.7305 31.5508 38.8754 31.7742 38.9833 32.0527C39.0913 32.3311 39.1453 32.6739 39.1453 33.0811V33.3652H35.7816V32.7856H38.4634C38.4634 32.5394 38.4142 32.3197 38.3157 32.1265C38.2191 31.9333 38.0809 31.7809 37.9009 31.6691C37.7229 31.5574 37.5127 31.5015 37.2703 31.5015C37.0032 31.5015 36.7722 31.5678 36.5771 31.7004C36.3839 31.8311 36.2352 32.0015 36.1311 32.2117C36.0269 32.422 35.9748 32.6474 35.9748 32.8879V33.2742C35.9748 33.6038 36.0316 33.8831 36.1453 34.1123C36.2608 34.3396 36.4208 34.5129 36.6254 34.6322C36.8299 34.7496 37.0676 34.8083 37.3384 34.8083C37.5146 34.8083 37.6737 34.7837 37.8157 34.7345C37.9597 34.6833 38.0837 34.6076 38.1879 34.5072C38.292 34.4049 38.3725 34.278 38.4294 34.1265L39.0771 34.3083C39.0089 34.528 38.8943 34.7212 38.7333 34.8879C38.5723 35.0527 38.3735 35.1814 38.1367 35.2742C37.9 35.3652 37.6339 35.4106 37.3384 35.4106ZM40.1652 35.3197V30.9561H40.8129V31.6152H40.8583C40.9379 31.3992 41.0818 31.2241 41.2902 31.0896C41.4985 30.9551 41.7333 30.8879 41.9947 30.8879C42.0439 30.8879 42.1055 30.8888 42.1794 30.8907C42.2532 30.8926 42.3091 30.8955 42.347 30.8992V31.5811C42.3242 31.5754 42.2722 31.5669 42.1907 31.5555C42.1112 31.5422 42.0269 31.5356 41.9379 31.5356C41.7258 31.5356 41.5364 31.5801 41.3697 31.6691C41.2049 31.7563 41.0742 31.8775 40.9777 32.0328C40.883 32.1862 40.8356 32.3614 40.8356 32.5583V35.3197H40.1652ZM44.6566 35.4106C44.293 35.4106 43.972 35.3188 43.6936 35.135C43.4152 34.9494 43.1973 34.6881 43.0402 34.351C42.883 34.0119 42.8044 33.6114 42.8044 33.1492C42.8044 32.6909 42.883 32.2932 43.0402 31.9561C43.1973 31.6189 43.4161 31.3585 43.6964 31.1748C43.9767 30.9911 44.3006 30.8992 44.668 30.8992C44.9521 30.8992 45.1765 30.9466 45.3413 31.0413C45.508 31.1341 45.6348 31.2402 45.722 31.3595C45.811 31.4769 45.8801 31.5735 45.9294 31.6492H45.9862V29.5015H46.6566V35.3197H46.0089V34.6492H45.9294C45.8801 34.7288 45.81 34.8292 45.7191 34.9504C45.6282 35.0697 45.4985 35.1767 45.3299 35.2714C45.1614 35.3642 44.9369 35.4106 44.6566 35.4106ZM44.7475 34.8083C45.0165 34.8083 45.2437 34.7383 45.4294 34.5981C45.615 34.4561 45.7561 34.26 45.8527 34.01C45.9492 33.7581 45.9975 33.4674 45.9975 33.1379C45.9975 32.8121 45.9502 32.5271 45.8555 32.2828C45.7608 32.0366 45.6206 31.8453 45.435 31.7089C45.2494 31.5706 45.0203 31.5015 44.7475 31.5015C44.4634 31.5015 44.2267 31.5744 44.0373 31.7203C43.8498 31.8642 43.7087 32.0602 43.614 32.3083C43.5212 32.5546 43.4748 32.8311 43.4748 33.1379C43.4748 33.4485 43.5222 33.7307 43.6169 33.9845C43.7134 34.2364 43.8555 34.4371 44.043 34.5867C44.2324 34.7345 44.4672 34.8083 44.7475 34.8083ZM47.9777 35.3197V30.9561H48.6481V35.3197H47.9777ZM48.3186 30.2288C48.1879 30.2288 48.0752 30.1843 47.9805 30.0953C47.8877 30.0063 47.8413 29.8992 47.8413 29.7742C47.8413 29.6492 47.8877 29.5422 47.9805 29.4532C48.0752 29.3642 48.1879 29.3197 48.3186 29.3197C48.4492 29.3197 48.561 29.3642 48.6538 29.4532C48.7485 29.5422 48.7958 29.6492 48.7958 29.7742C48.7958 29.8992 48.7485 30.0063 48.6538 30.0953C48.561 30.1843 48.4492 30.2288 48.3186 30.2288ZM51.5238 35.4106C51.1602 35.4106 50.8392 35.3188 50.5607 35.135C50.2823 34.9494 50.0645 34.6881 49.9073 34.351C49.7501 34.0119 49.6715 33.6114 49.6715 33.1492C49.6715 32.6909 49.7501 32.2932 49.9073 31.9561C50.0645 31.6189 50.2833 31.3585 50.5636 31.1748C50.8439 30.9911 51.1678 30.8992 51.5352 30.8992C51.8193 30.8992 52.0437 30.9466 52.2085 31.0413C52.3751 31.1341 52.502 31.2402 52.5892 31.3595C52.6782 31.4769 52.7473 31.5735 52.7965 31.6492H52.8534V29.5015H53.5238V35.3197H52.8761V34.6492H52.7965C52.7473 34.7288 52.6772 34.8292 52.5863 34.9504C52.4954 35.0697 52.3657 35.1767 52.1971 35.2714C52.0285 35.3642 51.8041 35.4106 51.5238 35.4106ZM51.6147 34.8083C51.8837 34.8083 52.1109 34.7383 52.2965 34.5981C52.4821 34.4561 52.6232 34.26 52.7198 34.01C52.8164 33.7581 52.8647 33.4674 52.8647 33.1379C52.8647 32.8121 52.8174 32.5271 52.7227 32.2828C52.628 32.0366 52.4878 31.8453 52.3022 31.7089C52.1166 31.5706 51.8875 31.5015 51.6147 31.5015C51.3306 31.5015 51.0939 31.5744 50.9045 31.7203C50.717 31.8642 50.5759 32.0602 50.4812 32.3083C50.3884 32.5546 50.342 32.8311 50.342 33.1379C50.342 33.4485 50.3893 33.7307 50.484 33.9845C50.5806 34.2364 50.7227 34.4371 50.9102 34.5867C51.0996 34.7345 51.3344 34.8083 51.6147 34.8083ZM56.6176 35.4106C56.2236 35.4106 55.878 35.3169 55.5806 35.1294C55.2852 34.9419 55.0541 34.6796 54.8875 34.3424C54.7227 34.0053 54.6403 33.6114 54.6403 33.1606C54.6403 32.7061 54.7227 32.3093 54.8875 31.9703C55.0541 31.6313 55.2852 31.368 55.5806 31.1805C55.878 30.993 56.2236 30.8992 56.6176 30.8992C57.0115 30.8992 57.3562 30.993 57.6517 31.1805C57.949 31.368 58.1801 31.6313 58.3448 31.9703C58.5115 32.3093 58.5948 32.7061 58.5948 33.1606C58.5948 33.6114 58.5115 34.0053 58.3448 34.3424C58.1801 34.6796 57.949 34.9419 57.6517 35.1294C57.3562 35.3169 57.0115 35.4106 56.6176 35.4106ZM56.6176 34.8083C56.9168 34.8083 57.163 34.7316 57.3562 34.5782C57.5494 34.4248 57.6924 34.2231 57.7852 33.9731C57.878 33.7231 57.9244 33.4523 57.9244 33.1606C57.9244 32.8689 57.878 32.5972 57.7852 32.3453C57.6924 32.0934 57.5494 31.8898 57.3562 31.7345C57.163 31.5792 56.9168 31.5015 56.6176 31.5015C56.3183 31.5015 56.0721 31.5792 55.8789 31.7345C55.6857 31.8898 55.5428 32.0934 55.45 32.3453C55.3571 32.5972 55.3107 32.8689 55.3107 33.1606C55.3107 33.4523 55.3571 33.7231 55.45 33.9731C55.5428 34.2231 55.6857 34.4248 55.8789 34.5782C56.0721 34.7316 56.3183 34.8083 56.6176 34.8083ZM62.7092 31.9333L62.1069 32.1038C62.069 32.0034 62.0132 31.9059 61.9393 31.8112C61.8673 31.7146 61.7688 31.635 61.6438 31.5725C61.5188 31.51 61.3588 31.4788 61.1637 31.4788C60.8967 31.4788 60.6741 31.5403 60.4961 31.6635C60.32 31.7847 60.2319 31.939 60.2319 32.1265C60.2319 32.2932 60.2925 32.4248 60.4137 32.5214C60.5349 32.618 60.7243 32.6985 60.9819 32.7629L61.6296 32.922C62.0198 33.0167 62.3105 33.1616 62.5018 33.3566C62.6931 33.5498 62.7887 33.7989 62.7887 34.1038C62.7887 34.3538 62.7168 34.5773 62.5728 34.7742C62.4308 34.9712 62.2319 35.1265 61.9762 35.2402C61.7205 35.3538 61.4232 35.4106 61.0842 35.4106C60.6391 35.4106 60.2707 35.314 59.9791 35.1208C59.6874 34.9277 59.5027 34.6455 59.4251 34.2742L60.0615 34.1152C60.1221 34.35 60.2366 34.5261 60.4052 34.6436C60.5757 34.761 60.7982 34.8197 61.0728 34.8197C61.3853 34.8197 61.6334 34.7534 61.8171 34.6208C62.0027 34.4864 62.0955 34.3254 62.0955 34.1379C62.0955 33.9864 62.0425 33.8595 61.9365 33.7572C61.8304 33.653 61.6675 33.5754 61.4478 33.5242L60.7205 33.3538C60.3209 33.2591 60.0274 33.1123 59.8399 32.9135C59.6543 32.7127 59.5615 32.4617 59.5615 32.1606C59.5615 31.9144 59.6306 31.6966 59.7688 31.5072C59.909 31.3178 60.0993 31.1691 60.3399 31.0612C60.5823 30.9532 60.8569 30.8992 61.1637 30.8992C61.5955 30.8992 61.9346 30.9939 62.1808 31.1833C62.4289 31.3727 62.605 31.6227 62.7092 31.9333Z" fill="#717171"/>
</svg>
