<svg width="153" height="44" viewBox="0 0 153 44" fill="none" xmlns="http://www.w3.org/2000/svg">
<path d="M33.8853 8.43087C34.3341 8.43087 34.7659 8.50616 35.1807 8.65673C35.5983 8.8073 35.9705 9.04735 36.2972 9.3769C36.6267 9.70644 36.8867 10.1439 37.077 10.6894C37.2702 11.232 37.3682 11.8982 37.3711 12.688C37.3711 13.4295 37.2872 14.0914 37.1196 14.6738C36.9549 15.2533 36.7176 15.7462 36.408 16.1525C36.0983 16.5587 35.7247 16.8684 35.2872 17.0814C34.8497 17.2917 34.3611 17.3968 33.8213 17.3968C33.239 17.3968 32.7247 17.2846 32.2787 17.0601C31.8327 16.8329 31.4733 16.5246 31.2006 16.1354C30.9307 15.7434 30.7674 15.303 30.7105 14.8144H32.5301C32.6012 15.1326 32.7503 15.3797 32.9776 15.5559C33.2049 15.7292 33.4861 15.8158 33.8213 15.8158C34.3895 15.8158 34.8213 15.5687 35.1168 15.0743C35.4122 14.5772 35.5614 13.8968 35.5642 13.0331H35.5046C35.3739 13.2888 35.1978 13.509 34.9762 13.6937C34.7546 13.8755 34.5003 14.0161 34.2134 14.1155C33.9293 14.215 33.6267 14.2647 33.3057 14.2647C32.7915 14.2647 32.3327 14.1439 31.9293 13.9025C31.5259 13.661 31.2077 13.3286 30.9747 12.9053C30.7418 12.482 30.6253 11.9991 30.6253 11.4564C30.6225 10.8712 30.7574 10.3499 31.0301 9.89252C31.3029 9.43514 31.6836 9.07718 32.1722 8.81866C32.6637 8.5573 33.2347 8.42803 33.8853 8.43087ZM33.898 9.87974C33.6111 9.87974 33.3554 9.94792 33.131 10.0843C32.9094 10.2206 32.7333 10.4039 32.6026 10.634C32.4747 10.8641 32.4122 11.1212 32.4151 11.4053C32.4151 11.6922 32.4776 11.9508 32.6026 12.1809C32.7304 12.4081 32.9037 12.59 33.1225 12.7263C33.3441 12.8599 33.5969 12.9266 33.881 12.9266C34.0941 12.9266 34.2915 12.8868 34.4733 12.8073C34.6551 12.7277 34.8128 12.6184 34.9463 12.4792C35.0827 12.3371 35.1892 12.1738 35.2659 11.9891C35.3426 11.8045 35.381 11.6084 35.381 11.401C35.3782 11.1255 35.3128 10.8726 35.185 10.6425C35.0571 10.4124 34.881 10.2277 34.6566 10.0885C34.4321 9.94934 34.1793 9.87974 33.898 9.87974ZM42.0713 17.4692C41.3384 17.4664 40.7077 17.286 40.1793 16.928C39.6537 16.5701 39.2489 16.0516 38.9648 15.3726C38.6836 14.6937 38.5444 13.8769 38.5472 12.9224C38.5472 11.9706 38.6878 11.1596 38.9691 10.4891C39.2532 9.81866 39.658 9.30872 40.1836 8.95928C40.712 8.60701 41.3412 8.43087 42.0713 8.43087C42.8015 8.43087 43.4293 8.60701 43.9549 8.95928C44.4833 9.31156 44.8895 9.82292 45.1736 10.4934C45.4577 11.161 45.5983 11.9706 45.5955 12.9224C45.5955 13.8797 45.4534 14.6979 45.1694 15.3769C44.8881 16.0559 44.4847 16.5743 43.9591 16.9323C43.4336 17.2902 42.8043 17.4692 42.0713 17.4692ZM42.0713 15.9394C42.5713 15.9394 42.9705 15.688 43.2688 15.1851C43.5671 14.6823 43.7148 13.928 43.712 12.9224C43.712 12.2604 43.6438 11.7093 43.5074 11.2689C43.3739 10.8286 43.1836 10.4976 42.9364 10.276C42.6921 10.0545 42.4037 9.94366 42.0713 9.94366C41.5742 9.94366 41.1765 10.1922 40.8782 10.6894C40.5799 11.1866 40.4293 11.9309 40.4265 12.9224C40.4265 13.5928 40.4932 14.1525 40.6267 14.6013C40.7631 15.0474 40.9549 15.3826 41.202 15.607C41.4492 15.8286 41.739 15.9394 42.0713 15.9394ZM50.3331 17.4692C49.6001 17.4664 48.9694 17.286 48.441 16.928C47.9154 16.5701 47.5106 16.0516 47.2265 15.3726C46.9453 14.6937 46.8061 13.8769 46.8089 12.9224C46.8089 11.9706 46.9495 11.1596 47.2308 10.4891C47.5149 9.81866 47.9197 9.30872 48.4453 8.95928C48.9737 8.60701 49.6029 8.43087 50.3331 8.43087C51.0632 8.43087 51.691 8.60701 52.2166 8.95928C52.745 9.31156 53.1512 9.82292 53.4353 10.4934C53.7194 11.161 53.86 11.9706 53.8572 12.9224C53.8572 13.8797 53.7152 14.6979 53.4311 15.3769C53.1498 16.0559 52.7464 16.5743 52.2208 16.9323C51.6953 17.2902 51.066 17.4692 50.3331 17.4692ZM50.3331 15.9394C50.8331 15.9394 51.2322 15.688 51.5305 15.1851C51.8288 14.6823 51.9765 13.928 51.9737 12.9224C51.9737 12.2604 51.9055 11.7093 51.7691 11.2689C51.6356 10.8286 51.4453 10.4976 51.1981 10.276C50.9538 10.0545 50.6654 9.94366 50.3331 9.94366C49.8359 9.94366 49.4382 10.1922 49.1399 10.6894C48.8416 11.1866 48.691 11.9309 48.6882 12.9224C48.6882 13.5928 48.7549 14.1525 48.8885 14.6013C49.0248 15.0474 49.2166 15.3826 49.4637 15.607C49.7109 15.8286 50.0007 15.9394 50.3331 15.9394ZM57.669 10.0715V8.55019H64.8366V10.0715H62.1647V17.2775H60.3409V10.0715H57.669Z" fill="#4D4D4D"/>
<path d="M32.2816 27.0356C31.9179 27.0356 31.5969 26.9438 31.3185 26.76C31.0401 26.5744 30.8223 26.3131 30.6651 25.976C30.5079 25.6369 30.4293 25.2364 30.4293 24.7742C30.4293 24.3159 30.5079 23.9182 30.6651 23.5811C30.8223 23.2439 31.041 22.9835 31.3213 22.7998C31.6016 22.6161 31.9255 22.5242 32.2929 22.5242C32.577 22.5242 32.8015 22.5716 32.9662 22.6663C33.1329 22.7591 33.2598 22.8652 33.3469 22.9845C33.4359 23.1019 33.5051 23.1985 33.5543 23.2742H33.6111V21.1265H34.2816V26.9447H33.6338V26.2742H33.5543C33.5051 26.3538 33.435 26.4542 33.3441 26.5754C33.2532 26.6947 33.1234 26.8017 32.9549 26.8964C32.7863 26.9892 32.5619 27.0356 32.2816 27.0356ZM32.3725 26.4333C32.6414 26.4333 32.8687 26.3633 33.0543 26.2231C33.2399 26.0811 33.381 25.885 33.4776 25.635C33.5742 25.3831 33.6225 25.0924 33.6225 24.7629C33.6225 24.4371 33.5751 24.1521 33.4804 23.9078C33.3857 23.6616 33.2456 23.4703 33.06 23.3339C32.8744 23.1956 32.6452 23.1265 32.3725 23.1265C32.0884 23.1265 31.8516 23.1994 31.6622 23.3453C31.4747 23.4892 31.3336 23.6852 31.239 23.9333C31.1461 24.1796 31.0997 24.4561 31.0997 24.7629C31.0997 25.0735 31.1471 25.3557 31.2418 25.6095C31.3384 25.8614 31.4804 26.0621 31.6679 26.2117C31.8573 26.3595 32.0922 26.4333 32.3725 26.4333ZM37.4321 27.0356C37.0117 27.0356 36.649 26.9428 36.3441 26.7572C36.041 26.5697 35.8071 26.3083 35.6424 25.9731C35.4795 25.636 35.398 25.2439 35.398 24.797C35.398 24.35 35.4795 23.9561 35.6424 23.6152C35.8071 23.2724 36.0363 23.0053 36.3299 22.814C36.6253 22.6208 36.97 22.5242 37.364 22.5242C37.5912 22.5242 37.8157 22.5621 38.0372 22.6379C38.2588 22.7136 38.4605 22.8367 38.6424 23.0072C38.8242 23.1758 38.9691 23.3992 39.077 23.6777C39.185 23.9561 39.239 24.2989 39.239 24.7061V24.9902H35.8753V24.4106H38.5571C38.5571 24.1644 38.5079 23.9447 38.4094 23.7515C38.3128 23.5583 38.1746 23.4059 37.9946 23.2941C37.8166 23.1824 37.6064 23.1265 37.364 23.1265C37.0969 23.1265 36.8658 23.1928 36.6708 23.3254C36.4776 23.4561 36.3289 23.6265 36.2247 23.8367C36.1206 24.047 36.0685 24.2724 36.0685 24.5129V24.8992C36.0685 25.2288 36.1253 25.5081 36.239 25.7373C36.3545 25.9646 36.5145 26.1379 36.7191 26.2572C36.9236 26.3746 37.1613 26.4333 37.4321 26.4333C37.6083 26.4333 37.7674 26.4087 37.9094 26.3595C38.0533 26.3083 38.1774 26.2326 38.2816 26.1322C38.3857 26.0299 38.4662 25.903 38.523 25.7515L39.1708 25.9333C39.1026 26.153 38.988 26.3462 38.827 26.5129C38.666 26.6777 38.4672 26.8064 38.2304 26.8992C37.9937 26.9902 37.7276 27.0356 37.4321 27.0356ZM42.5088 26.9447V22.5811H43.1566V23.2402H43.202C43.2816 23.0242 43.4255 22.8491 43.6338 22.7146C43.8422 22.5801 44.077 22.5129 44.3384 22.5129C44.3876 22.5129 44.4492 22.5138 44.523 22.5157C44.5969 22.5176 44.6528 22.5205 44.6907 22.5242V23.2061C44.6679 23.2004 44.6158 23.1919 44.5344 23.1805C44.4549 23.1672 44.3706 23.1606 44.2816 23.1606C44.0694 23.1606 43.8801 23.2051 43.7134 23.2941C43.5486 23.3813 43.4179 23.5025 43.3213 23.6578C43.2266 23.8112 43.1793 23.9864 43.1793 24.1833V26.9447H42.5088ZM47.1821 27.0356C46.7617 27.0356 46.399 26.9428 46.0941 26.7572C45.791 26.5697 45.5571 26.3083 45.3924 25.9731C45.2295 25.636 45.148 25.2439 45.148 24.797C45.148 24.35 45.2295 23.9561 45.3924 23.6152C45.5571 23.2724 45.7863 23.0053 46.0799 22.814C46.3753 22.6208 46.72 22.5242 47.114 22.5242C47.3412 22.5242 47.5657 22.5621 47.7872 22.6379C48.0088 22.7136 48.2105 22.8367 48.3924 23.0072C48.5742 23.1758 48.7191 23.3992 48.827 23.6777C48.935 23.9561 48.989 24.2989 48.989 24.7061V24.9902H45.6253V24.4106H48.3071C48.3071 24.1644 48.2579 23.9447 48.1594 23.7515C48.0628 23.5583 47.9246 23.4059 47.7446 23.2941C47.5666 23.1824 47.3564 23.1265 47.114 23.1265C46.8469 23.1265 46.6158 23.1928 46.4208 23.3254C46.2276 23.4561 46.0789 23.6265 45.9747 23.8367C45.8706 24.047 45.8185 24.2724 45.8185 24.5129V24.8992C45.8185 25.2288 45.8753 25.5081 45.989 25.7373C46.1045 25.9646 46.2645 26.1379 46.4691 26.2572C46.6736 26.3746 46.9113 26.4333 47.1821 26.4333C47.3583 26.4333 47.5174 26.4087 47.6594 26.3595C47.8033 26.3083 47.9274 26.2326 48.0316 26.1322C48.1357 26.0299 48.2162 25.903 48.273 25.7515L48.9208 25.9333C48.8526 26.153 48.738 26.3462 48.577 26.5129C48.416 26.6777 48.2172 26.8064 47.9804 26.8992C47.7437 26.9902 47.4776 27.0356 47.1821 27.0356ZM53.0997 23.5583L52.4975 23.7288C52.4596 23.6284 52.4037 23.5309 52.3299 23.4362C52.2579 23.3396 52.1594 23.26 52.0344 23.1975C51.9094 23.135 51.7494 23.1038 51.5543 23.1038C51.2872 23.1038 51.0647 23.1653 50.8867 23.2885C50.7105 23.4097 50.6225 23.564 50.6225 23.7515C50.6225 23.9182 50.6831 24.0498 50.8043 24.1464C50.9255 24.243 51.1149 24.3235 51.3725 24.3879L52.0202 24.547C52.4104 24.6417 52.7011 24.7866 52.8924 24.9816C53.0836 25.1748 53.1793 25.4239 53.1793 25.7288C53.1793 25.9788 53.1073 26.2023 52.9634 26.3992C52.8213 26.5962 52.6225 26.7515 52.3668 26.8652C52.1111 26.9788 51.8138 27.0356 51.4747 27.0356C51.0297 27.0356 50.6613 26.939 50.3696 26.7458C50.078 26.5527 49.8933 26.2705 49.8157 25.8992L50.452 25.7402C50.5126 25.975 50.6272 26.1511 50.7958 26.2686C50.9662 26.386 51.1888 26.4447 51.4634 26.4447C51.7759 26.4447 52.024 26.3784 52.2077 26.2458C52.3933 26.1114 52.4861 25.9504 52.4861 25.7629C52.4861 25.6114 52.4331 25.4845 52.327 25.3822C52.221 25.278 52.0581 25.2004 51.8384 25.1492L51.1111 24.9788C50.7115 24.8841 50.4179 24.7373 50.2304 24.5385C50.0448 24.3377 49.952 24.0867 49.952 23.7856C49.952 23.5394 50.0211 23.3216 50.1594 23.1322C50.2996 22.9428 50.4899 22.7941 50.7304 22.6862C50.9729 22.5782 51.2475 22.5242 51.5543 22.5242C51.9861 22.5242 52.3251 22.6189 52.5713 22.8083C52.8194 22.9977 52.9956 23.2477 53.0997 23.5583ZM54.1885 26.9447V22.5811H54.859V26.9447H54.1885ZM54.2226 21.9902L54.9158 20.672H55.6999L54.8135 21.9902H54.2226ZM57.7347 27.0356C57.3711 27.0356 57.05 26.9438 56.7716 26.76C56.4932 26.5744 56.2754 26.3131 56.1182 25.976C55.961 25.6369 55.8824 25.2364 55.8824 24.7742C55.8824 24.3159 55.961 23.9182 56.1182 23.5811C56.2754 23.2439 56.4942 22.9835 56.7745 22.7998C57.0548 22.6161 57.3786 22.5242 57.7461 22.5242C58.0301 22.5242 58.2546 22.5716 58.4194 22.6663C58.586 22.7591 58.7129 22.8652 58.8 22.9845C58.889 23.1019 58.9582 23.1985 59.0074 23.2742H59.0642V21.1265H59.7347V26.9447H59.087V26.2742H59.0074C58.9582 26.3538 58.8881 26.4542 58.7972 26.5754C58.7063 26.6947 58.5765 26.8017 58.408 26.8964C58.2394 26.9892 58.015 27.0356 57.7347 27.0356ZM57.8256 26.4333C58.0945 26.4333 58.3218 26.3633 58.5074 26.2231C58.693 26.0811 58.8341 25.885 58.9307 25.635C59.0273 25.3831 59.0756 25.0924 59.0756 24.7629C59.0756 24.4371 59.0283 24.1521 58.9336 23.9078C58.8389 23.6616 58.6987 23.4703 58.5131 23.3339C58.3275 23.1956 58.0983 23.1265 57.8256 23.1265C57.5415 23.1265 57.3048 23.1994 57.1154 23.3453C56.9279 23.4892 56.7868 23.6852 56.6921 23.9333C56.5993 24.1796 56.5529 24.4561 56.5529 24.7629C56.5529 25.0735 56.6002 25.3557 56.6949 25.6095C56.7915 25.8614 56.9336 26.0621 57.1211 26.2117C57.3104 26.3595 57.5453 26.4333 57.8256 26.4333ZM63.8057 25.1606V22.5811H64.4762V26.9447H63.8057V26.2061H63.7603C63.658 26.4277 63.4989 26.6161 63.283 26.7714C63.0671 26.9248 62.7944 27.0015 62.4648 27.0015C62.1921 27.0015 61.9497 26.9419 61.7375 26.8225C61.5254 26.7013 61.3587 26.5195 61.2375 26.2771C61.1163 26.0328 61.0557 25.725 61.0557 25.3538V22.5811H61.7262V25.3083C61.7262 25.6265 61.8152 25.8803 61.9932 26.0697C62.1731 26.2591 62.4023 26.3538 62.6807 26.3538C62.8474 26.3538 63.0169 26.3112 63.1892 26.226C63.3635 26.1407 63.5093 26.01 63.6267 25.8339C63.7461 25.6578 63.8057 25.4333 63.8057 25.1606ZM67.4769 27.0356C67.0829 27.0356 66.7373 26.9419 66.4399 26.7544C66.1445 26.5669 65.9134 26.3046 65.7468 25.9674C65.582 25.6303 65.4996 25.2364 65.4996 24.7856C65.4996 24.3311 65.582 23.9343 65.7468 23.5953C65.9134 23.2563 66.1445 22.993 66.4399 22.8055C66.7373 22.618 67.0829 22.5242 67.4769 22.5242C67.8708 22.5242 68.2155 22.618 68.511 22.8055C68.8083 22.993 69.0394 23.2563 69.2042 23.5953C69.3708 23.9343 69.4542 24.3311 69.4542 24.7856C69.4542 25.2364 69.3708 25.6303 69.2042 25.9674C69.0394 26.3046 68.8083 26.5669 68.511 26.7544C68.2155 26.9419 67.8708 27.0356 67.4769 27.0356ZM67.4769 26.4333C67.7761 26.4333 68.0223 26.3566 68.2155 26.2032C68.4087 26.0498 68.5517 25.8481 68.6445 25.5981C68.7373 25.3481 68.7837 25.0773 68.7837 24.7856C68.7837 24.4939 68.7373 24.2222 68.6445 23.9703C68.5517 23.7184 68.4087 23.5148 68.2155 23.3595C68.0223 23.2042 67.7761 23.1265 67.4769 23.1265C67.1776 23.1265 66.9314 23.2042 66.7382 23.3595C66.5451 23.5148 66.4021 23.7184 66.3093 23.9703C66.2165 24.2222 66.1701 24.4939 66.1701 24.7856C66.1701 25.0773 66.2165 25.3481 66.3093 25.5981C66.4021 25.8481 66.5451 26.0498 66.7382 26.2032C66.9314 26.3566 67.1776 26.4333 67.4769 26.4333ZM73.5685 23.5583L72.9662 23.7288C72.9283 23.6284 72.8725 23.5309 72.7986 23.4362C72.7266 23.3396 72.6282 23.26 72.5032 23.1975C72.3782 23.135 72.2181 23.1038 72.023 23.1038C71.756 23.1038 71.5335 23.1653 71.3554 23.2885C71.1793 23.4097 71.0912 23.564 71.0912 23.7515C71.0912 23.9182 71.1518 24.0498 71.273 24.1464C71.3943 24.243 71.5836 24.3235 71.8412 24.3879L72.489 24.547C72.8791 24.6417 73.1698 24.7866 73.3611 24.9816C73.5524 25.1748 73.648 25.4239 73.648 25.7288C73.648 25.9788 73.5761 26.2023 73.4321 26.3992C73.2901 26.5962 73.0912 26.7515 72.8355 26.8652C72.5799 26.9788 72.2825 27.0356 71.9435 27.0356C71.4984 27.0356 71.1301 26.939 70.8384 26.7458C70.5467 26.5527 70.3621 26.2705 70.2844 25.8992L70.9208 25.7402C70.9814 25.975 71.096 26.1511 71.2645 26.2686C71.435 26.386 71.6575 26.4447 71.9321 26.4447C72.2446 26.4447 72.4927 26.3784 72.6765 26.2458C72.8621 26.1114 72.9549 25.9504 72.9549 25.7629C72.9549 25.6114 72.9018 25.4845 72.7958 25.3822C72.6897 25.278 72.5268 25.2004 72.3071 25.1492L71.5799 24.9788C71.1802 24.8841 70.8867 24.7373 70.6992 24.5385C70.5136 24.3377 70.4208 24.0867 70.4208 23.7856C70.4208 23.5394 70.4899 23.3216 70.6282 23.1322C70.7683 22.9428 70.9586 22.7941 71.1992 22.6862C71.4416 22.5782 71.7162 22.5242 72.023 22.5242C72.4549 22.5242 72.7939 22.6189 73.0401 22.8083C73.2882 22.9977 73.4643 23.2477 73.5685 23.5583ZM78.805 22.5811V23.1492H76.5436V22.5811H78.805ZM77.2027 21.5356H77.8732V25.6947C77.8732 25.8841 77.9006 26.0261 77.9556 26.1208C78.0124 26.2136 78.0844 26.2761 78.1715 26.3083C78.2605 26.3386 78.3542 26.3538 78.4527 26.3538C78.5266 26.3538 78.5872 26.35 78.6345 26.3424C78.6819 26.333 78.7198 26.3254 78.7482 26.3197L78.8845 26.922C78.8391 26.939 78.7756 26.9561 78.6942 26.9731C78.6128 26.9921 78.5095 27.0015 78.3845 27.0015C78.1952 27.0015 78.0095 26.9608 77.8277 26.8794C77.6478 26.7979 77.4982 26.6739 77.3789 26.5072C77.2614 26.3405 77.2027 26.1303 77.2027 25.8765V21.5356ZM81.5394 27.0356C81.1454 27.0356 80.7998 26.9419 80.5024 26.7544C80.207 26.5669 79.9759 26.3046 79.8093 25.9674C79.6445 25.6303 79.5621 25.2364 79.5621 24.7856C79.5621 24.3311 79.6445 23.9343 79.8093 23.5953C79.9759 23.2563 80.207 22.993 80.5024 22.8055C80.7998 22.618 81.1454 22.5242 81.5394 22.5242C81.9333 22.5242 82.278 22.618 82.5735 22.8055C82.8708 22.993 83.1019 23.2563 83.2667 23.5953C83.4333 23.9343 83.5167 24.3311 83.5167 24.7856C83.5167 25.2364 83.4333 25.6303 83.2667 25.9674C83.1019 26.3046 82.8708 26.5669 82.5735 26.7544C82.278 26.9419 81.9333 27.0356 81.5394 27.0356ZM81.5394 26.4333C81.8386 26.4333 82.0848 26.3566 82.278 26.2032C82.4712 26.0498 82.6142 25.8481 82.707 25.5981C82.7998 25.3481 82.8462 25.0773 82.8462 24.7856C82.8462 24.4939 82.7998 24.2222 82.707 23.9703C82.6142 23.7184 82.4712 23.5148 82.278 23.3595C82.0848 23.2042 81.8386 23.1265 81.5394 23.1265C81.2401 23.1265 80.9939 23.2042 80.8007 23.3595C80.6076 23.5148 80.4646 23.7184 80.3718 23.9703C80.279 24.2222 80.2326 24.4939 80.2326 24.7856C80.2326 25.0773 80.279 25.3481 80.3718 25.5981C80.4646 25.8481 80.6076 26.0498 80.8007 26.2032C80.9939 26.3566 81.2401 26.4333 81.5394 26.4333ZM81.2326 21.9902L81.9257 20.672H82.7098L81.8235 21.9902H81.2326ZM84.8604 22.5811L85.9059 24.3652L86.9513 22.5811H87.724L86.3149 24.7629L87.724 26.9447H86.9513L85.9059 25.2515L84.8604 26.9447H84.0877L85.474 24.7629L84.0877 22.5811H84.8604ZM88.6807 26.9447V22.5811H89.3512V26.9447H88.6807ZM89.0216 21.8538C88.8909 21.8538 88.7783 21.8093 88.6836 21.7203C88.5908 21.6313 88.5444 21.5242 88.5444 21.3992C88.5444 21.2742 88.5908 21.1672 88.6836 21.0782C88.7783 20.9892 88.8909 20.9447 89.0216 20.9447C89.1523 20.9447 89.264 20.9892 89.3569 21.0782C89.4515 21.1672 89.4989 21.2742 89.4989 21.3992C89.4989 21.5242 89.4515 21.6313 89.3569 21.7203C89.264 21.8093 89.1523 21.8538 89.0216 21.8538ZM92.3519 27.0356C91.9428 27.0356 91.5905 26.939 91.2951 26.7458C90.9996 26.5527 90.7723 26.2866 90.6132 25.9475C90.4542 25.6085 90.3746 25.2212 90.3746 24.7856C90.3746 24.3424 90.456 23.9513 90.6189 23.6123C90.7837 23.2714 91.0129 23.0053 91.3064 22.814C91.6019 22.6208 91.9466 22.5242 92.3405 22.5242C92.6473 22.5242 92.9238 22.5811 93.1701 22.6947C93.4163 22.8083 93.618 22.9674 93.7752 23.172C93.9324 23.3765 94.0299 23.6152 94.0678 23.8879H93.3973C93.3462 23.689 93.2326 23.5129 93.0564 23.3595C92.8822 23.2042 92.6473 23.1265 92.3519 23.1265C92.0905 23.1265 91.8613 23.1947 91.6644 23.3311C91.4693 23.4655 91.3168 23.6559 91.207 23.9021C91.099 24.1464 91.0451 24.4333 91.0451 24.7629C91.0451 25.1 91.0981 25.3936 91.2042 25.6436C91.3121 25.8936 91.4636 26.0877 91.6587 26.226C91.8557 26.3642 92.0867 26.4333 92.3519 26.4333C92.5261 26.4333 92.6843 26.403 92.8263 26.3424C92.9684 26.2818 93.0886 26.1947 93.1871 26.0811C93.2856 25.9674 93.3557 25.8311 93.3973 25.672H94.0678C94.0299 25.9296 93.9362 26.1616 93.7865 26.368C93.6388 26.5725 93.4428 26.7354 93.1985 26.8566C92.956 26.976 92.6738 27.0356 92.3519 27.0356ZM96.8206 27.0356C96.4267 27.0356 96.081 26.9419 95.7837 26.7544C95.4882 26.5669 95.2572 26.3046 95.0905 25.9674C94.9257 25.6303 94.8434 25.2364 94.8434 24.7856C94.8434 24.3311 94.9257 23.9343 95.0905 23.5953C95.2572 23.2563 95.4882 22.993 95.7837 22.8055C96.081 22.618 96.4267 22.5242 96.8206 22.5242C97.2146 22.5242 97.5593 22.618 97.8547 22.8055C98.1521 22.993 98.3831 23.2563 98.5479 23.5953C98.7146 23.9343 98.7979 24.3311 98.7979 24.7856C98.7979 25.2364 98.7146 25.6303 98.5479 25.9674C98.3831 26.3046 98.1521 26.5669 97.8547 26.7544C97.5593 26.9419 97.2146 27.0356 96.8206 27.0356ZM96.8206 26.4333C97.1199 26.4333 97.3661 26.3566 97.5593 26.2032C97.7524 26.0498 97.8954 25.8481 97.9882 25.5981C98.081 25.3481 98.1274 25.0773 98.1274 24.7856C98.1274 24.4939 98.081 24.2222 97.9882 23.9703C97.8954 23.7184 97.7524 23.5148 97.5593 23.3595C97.3661 23.2042 97.1199 23.1265 96.8206 23.1265C96.5214 23.1265 96.2752 23.2042 96.082 23.3595C95.8888 23.5148 95.7458 23.7184 95.653 23.9703C95.5602 24.2222 95.5138 24.4939 95.5138 24.7856C95.5138 25.0773 95.5602 25.3481 95.653 25.5981C95.7458 25.8481 95.8888 26.0498 96.082 26.2032C96.2752 26.3566 96.5214 26.4333 96.8206 26.4333ZM102.912 23.5583L102.31 23.7288C102.272 23.6284 102.216 23.5309 102.142 23.4362C102.07 23.3396 101.972 23.26 101.847 23.1975C101.722 23.135 101.562 23.1038 101.367 23.1038C101.1 23.1038 100.877 23.1653 100.699 23.2885C100.523 23.4097 100.435 23.564 100.435 23.7515C100.435 23.9182 100.496 24.0498 100.617 24.1464C100.738 24.243 100.927 24.3235 101.185 24.3879L101.833 24.547C102.223 24.6417 102.514 24.7866 102.705 24.9816C102.896 25.1748 102.992 25.4239 102.992 25.7288C102.992 25.9788 102.92 26.2023 102.776 26.3992C102.634 26.5962 102.435 26.7515 102.179 26.8652C101.924 26.9788 101.626 27.0356 101.287 27.0356C100.842 27.0356 100.474 26.939 100.182 26.7458C99.8905 26.5527 99.7058 26.2705 99.6282 25.8992L100.265 25.7402C100.325 25.975 100.44 26.1511 100.608 26.2686C100.779 26.386 101.001 26.4447 101.276 26.4447C101.588 26.4447 101.836 26.3784 102.02 26.2458C102.206 26.1114 102.299 25.9504 102.299 25.7629C102.299 25.6114 102.246 25.4845 102.14 25.3822C102.033 25.278 101.871 25.2004 101.651 25.1492L100.924 24.9788C100.524 24.8841 100.23 24.7373 100.043 24.5385C99.8573 24.3377 99.7645 24.0867 99.7645 23.7856C99.7645 23.5394 99.8336 23.3216 99.9719 23.1322C100.112 22.9428 100.302 22.7941 100.543 22.6862C100.785 22.5782 101.06 22.5242 101.367 22.5242C101.799 22.5242 102.138 22.6189 102.384 22.8083C102.632 22.9977 102.808 23.2477 102.912 23.5583ZM106.921 24.3197V26.9447H106.251V22.5811H106.899V23.2629H106.956C107.058 23.0413 107.213 22.8633 107.421 22.7288C107.63 22.5924 107.899 22.5242 108.228 22.5242C108.524 22.5242 108.782 22.5849 109.004 22.7061C109.225 22.8254 109.398 23.0072 109.521 23.2515C109.644 23.4939 109.706 23.8008 109.706 24.172V26.9447H109.035V24.2174C109.035 23.8746 108.946 23.6076 108.768 23.4163C108.59 23.2231 108.346 23.1265 108.035 23.1265C107.821 23.1265 107.63 23.1729 107.461 23.2657C107.295 23.3585 107.163 23.4939 107.066 23.672C106.97 23.85 106.921 24.0659 106.921 24.3197ZM112.703 27.0356C112.31 27.0356 111.964 26.9419 111.667 26.7544C111.371 26.5669 111.14 26.3046 110.973 25.9674C110.809 25.6303 110.726 25.2364 110.726 24.7856C110.726 24.3311 110.809 23.9343 110.973 23.5953C111.14 23.2563 111.371 22.993 111.667 22.8055C111.964 22.618 112.31 22.5242 112.703 22.5242C113.097 22.5242 113.442 22.618 113.738 22.8055C114.035 22.993 114.266 23.2563 114.431 23.5953C114.597 23.9343 114.681 24.3311 114.681 24.7856C114.681 25.2364 114.597 25.6303 114.431 25.9674C114.266 26.3046 114.035 26.5669 113.738 26.7544C113.442 26.9419 113.097 27.0356 112.703 27.0356ZM112.703 26.4333C113.003 26.4333 113.249 26.3566 113.442 26.2032C113.635 26.0498 113.778 25.8481 113.871 25.5981C113.964 25.3481 114.01 25.0773 114.01 24.7856C114.01 24.4939 113.964 24.2222 113.871 23.9703C113.778 23.7184 113.635 23.5148 113.442 23.3595C113.249 23.2042 113.003 23.1265 112.703 23.1265C112.404 23.1265 112.158 23.2042 111.965 23.3595C111.772 23.5148 111.629 23.7184 111.536 23.9703C111.443 24.2222 111.397 24.4939 111.397 24.7856C111.397 25.0773 111.443 25.3481 111.536 25.5981C111.629 25.8481 111.772 26.0498 111.965 26.2032C112.158 26.3566 112.404 26.4333 112.703 26.4333ZM121.045 23.5583L120.443 23.7288C120.405 23.6284 120.349 23.5309 120.275 23.4362C120.203 23.3396 120.105 23.26 119.98 23.1975C119.855 23.135 119.695 23.1038 119.5 23.1038C119.233 23.1038 119.01 23.1653 118.832 23.2885C118.656 23.4097 118.568 23.564 118.568 23.7515C118.568 23.9182 118.628 24.0498 118.75 24.1464C118.871 24.243 119.06 24.3235 119.318 24.3879L119.966 24.547C120.356 24.6417 120.646 24.7866 120.838 24.9816C121.029 25.1748 121.125 25.4239 121.125 25.7288C121.125 25.9788 121.053 26.2023 120.909 26.3992C120.767 26.5962 120.568 26.7515 120.312 26.8652C120.056 26.9788 119.759 27.0356 119.42 27.0356C118.975 27.0356 118.607 26.939 118.315 26.7458C118.023 26.5527 117.839 26.2705 117.761 25.8992L118.397 25.7402C118.458 25.975 118.573 26.1511 118.741 26.2686C118.912 26.386 119.134 26.4447 119.409 26.4447C119.721 26.4447 119.969 26.3784 120.153 26.2458C120.339 26.1114 120.431 25.9504 120.431 25.7629C120.431 25.6114 120.378 25.4845 120.272 25.3822C120.166 25.278 120.003 25.2004 119.784 25.1492L119.056 24.9788C118.657 24.8841 118.363 24.7373 118.176 24.5385C117.99 24.3377 117.897 24.0867 117.897 23.7856C117.897 23.5394 117.966 23.3216 118.105 23.1322C118.245 22.9428 118.435 22.7941 118.676 22.6862C118.918 22.5782 119.193 22.5242 119.5 22.5242C119.931 22.5242 120.27 22.6189 120.517 22.8083C120.765 22.9977 120.941 23.2477 121.045 23.5583ZM123.907 27.0356C123.513 27.0356 123.167 26.9419 122.87 26.7544C122.574 26.5669 122.343 26.3046 122.176 25.9674C122.012 25.6303 121.929 25.2364 121.929 24.7856C121.929 24.3311 122.012 23.9343 122.176 23.5953C122.343 23.2563 122.574 22.993 122.87 22.8055C123.167 22.618 123.513 22.5242 123.907 22.5242C124.301 22.5242 124.645 22.618 124.941 22.8055C125.238 22.993 125.469 23.2563 125.634 23.5953C125.801 23.9343 125.884 24.3311 125.884 24.7856C125.884 25.2364 125.801 25.6303 125.634 25.9674C125.469 26.3046 125.238 26.5669 124.941 26.7544C124.645 26.9419 124.301 27.0356 123.907 27.0356ZM123.907 26.4333C124.206 26.4333 124.452 26.3566 124.645 26.2032C124.838 26.0498 124.981 25.8481 125.074 25.5981C125.167 25.3481 125.213 25.0773 125.213 24.7856C125.213 24.4939 125.167 24.2222 125.074 23.9703C124.981 23.7184 124.838 23.5148 124.645 23.3595C124.452 23.2042 124.206 23.1265 123.907 23.1265C123.607 23.1265 123.361 23.2042 123.168 23.3595C122.975 23.5148 122.832 23.7184 122.739 23.9703C122.646 24.2222 122.6 24.4939 122.6 24.7856C122.6 25.0773 122.646 25.3481 122.739 25.5981C122.832 25.8481 122.975 26.0498 123.168 26.2032C123.361 26.3566 123.607 26.4333 123.907 26.4333ZM127.578 21.1265V26.9447H126.907V21.1265H127.578ZM130.578 27.0356C130.185 27.0356 129.839 26.9419 129.542 26.7544C129.246 26.5669 129.015 26.3046 128.848 25.9674C128.684 25.6303 128.601 25.2364 128.601 24.7856C128.601 24.3311 128.684 23.9343 128.848 23.5953C129.015 23.2563 129.246 22.993 129.542 22.8055C129.839 22.618 130.185 22.5242 130.578 22.5242C130.972 22.5242 131.317 22.618 131.613 22.8055C131.91 22.993 132.141 23.2563 132.306 23.5953C132.472 23.9343 132.556 24.3311 132.556 24.7856C132.556 25.2364 132.472 25.6303 132.306 25.9674C132.141 26.3046 131.91 26.5669 131.613 26.7544C131.317 26.9419 130.972 27.0356 130.578 27.0356ZM130.578 26.4333C130.878 26.4333 131.124 26.3566 131.317 26.2032C131.51 26.0498 131.653 25.8481 131.746 25.5981C131.839 25.3481 131.885 25.0773 131.885 24.7856C131.885 24.4939 131.839 24.2222 131.746 23.9703C131.653 23.7184 131.51 23.5148 131.317 23.3595C131.124 23.2042 130.878 23.1265 130.578 23.1265C130.279 23.1265 130.033 23.2042 129.84 23.3595C129.647 23.5148 129.504 23.7184 129.411 23.9703C129.318 24.2222 129.272 24.4939 129.272 24.7856C129.272 25.0773 129.318 25.3481 129.411 25.5981C129.504 25.8481 129.647 26.0498 129.84 26.2032C130.033 26.3566 130.279 26.4333 130.578 26.4333ZM137.659 27.0356C137.238 27.0356 136.876 26.9428 136.571 26.7572C136.268 26.5697 136.034 26.3083 135.869 25.9731C135.706 25.636 135.625 25.2439 135.625 24.797C135.625 24.35 135.706 23.9561 135.869 23.6152C136.034 23.2724 136.263 23.0053 136.556 22.814C136.852 22.6208 137.197 22.5242 137.591 22.5242C137.818 22.5242 138.042 22.5621 138.264 22.6379C138.485 22.7136 138.687 22.8367 138.869 23.0072C139.051 23.1758 139.196 23.3992 139.304 23.6777C139.412 23.9561 139.466 24.2989 139.466 24.7061V24.9902H136.102V24.4106H138.784C138.784 24.1644 138.734 23.9447 138.636 23.7515C138.539 23.5583 138.401 23.4059 138.221 23.2941C138.043 23.1824 137.833 23.1265 137.591 23.1265C137.323 23.1265 137.092 23.1928 136.897 23.3254C136.704 23.4561 136.555 23.6265 136.451 23.8367C136.347 24.047 136.295 24.2724 136.295 24.5129V24.8992C136.295 25.2288 136.352 25.5081 136.466 25.7373C136.581 25.9646 136.741 26.1379 136.946 26.2572C137.15 26.3746 137.388 26.4333 137.659 26.4333C137.835 26.4333 137.994 26.4087 138.136 26.3595C138.28 26.3083 138.404 26.2326 138.508 26.1322C138.612 26.0299 138.693 25.903 138.75 25.7515L139.397 25.9333C139.329 26.153 139.215 26.3462 139.054 26.5129C138.893 26.6777 138.694 26.8064 138.457 26.8992C138.22 26.9902 137.954 27.0356 137.659 27.0356ZM143.406 24.3197V26.9447H142.735V22.5811H143.383V23.2629H143.44C143.542 23.0413 143.698 22.8633 143.906 22.7288C144.114 22.5924 144.383 22.5242 144.713 22.5242C145.008 22.5242 145.267 22.5849 145.488 22.7061C145.71 22.8254 145.882 23.0072 146.005 23.2515C146.128 23.4939 146.19 23.8008 146.19 24.172V26.9447H145.519V24.2174C145.519 23.8746 145.43 23.6076 145.252 23.4163C145.074 23.2231 144.83 23.1265 144.519 23.1265C144.305 23.1265 144.114 23.1729 143.946 23.2657C143.779 23.3585 143.647 23.4939 143.551 23.672C143.454 23.85 143.406 24.0659 143.406 24.3197ZM148.699 27.047C148.423 27.047 148.172 26.9949 147.946 26.8907C147.721 26.7847 147.542 26.6322 147.409 26.4333C147.277 26.2326 147.211 25.9902 147.211 25.7061C147.211 25.4561 147.26 25.2534 147.358 25.0981C147.457 24.9409 147.588 24.8178 147.753 24.7288C147.918 24.6398 148.1 24.5735 148.299 24.5299C148.499 24.4845 148.701 24.4485 148.904 24.422C149.169 24.3879 149.384 24.3623 149.549 24.3453C149.715 24.3263 149.836 24.2951 149.912 24.2515C149.99 24.208 150.029 24.1322 150.029 24.0242V24.0015C150.029 23.7212 149.952 23.5034 149.799 23.3481C149.647 23.1928 149.417 23.1152 149.108 23.1152C148.788 23.1152 148.537 23.1852 148.355 23.3254C148.174 23.4655 148.046 23.6152 147.972 23.7742L147.336 23.547C147.449 23.2818 147.601 23.0754 147.79 22.9277C147.981 22.778 148.19 22.6739 148.415 22.6152C148.642 22.5546 148.866 22.5242 149.086 22.5242C149.226 22.5242 149.387 22.5413 149.568 22.5754C149.752 22.6076 149.929 22.6748 150.1 22.7771C150.272 22.8794 150.415 23.0337 150.529 23.2402C150.642 23.4466 150.699 23.7231 150.699 24.0697V26.9447H150.029V26.3538H149.995C149.949 26.4485 149.873 26.5498 149.767 26.6578C149.661 26.7657 149.52 26.8576 149.344 26.9333C149.168 27.0091 148.953 27.047 148.699 27.047ZM148.801 26.4447C149.067 26.4447 149.29 26.3926 149.472 26.2885C149.656 26.1843 149.794 26.0498 149.887 25.885C149.981 25.7203 150.029 25.547 150.029 25.3652V24.7515C150 24.7856 149.938 24.8169 149.841 24.8453C149.747 24.8718 149.637 24.8955 149.512 24.9163C149.389 24.9352 149.268 24.9523 149.151 24.9674C149.035 24.9807 148.942 24.9921 148.87 25.0015C148.695 25.0242 148.533 25.0612 148.381 25.1123C148.231 25.1616 148.11 25.2364 148.017 25.3367C147.926 25.4352 147.881 25.5697 147.881 25.7402C147.881 25.9731 147.967 26.1492 148.14 26.2686C148.314 26.386 148.534 26.4447 148.801 26.4447ZM31.9179 35.047C31.6414 35.047 31.3905 34.9949 31.1651 34.8907C30.9397 34.7847 30.7607 34.6322 30.6282 34.4333C30.4956 34.2326 30.4293 33.9902 30.4293 33.7061C30.4293 33.4561 30.4785 33.2534 30.577 33.0981C30.6755 32.9409 30.8071 32.8178 30.9719 32.7288C31.1367 32.6398 31.3185 32.5735 31.5174 32.5299C31.7181 32.4845 31.9198 32.4485 32.1225 32.422C32.3876 32.3879 32.6026 32.3623 32.7674 32.3453C32.934 32.3263 33.0552 32.2951 33.131 32.2515C33.2086 32.208 33.2475 32.1322 33.2475 32.0242V32.0015C33.2475 31.7212 33.1708 31.5034 33.0174 31.3481C32.8658 31.1928 32.6357 31.1152 32.327 31.1152C32.0069 31.1152 31.756 31.1852 31.5742 31.3254C31.3924 31.4655 31.2645 31.6152 31.1907 31.7742L30.5543 31.547C30.6679 31.2818 30.8194 31.0754 31.0088 30.9277C31.2001 30.778 31.4085 30.6739 31.6338 30.6152C31.8611 30.5546 32.0846 30.5242 32.3043 30.5242C32.4444 30.5242 32.6054 30.5413 32.7872 30.5754C32.971 30.6076 33.148 30.6748 33.3185 30.7771C33.4908 30.8794 33.6338 31.0337 33.7475 31.2402C33.8611 31.4466 33.9179 31.7231 33.9179 32.0697V34.9447H33.2475V34.3538H33.2134C33.1679 34.4485 33.0922 34.5498 32.9861 34.6578C32.8801 34.7657 32.739 34.8576 32.5628 34.9333C32.3867 35.0091 32.1717 35.047 31.9179 35.047ZM32.0202 34.4447C32.2854 34.4447 32.5088 34.3926 32.6907 34.2885C32.8744 34.1843 33.0126 34.0498 33.1054 33.885C33.2001 33.7203 33.2475 33.547 33.2475 33.3652V32.7515C33.2191 32.7856 33.1566 32.8169 33.06 32.8453C32.9653 32.8718 32.8554 32.8955 32.7304 32.9163C32.6073 32.9352 32.4871 32.9523 32.3696 32.9674C32.2541 32.9807 32.1604 32.9921 32.0884 33.0015C31.9141 33.0242 31.7513 33.0612 31.5997 33.1123C31.4501 33.1616 31.3289 33.2364 31.2361 33.3367C31.1452 33.4352 31.0997 33.5697 31.0997 33.7402C31.0997 33.9731 31.1859 34.1492 31.3583 34.2686C31.5325 34.386 31.7532 34.4447 32.0202 34.4447ZM32.0429 29.9902L32.7361 28.672H33.5202L32.6338 29.9902H32.0429ZM36.903 36.672C36.5792 36.672 36.3007 36.6303 36.0678 36.547C35.8348 36.4655 35.6407 36.3576 35.4854 36.2231C35.332 36.0905 35.2098 35.9485 35.1189 35.797L35.653 35.422C35.7136 35.5015 35.7903 35.5924 35.8831 35.6947C35.9759 35.7989 36.1028 35.8888 36.2638 35.9646C36.4267 36.0422 36.6398 36.0811 36.903 36.0811C37.2553 36.0811 37.546 35.9958 37.7752 35.8254C38.0043 35.6549 38.1189 35.3879 38.1189 35.0242V34.1379H38.0621C38.0129 34.2174 37.9428 34.3159 37.8519 34.4333C37.7629 34.5489 37.6341 34.6521 37.4655 34.743C37.2988 34.832 37.0735 34.8765 36.7894 34.8765C36.4371 34.8765 36.1208 34.7932 35.8405 34.6265C35.5621 34.4599 35.3415 34.2174 35.1786 33.8992C35.0176 33.5811 34.9371 33.1947 34.9371 32.7402C34.9371 32.2932 35.0157 31.904 35.1729 31.5725C35.3301 31.2392 35.5488 30.9816 35.8292 30.7998C36.1095 30.6161 36.4333 30.5242 36.8007 30.5242C37.0848 30.5242 37.3102 30.5716 37.4769 30.6663C37.6454 30.7591 37.7742 30.8652 37.8632 30.9845C37.9542 31.1019 38.0242 31.1985 38.0735 31.2742H38.1417V30.5811H38.7894V35.0697C38.7894 35.4447 38.7042 35.7496 38.5337 35.9845C38.3651 36.2212 38.1379 36.3945 37.8519 36.5044C37.5678 36.6161 37.2515 36.672 36.903 36.672ZM36.8803 34.2742C37.1492 34.2742 37.3765 34.2127 37.5621 34.0896C37.7477 33.9665 37.8888 33.7894 37.9854 33.5583C38.082 33.3273 38.1303 33.0508 38.1303 32.7288C38.1303 32.4144 38.0829 32.1369 37.9882 31.8964C37.8935 31.6559 37.7534 31.4674 37.5678 31.3311C37.3822 31.1947 37.153 31.1265 36.8803 31.1265C36.5962 31.1265 36.3595 31.1985 36.1701 31.3424C35.9826 31.4864 35.8415 31.6796 35.7468 31.922C35.654 32.1644 35.6076 32.4333 35.6076 32.7288C35.6076 33.0318 35.6549 33.2998 35.7496 33.5328C35.8462 33.7638 35.9882 33.9456 36.1757 34.0782C36.3651 34.2089 36.6 34.2742 36.8803 34.2742ZM42.7667 33.1606V30.5811H43.4371V34.9447H42.7667V34.2061H42.7212C42.6189 34.4277 42.4598 34.6161 42.2439 34.7714C42.028 34.9248 41.7553 35.0015 41.4257 35.0015C41.153 35.0015 40.9106 34.9419 40.6985 34.8225C40.4863 34.7013 40.3197 34.5195 40.1985 34.2771C40.0773 34.0328 40.0167 33.725 40.0167 33.3538V30.5811H40.6871V33.3083C40.6871 33.6265 40.7761 33.8803 40.9542 34.0697C41.1341 34.2591 41.3632 34.3538 41.6417 34.3538C41.8083 34.3538 41.9778 34.3112 42.1502 34.226C42.3244 34.1407 42.4703 34.01 42.5877 33.8339C42.707 33.6578 42.7667 33.4333 42.7667 33.1606ZM45.9492 35.047C45.6727 35.047 45.4217 34.9949 45.1963 34.8907C44.971 34.7847 44.792 34.6322 44.6594 34.4333C44.5268 34.2326 44.4605 33.9902 44.4605 33.7061C44.4605 33.4561 44.5098 33.2534 44.6083 33.0981C44.7068 32.9409 44.8384 32.8178 45.0032 32.7288C45.1679 32.6398 45.3497 32.5735 45.5486 32.5299C45.7494 32.4845 45.9511 32.4485 46.1537 32.422C46.4189 32.3879 46.6338 32.3623 46.7986 32.3453C46.9653 32.3263 47.0865 32.2951 47.1622 32.2515C47.2399 32.208 47.2787 32.1322 47.2787 32.0242V32.0015C47.2787 31.7212 47.202 31.5034 47.0486 31.3481C46.8971 31.1928 46.667 31.1152 46.3583 31.1152C46.0382 31.1152 45.7872 31.1852 45.6054 31.3254C45.4236 31.4655 45.2958 31.6152 45.2219 31.7742L44.5855 31.547C44.6992 31.2818 44.8507 31.0754 45.0401 30.9277C45.2314 30.778 45.4397 30.6739 45.6651 30.6152C45.8924 30.5546 46.1158 30.5242 46.3355 30.5242C46.4757 30.5242 46.6367 30.5413 46.8185 30.5754C47.0022 30.6076 47.1793 30.6748 47.3497 30.7771C47.5221 30.8794 47.6651 31.0337 47.7787 31.2402C47.8924 31.4466 47.9492 31.7231 47.9492 32.0697V34.9447H47.2787V34.3538H47.2446C47.1992 34.4485 47.1234 34.5498 47.0174 34.6578C46.9113 34.7657 46.7702 34.8576 46.5941 34.9333C46.4179 35.0091 46.203 35.047 45.9492 35.047ZM46.0515 34.4447C46.3166 34.4447 46.5401 34.3926 46.7219 34.2885C46.9056 34.1843 47.0439 34.0498 47.1367 33.885C47.2314 33.7203 47.2787 33.547 47.2787 33.3652V32.7515C47.2503 32.7856 47.1878 32.8169 47.0912 32.8453C46.9965 32.8718 46.8867 32.8955 46.7617 32.9163C46.6386 32.9352 46.5183 32.9523 46.4009 32.9674C46.2854 32.9807 46.1916 32.9921 46.1196 33.0015C45.9454 33.0242 45.7825 33.0612 45.631 33.1123C45.4814 33.1616 45.3602 33.2364 45.2674 33.3367C45.1765 33.4352 45.131 33.5697 45.131 33.7402C45.131 33.9731 45.2172 34.1492 45.3895 34.2686C45.5638 34.386 45.7844 34.4447 46.0515 34.4447ZM51.4229 36.5811V30.5811H52.0706V31.2742H52.1502C52.1994 31.1985 52.2676 31.1019 52.3547 30.9845C52.4437 30.8652 52.5706 30.7591 52.7354 30.6663C52.9021 30.5716 53.1274 30.5242 53.4115 30.5242C53.779 30.5242 54.1028 30.6161 54.3831 30.7998C54.6634 30.9835 54.8822 31.2439 55.0394 31.5811C55.1966 31.9182 55.2752 32.3159 55.2752 32.7742C55.2752 33.2364 55.1966 33.6369 55.0394 33.976C54.8822 34.3131 54.6644 34.5744 54.386 34.76C54.1076 34.9438 53.7865 35.0356 53.4229 35.0356C53.1426 35.0356 52.9182 34.9892 52.7496 34.8964C52.581 34.8017 52.4513 34.6947 52.3604 34.5754C52.2695 34.4542 52.1994 34.3538 52.1502 34.2742H52.0934V36.5811H51.4229ZM52.082 32.7629C52.082 33.0924 52.1303 33.3831 52.2269 33.635C52.3235 33.885 52.4646 34.0811 52.6502 34.2231C52.8358 34.3633 53.0631 34.4333 53.332 34.4333C53.6123 34.4333 53.8462 34.3595 54.0337 34.2117C54.2231 34.0621 54.3651 33.8614 54.4598 33.6095C54.5564 33.3557 54.6047 33.0735 54.6047 32.7629C54.6047 32.4561 54.5574 32.1796 54.4627 31.9333C54.3699 31.6852 54.2288 31.4892 54.0394 31.3453C53.8519 31.1994 53.6161 31.1265 53.332 31.1265C53.0593 31.1265 52.8301 31.1956 52.6445 31.3339C52.4589 31.4703 52.3187 31.6616 52.224 31.9078C52.1293 32.1521 52.082 32.4371 52.082 32.7629ZM58.0706 35.0356C57.6767 35.0356 57.331 34.9419 57.0337 34.7544C56.7382 34.5669 56.5072 34.3046 56.3405 33.9674C56.1757 33.6303 56.0934 33.2364 56.0934 32.7856C56.0934 32.3311 56.1757 31.9343 56.3405 31.5953C56.5072 31.2563 56.7382 30.993 57.0337 30.8055C57.331 30.618 57.6767 30.5242 58.0706 30.5242C58.4646 30.5242 58.8093 30.618 59.1047 30.8055C59.4021 30.993 59.6331 31.2563 59.7979 31.5953C59.9646 31.9343 60.0479 32.3311 60.0479 32.7856C60.0479 33.2364 59.9646 33.6303 59.7979 33.9674C59.6331 34.3046 59.4021 34.5669 59.1047 34.7544C58.8093 34.9419 58.4646 35.0356 58.0706 35.0356ZM58.0706 34.4333C58.3699 34.4333 58.6161 34.3566 58.8093 34.2032C59.0024 34.0498 59.1454 33.8481 59.2382 33.5981C59.331 33.3481 59.3774 33.0773 59.3774 32.7856C59.3774 32.4939 59.331 32.2222 59.2382 31.9703C59.1454 31.7184 59.0024 31.5148 58.8093 31.3595C58.6161 31.2042 58.3699 31.1265 58.0706 31.1265C57.7714 31.1265 57.5252 31.2042 57.332 31.3595C57.1388 31.5148 56.9958 31.7184 56.903 31.9703C56.8102 32.2222 56.7638 32.4939 56.7638 32.7856C56.7638 33.0773 56.8102 33.3481 56.903 33.5981C56.9958 33.8481 57.1388 34.0498 57.332 34.2032C57.5252 34.3566 57.7714 34.4333 58.0706 34.4333ZM61.0713 34.9447V30.5811H61.7191V31.2402H61.7645C61.8441 31.0242 61.988 30.8491 62.1963 30.7146C62.4047 30.5801 62.6395 30.5129 62.9009 30.5129C62.9501 30.5129 63.0117 30.5138 63.0855 30.5157C63.1594 30.5176 63.2153 30.5205 63.2532 30.5242V31.2061C63.2304 31.2004 63.1783 31.1919 63.0969 31.1805C63.0174 31.1672 62.9331 31.1606 62.8441 31.1606C62.6319 31.1606 62.4426 31.2051 62.2759 31.2941C62.1111 31.3813 61.9804 31.5025 61.8838 31.6578C61.7891 31.8112 61.7418 31.9864 61.7418 32.1833V34.9447H61.0713ZM67.582 35.047C67.3055 35.047 67.0545 34.9949 66.8292 34.8907C66.6038 34.7847 66.4248 34.6322 66.2922 34.4333C66.1596 34.2326 66.0934 33.9902 66.0934 33.7061C66.0934 33.4561 66.1426 33.2534 66.2411 33.0981C66.3396 32.9409 66.4712 32.8178 66.636 32.7288C66.8007 32.6398 66.9826 32.5735 67.1814 32.5299C67.3822 32.4845 67.5839 32.4485 67.7865 32.422C68.0517 32.3879 68.2667 32.3623 68.4314 32.3453C68.5981 32.3263 68.7193 32.2951 68.7951 32.2515C68.8727 32.208 68.9115 32.1322 68.9115 32.0242V32.0015C68.9115 31.7212 68.8348 31.5034 68.6814 31.3481C68.5299 31.1928 68.2998 31.1152 67.9911 31.1152C67.671 31.1152 67.4201 31.1852 67.2382 31.3254C67.0564 31.4655 66.9286 31.6152 66.8547 31.7742L66.2184 31.547C66.332 31.2818 66.4835 31.0754 66.6729 30.9277C66.8642 30.778 67.0725 30.6739 67.2979 30.6152C67.5252 30.5546 67.7487 30.5242 67.9684 30.5242C68.1085 30.5242 68.2695 30.5413 68.4513 30.5754C68.635 30.6076 68.8121 30.6748 68.9826 30.7771C69.1549 30.8794 69.2979 31.0337 69.4115 31.2402C69.5252 31.4466 69.582 31.7231 69.582 32.0697V34.9447H68.9115V34.3538H68.8774C68.832 34.4485 68.7562 34.5498 68.6502 34.6578C68.5441 34.7657 68.403 34.8576 68.2269 34.9333C68.0507 35.0091 67.8358 35.047 67.582 35.047ZM67.6843 34.4447C67.9494 34.4447 68.1729 34.3926 68.3547 34.2885C68.5384 34.1843 68.6767 34.0498 68.7695 33.885C68.8642 33.7203 68.9115 33.547 68.9115 33.3652V32.7515C68.8831 32.7856 68.8206 32.8169 68.724 32.8453C68.6293 32.8718 68.5195 32.8955 68.3945 32.9163C68.2714 32.9352 68.1511 32.9523 68.0337 32.9674C67.9182 32.9807 67.8244 32.9921 67.7524 33.0015C67.5782 33.0242 67.4153 33.0612 67.2638 33.1123C67.1142 33.1616 66.993 33.2364 66.9002 33.3367C66.8093 33.4352 66.7638 33.5697 66.7638 33.7402C66.7638 33.9731 66.85 34.1492 67.0223 34.2686C67.1966 34.386 67.4172 34.4447 67.6843 34.4447ZM71.4762 32.3197V34.9447H70.8057V30.5811H71.4534V31.2629H71.5103C71.6125 31.0413 71.7678 30.8633 71.9762 30.7288C72.1845 30.5924 72.4534 30.5242 72.783 30.5242C73.0784 30.5242 73.337 30.5849 73.5586 30.7061C73.7801 30.8254 73.9525 31.0072 74.0756 31.2515C74.1987 31.4939 74.2603 31.8008 74.2603 32.172V34.9447H73.5898V32.2174C73.5898 31.8746 73.5008 31.6076 73.3228 31.4163C73.1447 31.2231 72.9004 31.1265 72.5898 31.1265C72.3758 31.1265 72.1845 31.1729 72.0159 31.2657C71.8493 31.3585 71.7176 31.4939 71.6211 31.672C71.5245 31.85 71.4762 32.0659 71.4762 32.3197ZM77.2581 35.0356C76.8642 35.0356 76.5185 34.9419 76.2212 34.7544C75.9257 34.5669 75.6947 34.3046 75.528 33.9674C75.3632 33.6303 75.2809 33.2364 75.2809 32.7856C75.2809 32.3311 75.3632 31.9343 75.528 31.5953C75.6947 31.2563 75.9257 30.993 76.2212 30.8055C76.5185 30.618 76.8642 30.5242 77.2581 30.5242C77.6521 30.5242 77.9968 30.618 78.2922 30.8055C78.5896 30.993 78.8206 31.2563 78.9854 31.5953C79.1521 31.9343 79.2354 32.3311 79.2354 32.7856C79.2354 33.2364 79.1521 33.6303 78.9854 33.9674C78.8206 34.3046 78.5896 34.5669 78.2922 34.7544C77.9968 34.9419 77.6521 35.0356 77.2581 35.0356ZM77.2581 34.4333C77.5574 34.4333 77.8036 34.3566 77.9968 34.2032C78.1899 34.0498 78.3329 33.8481 78.4257 33.5981C78.5185 33.3481 78.5649 33.0773 78.5649 32.7856C78.5649 32.4939 78.5185 32.2222 78.4257 31.9703C78.3329 31.7184 78.1899 31.5148 77.9968 31.3595C77.8036 31.2042 77.5574 31.1265 77.2581 31.1265C76.9589 31.1265 76.7127 31.2042 76.5195 31.3595C76.3263 31.5148 76.1833 31.7184 76.0905 31.9703C75.9977 32.2222 75.9513 32.4939 75.9513 32.7856C75.9513 33.0773 75.9977 33.3481 76.0905 33.5981C76.1833 33.8481 76.3263 34.0498 76.5195 34.2032C76.7127 34.3566 76.9589 34.4333 77.2581 34.4333Z" fill="#717171"/>
<path d="M10.2722 11.6541C10.2722 11.3621 10.0048 11.144 9.7269 11.2284C7.58453 11.8898 6.02963 13.895 6.02963 16.2625C6.02963 17.1455 6.24422 17.9757 6.62767 18.7074C5.88892 18.7707 5.15017 18.9959 4.46419 19.3934C2.42735 20.5754 1.48104 22.9183 1.97002 25.1099C2.03686 25.4054 2.37106 25.532 2.6349 25.3773C2.81079 25.2752 2.90226 25.0747 2.88467 24.8707C2.87411 24.7546 2.8706 24.6385 2.8706 24.5154C2.8706 20.1708 9.35753 20.1708 9.35753 24.5154C9.35753 27.6252 6.03315 28.5117 4.14406 27.1678C3.98576 27.0553 3.77469 27.0307 3.60583 27.1292C3.35958 27.2734 3.30329 27.6076 3.51085 27.8011C5.15017 29.3419 7.66192 29.6972 9.7058 28.5117C10.3355 28.1458 10.8597 27.6709 11.2712 27.1256C11.6828 27.6744 12.207 28.1493 12.8367 28.5117C14.8806 29.6972 17.3923 29.3419 19.0316 27.8011C19.2392 27.6076 19.1829 27.2699 18.9367 27.1292C18.7678 27.0307 18.5567 27.0553 18.3984 27.1678C16.5093 28.5117 13.185 27.6252 13.185 24.5154C13.185 20.1708 19.6719 20.1708 19.6719 24.5154C19.6719 24.635 19.6684 24.7546 19.6578 24.8707C19.6402 25.0747 19.7317 25.2752 19.9076 25.3773C20.1679 25.5285 20.5056 25.4054 20.5725 25.1099C21.0614 22.9218 20.1151 20.5754 18.0783 19.3934C17.3923 18.9959 16.6571 18.7707 15.9148 18.7074C16.2983 17.9757 16.5129 17.1455 16.5129 16.2625C16.5129 13.895 14.958 11.8898 12.8156 11.2284C12.5377 11.144 12.2703 11.3621 12.2703 11.6541C12.2703 11.8616 12.411 12.0411 12.6045 12.1184C15.5384 13.3004 15.0952 18.3943 11.2748 18.3943C7.45437 18.3943 7.00408 13.3004 9.93797 12.1184C10.1315 12.0411 10.2722 11.8616 10.2722 11.6541ZM9.8641 21.3423C9.8641 20.5648 10.4938 19.9351 11.2712 19.9351C12.0487 19.9351 12.6784 20.5648 12.6784 21.3423C12.6784 22.1197 12.0487 22.7494 11.2712 22.7494C10.4938 22.7494 9.8641 22.1197 9.8641 21.3423ZM16.4284 22.3871C15.8585 22.3871 15.3238 22.5806 14.9474 22.9148C14.5921 23.2349 14.3107 23.7379 14.3107 24.5189C14.3107 25.2612 14.564 25.7502 14.8911 26.0703C16.0239 25.2049 16.8435 23.942 17.139 22.4891C16.9174 22.4223 16.6747 22.3836 16.4284 22.3836V22.3871ZM8.23181 24.5189C8.23181 23.7344 7.95038 23.2314 7.59508 22.9148C7.21867 22.577 6.68396 22.3871 6.11406 22.3871C5.86781 22.3871 5.62508 22.4223 5.40345 22.4926C5.69895 23.9455 6.5151 25.2084 7.65137 26.0738C7.98205 25.7537 8.23181 25.2612 8.23181 24.5189ZM9.68117 16.6283C9.99778 16.9872 10.4973 17.2686 11.2712 17.2686C12.0452 17.2686 12.5447 16.9872 12.8613 16.6283C13.097 16.361 13.2659 16.0127 13.3397 15.6293C12.696 15.3901 11.9959 15.2599 11.2712 15.2599C10.5466 15.2599 9.84651 15.3901 9.20274 15.6293C9.28014 16.0127 9.44548 16.361 9.68117 16.6319V16.6283Z" fill="#4CAF4F"/>
</svg>
